<svg data-name="レイヤー_1" version="1.1" viewBox="0 0 72 72" xmlns="http://www.w3.org/2000/svg">
 <!-- Generator: Adobe Illustrator 29.4.0, SVG Export Plug-In . SVG Version: 2.1.0 Build 152)  -->
 <defs>
  <style>.st0 {
        fill: none;
        stroke: #000;
        stroke-linecap: round;
        stroke-linejoin: round;
        stroke-width: 2px;
      }</style>
 </defs>
 <path class="st0" d="M5,17h62v38H5V17Z"/>
 <path class="st0" d="M5,17h62v38H5V17Z"/>
 <path class="st0" d="M5,17h62v38H5V17Z"/>
 <path class="st0" d="M5,17h62v38H5V17Z"/>
 <g transform="matrix(.063018 0 0 .063018 24.499 12.274)">
  <g fill="none" stroke="#000" stroke-linecap="round" stroke-linejoin="round" stroke-width="2px">
   <path class="st0" d="m130 326h62v38h-62z"/>
   <path class="st0" d="m130 326h62v38h-62z"/>
   <path class="st0" d="m130 326h62v38h-62z"/>
   <path class="st0" d="m130 326h62v38h-62z"/>
   <path class="st0" d="m130 326h62v38h-62z"/>
  </g>
  <path d="m-297 75h959v603h-959" fill="#009c31"/>
  <path d="m-297 75h959v226l-589 377h-370" fill="#01319d"/>
  <path d="m-297 75h959l-959 603" fill="#fff"/>
  <path d="m-297 75h630l-630 390" fill="#fe0000"/>
  <path d="m89 222 82 74 25-108 24 108 81-77-39 104 109-20-89 63 103 38-110 11 68 86-99-50 5 110-53-96-56 93 8-108-97 48 66-83-107-11 101-37-87-61 107 18" fill="#ff9b31"/>
  <text x="136" y="395" font-family="'DejaVu Sans'" font-size="48px">1848</text>
 </g>
 <path class="st0" d="M5,17h62v38H5V17Z"/>
</svg>
