<svg data-name="レイヤー_1" version="1.1" viewBox="0 0 72 72" xmlns="http://www.w3.org/2000/svg">
 <!-- Generator: Adobe Illustrator 29.4.0, SVG Export Plug-In . SVG Version: 2.1.0 Build 152)  -->
 <defs>
  <style>.st0 {
        fill: none;
        stroke: #000;
        stroke-linecap: round;
        stroke-linejoin: round;
        stroke-width: 2px;
      }</style>
 </defs>
 <g transform="matrix(.0017929 0 0 .0016292 8.4488 19.77)" clip-rule="evenodd" fill-rule="evenodd" image-rendering="optimizeQuality" shape-rendering="geometricPrecision">
  <rect class="fil0" x="-1842" y="17667" width="34105" height="3958" fill="#0501d4"/>
  <rect class="fil1" x="-2107" y="-1700" width="34369" height="4032" fill="#f00600"/>
  <rect class="fil2" x="-2318" y="2331" width="34581" height="15336" fill="#fff"/>
  <g transform="matrix(1.3688 0 0 1.3688 -6416.8 -3689.6)">
   <path class="fil1" d="m11714 14729 4181 6 16-4404h-46l-464-3216s-20-26-18 105c3 131 45 3307 45 3307s-79 35-100-58c-22-93-722-3085-722-3085s-65 12-35 236c30 225 350 2898 350 2898s27 166-22 172-87 9-198-251-994-2513-994-2513-52-29-35 102c16 131 641 2720 641 2720s65 190-3 216-137-63-186-168-1206-2167-1206-2167-87-102-60 76 923 2370 934 2405 79 153 4 198-159-96-174-118-1387-1585-1387-1585-100-35-22 105c79 140 1117 1859 1117 1859s54 158-65 152c0 0-133-64-185-123-52-58-1301-1068-1301-1068s-76-13-19 77 1197 1494 1197 1494 30 146-65 108-1425-846-1425-846-125-29 16 105 1195 1159 1195 1159 24 117-62 114c-87-3-1290-412-1290-412s-46 26 38 101c84 74 1075 749 1075 749s49 143-19 161-1026-114-1026-114-24 38 79 90c103 53 863 403 863 403s33 117-22 149c-54 32-771 120-771 120s-54 53 57 67c111 15 638 210 679 242s-16 114-73 161-409 169-409 169-91 35-84 102z" fill="#f00600"/>
   <path class="fil3" d="m16715 7401s1075 689 1531 2043c195-1112-506-2015-1531-2043zm-820 7333 3788-8 603-1c-110-77-596-545-267-605 34-6 58-42 58-42-318-1-421 296-421 296-149 0-180-228-33-254 34-6 58-42 58-42-318-1-421 296-421 296-191 8-185-228-38-254 34-6 58-42 58-42-318-1-421 296-421 296-192 8-220-228-74-254 34-6 58-42 58-42-318-1-421 296-421 296-162 9-196-228-50-254 34-6 58-42 58-42-318-1-421 296-421 296-175 12-183-228-36-254 34-6 58-42 58-42-318-1-421 296-421 296-179 15-197-228-50-254 34-6 58-42 58-42-318-1-421 296-421 296s-50-175 175-391 581-464 581-464 33-38 30-74-57-58-111-36-721 309-823 292c-102-18-52-23 22-96 73-73 709-800 709-800s185-44 380-85 2025-490 2080-2545c54-2055-1683-2999-3242-2895 0 0-5 72 124 83 130 12 1115 272 1441 1241 0 0 228 619-521 1716s-1178 1786-1466 2206-502 718-502 718-81-55-41-198c41-143 557-1208 643-2329 87-1121 22-1844-76-2522-98-677-456-1623-662-1961 0 0-29-26-29 12 0 37-14 8488-14 8488zm92-1190 722-1039 586-800 1366 9s312 47 443 301c0 0 65 111-5 146-71 35-81-29-136-108-54-79-187-181-293-187s-462 3-462 3-62 64-68 152c-5 88-30 175-60 233s-643 759-736 846c-92 88-578 689-578 689s-133 67-174 70-337 102-399 125-114 29-128 6-73-222-79-447zm-76-7979 54 12s301 328 762 229c0 0 50-8 59-25s46 83-198 169-538 89-633 80l-47-4 1-96 95 1-1-206h-96l3-160zm43-299 1 204-50-1 4-203z" fill="#0501d4"/>
  </g>
 </g>
 <path class="st0" d="m5 17h62v38h-62z"/>
</svg>
