<svg data-name="レイヤー_1" version="1.1" viewBox="0 0 72 72" xmlns="http://www.w3.org/2000/svg">
 <!-- Generator: Adobe Illustrator 29.4.0, SVG Export Plug-In . SVG Version: 2.1.0 Build 152)  -->
 <defs>
  <style>.st0 {
        fill: none;
        stroke: #000;
        stroke-linecap: round;
        stroke-linejoin: round;
        stroke-width: 2px;
      }</style>
 </defs>
 <g transform="matrix(.0087963 0 0 .0087963 4.3333 17)">
  <path d="m0 0h7200v4320h-7200z" fill="#fff"/>
  <path d="m7200 4320h-7200v-1550.2h7200zm-2727.3-1550.2c-32.2-203.75-167.76-380.62-361.36-493.41h-1011.7c-193.6 112.79-329.16 289.66-361.36 493.41m1339.6-2179.4c-279.07 30.88-427.29 233.26-463.55 289.74-4.18 6.51-13.61 6.51-17.79 0-36.27-56.48-184.48-258.86-463.55-289.74-239.45-26.51-398.15 101.63-465.08 170.87-8.23 8.52 1.63 21.97 12.28 16.79 145.04-70.75 318.03-113.22 470.03-47.54 80.96 34.99 148.27 94.77 203.26 162.82 105.94 131.12 179.7 293.24 242.14 449.99 3.54 8.91 16.09 8.91 19.64 0 62.43-156.75 136.2-318.87 242.13-449.99 54.99-68.05 122.3-127.83 203.27-162.82 151.99-65.68 324.99-23.21 470.02 47.54 10.65 5.18 20.51-8.27 12.28-16.79-66.92-69.24-225.62-197.38-465.08-170.87m-463.07 151.55c37.46-72.56 123.45-183.39 305.32-207.02 11.42-1.48 12.89-17.46 1.82-20.64-73.95-21.29-186.74-33.83-307.87 87.3-5.19 5.19-12.1 5.19-17.29 0-121.13-121.13-233.92-108.59-307.87-87.3-11.07 3.18-9.6 19.16 1.81 20.64 181.88 23.63 267.87 134.46 305.34 207.02 3.95 7.66 14.78 7.66 18.74 0m-195.27 471.65c62.83 212.55 79.5 623.28 81.95 692 0.2 5.69 4.88 10.14 10.58 10.14h186.73c5.7 0 10.38-4.45 10.59-10.14 2.44-68.72 19.11-479.45 81.94-692 3.41-11.54-11.88-18.99-18.77-9.13-44.66 63.89-112.81 169.47-157.42 276.44-3.61 8.63-15.8 8.63-19.41 0-44.61-106.97-112.77-212.55-157.42-276.44-6.89-9.86-22.18-2.41-18.77 9.13m573.63 874.16s-14.15-61.59-84.48-78.64c-70.3-17.04-263.61-27.66-303.26-27.67-39.64 0.01-232.95 10.63-303.25 27.67-70.34 17.05-84.47 78.64-84.47 78.64l-38.95 122.93h853.35l-38.94-122.93" fill="#2a56ac"/>
  <path d="m2133.8 2506.2c0 90.27 10.23 178.43 29.67 263.58h442.63c-20.76-84.3-31.81-172.6-31.81-263.58 0-503.32 337.63-925.08 791.57-1036.7-13.94-93.48-29.32-177.8-44.69-251.98-676.71 118.21-1187.4 650.21-1187.4 1288.7zm1755.8-1288.7c-15.37 74.18-30.75 158.5-44.7 251.97 454.03 111.6 791.74 533.39 791.74 1036.8 0 90.98-11.06 179.28-31.81 263.58h442.62c19.45-85.15 29.67-173.31 29.67-263.58 0-638.55-510.73-1170.6-1187.5-1288.7m1130 1653.2h-444.91a1077.2 1077.2 0 0 1-72.31 161.56h451.78c25.59-52.18 47.53-106.11 65.44-161.56m-2763 161.56h451.78a1078.2 1078.2 0 0 1-72.31-161.56h-444.91c17.91 55.45 39.86 109.38 65.44 161.56m2642.3 100.88h-459.58c-41.35 58.65-88.29 112.81-140.12 161.55h483.21c43.05-51.1 82.03-105.06 116.49-161.55m-2470.5 161.55h483.21c-51.81-48.74-98.77-102.9-140.11-161.55h-459.58c34.45 56.49 73.43 110.45 116.48 161.55m294.26 262.43h710.68c-144.49-25.09-278.78-81.219-396.23-161.55h-514.5c60.98 59.098 127.93 113.23 200.05 161.55m1965.6-161.55h-514.5c-117.45 80.328-251.74 136.46-396.23 161.55h710.68c72.12-48.316 139.07-102.45 200.05-161.55m-1082.8 423.98c256.49 0 497.62-58.598 707.59-161.54h-1415.2c209.97 102.94 451.11 161.54 707.6 161.54" fill="#f5b90b"/>
  <path d="m3378.9 2400c-50.93 97.19-90.92 225.34-108.62 369.76h77.5c9.82-132.81 28.56-255.78 52.47-361.67 2.98-13.23-15.04-20.06-21.35-8.09zm215.18 4.31c-9.06 82.17-21.69 212.99-26.63 365.45h76.11c-4.93-152.47-17.58-283.28-26.63-365.45-1.55-13.9-21.29-13.9-22.85 0zm-433.16-8.26c-93.49 97.98-165.46 226.52-194.55 373.71h79.05c22.02-136.56 69.57-259.95 131.32-361.9 6.1-10.07-7.67-20.31-15.82-11.81zm649.83 12.04c23.92 105.89 42.67 228.86 52.49 361.67h77.5c-17.7-144.41-57.66-272.57-108.64-369.76-6.31-11.97-24.31-5.14-21.35 8.09zm239.33-12.04c-8.12-8.5-21.91 1.74-15.82 11.81 61.75 101.95 109.3 225.34 131.32 361.9h79.06c-29.1-147.19-101.06-275.72-194.56-373.71" fill="#fff"/>
 </g>
 <path class="st0" d="m5 17h62v38h-62z"/>
</svg>
