<svg data-name="レイヤー_1" version="1.1" viewBox="0 0 72 72" xmlns="http://www.w3.org/2000/svg">
 <!-- Generator: Adobe Illustrator 29.4.0, SVG Export Plug-In . SVG Version: 2.1.0 Build 152)  -->
 <defs>
  <style>.st0 {
        fill: none;
        stroke: #000;
        stroke-linecap: round;
        stroke-linejoin: round;
        stroke-width: 2px;
      }</style>
 </defs>
 <g transform="matrix(.066918 0 0 .066918 3.5243 10.387)">
  <path d="m23.008 113.79 837.33 45.851 116.66 116.66-53.254 53.254 53.254 53.254-53.254 53.195 53.254 53.254-116.66 116.66-837.33 45.851z" fill="#fff"/>
  <g fill="#c70f2e">
   <path d="m520.93 382.81 229.2-229.2-55.105-3.0448-231.35 231.41 232.9 232.9 53.553-2.9254z"/>
   <path d="m637.17 382.81 223.17-223.17-55.105-3.0448-225.91 225.91 226.39 226.39 54.628-2.9851z"/>
   <path d="m23.008 651.77v-537.98l43.224 2.3881v533.2z"/>
  </g>
  <path d="m152.8 644.73v-232h674.52l-29.971-29.911 29.971-29.971h-674.52v-231.94l-43.284-2.3881v528.43z" fill="#002673"/>
  <path d="m338.18 131.05 133.85 7.2837v488.84l-133.85 7.3434z" fill="#f5dc0f"/>
  <path d="m384.68 133.62-23.224-1.0746v500.72l23.224-1.3134z" fill="#c70f2e"/>
  <path d="m425.52 135.88 23.224 1.194v491.35l-23.224 1.3135z" fill="#c70f2e"/>
  <path d="m338.18 131.05-6.4478-0.4179v504.25l6.4478-0.35817z" fill="#ffff40"/>
  <path d="m472.03 138.33 6.4478 0.41791v488.07l-6.4478 0.35823z" fill="#ffff40"/>
  <g fill="#c70f2e">
   <path d="m940.39 239.71 36.598 36.598-26.627 26.627-36.598-36.598z"/>
   <path d="m950.36 356.19 26.627 26.627-26.627 26.568-26.627-26.568z"/>
   <path d="m950.36 462.64 26.627 26.627-36.598 36.598-26.627-26.627z"/>
  </g>
  <path d="m913.77 266.33 36.598 36.598-26.627 26.627 26.627 26.627-26.627 26.627 26.627 26.568-26.627 26.627 26.627 26.627-36.598 36.598-116.42-116.42z" fill="#006b2b"/>
  <path d="m897.11 356.19 26.262 26.627-26.262 26.568-26.627-26.568z" fill="#002673"/>
  <g fill="#fff">
   <path d="m131.19 370.51-2.806 8.4777h-8.8956l7.224 5.2538-2.7463 8.4777 7.224-5.2538 7.224 5.2538-2.806-8.4777 7.224-5.2538h-8.8956z"/>
   <path d="m191.85 370.51-2.7463 8.4777h-8.9553l7.224 5.2538-2.7463 8.4777 7.224-5.2538 7.224 5.2538-2.7463-8.4777 7.224-5.2538h-8.9553z"/>
   <path d="m252.56 370.51-2.806 8.4777h-8.8957l7.224 5.2538-2.7463 8.4777 7.224-5.2538 7.224 5.2538-2.806-8.4777 7.224-5.2538h-8.8956z"/>
   <path d="m131.19 426.04-2.806 8.5374h-8.8956l7.224 5.2538-2.7463 8.4777 7.224-5.2538 7.224 5.2538-2.806-8.4777 7.224-5.2538h-8.8956z"/>
   <path d="m131.19 481.62-2.806 8.4778h-8.8956l7.224 5.2538-2.7463 8.5374 7.224-5.2538 7.224 5.2538-2.806-8.5374 7.224-5.2538h-8.8956z"/>
   <path d="m131.19 537.2-2.806 8.4777h-8.8956l7.224 5.2538-2.7463 8.4778 7.224-5.1941 7.224 5.1941-2.806-8.4778 7.224-5.2538h-8.8956z"/>
   <path d="m131.19 592.79-2.806 8.4777h-8.8956l7.224 5.2538-2.7463 8.4777 7.224-5.2538 7.224 5.2538-2.806-8.4777 7.224-5.2538h-8.8956z"/>
   <path d="m131.19 314.93-2.806 8.4777h-8.8956l7.224 5.2538-2.7463 8.4777 7.224-5.2538 7.224 5.2538-2.806-8.4777 7.224-5.2538h-8.8956z"/>
   <path d="m131.19 259.35-2.806 8.4777h-8.8956l7.224 5.2538-2.7463 8.5374 7.224-5.2538 7.224 5.2538-2.806-8.5374 7.224-5.2538h-8.8956z"/>
   <path d="m131.19 203.77-2.806 8.5374h-8.8956l7.224 5.1941-2.7463 8.5374 7.224-5.2538 7.224 5.2538-2.806-8.5374 7.224-5.1941h-8.8956z"/>
   <path d="m131.19 148.18-2.806 8.5374h-8.8956l7.224 5.2538-2.7463 8.4778 7.224-5.2538 7.224 5.2538-2.806-8.4778 7.224-5.2538h-8.8956z"/>
   <path d="m552.09 370.51-2.806 8.4777h-8.8957l7.224 5.2538-2.7463 8.4777 7.224-5.2538 7.224 5.2538-2.806-8.4777 7.224-5.2538h-8.8957z"/>
   <path d="m620.09 370.51-2.806 8.4777h-8.8957l7.224 5.2538-2.7463 8.4777 7.224-5.2538 7.224 5.2538-2.806-8.4777 7.224-5.2538h-8.8956z"/>
   <path d="m688.03 370.51-2.7463 8.4777h-8.8956l7.224 5.2538-2.806 8.4777 7.224-5.2538 7.224 5.2538-2.7463-8.4777 7.224-5.2538h-8.8956z"/>
   <path d="m756.03 370.51-2.7463 8.4777h-8.8956l7.224 5.2538-2.806 8.4777 7.224-5.2538 7.224 5.2538-2.7463-8.4777 7.224-5.2538h-8.8956z"/>
   <path d="m897.11 361.71-4.418 13.672h-14.388l11.642 8.4777-4.4777 13.672 11.642-8.4777 11.642 8.4777-4.418-13.672 11.582-8.4777h-14.329z"/>
  </g>
  <path d="m23.008 113.79 837.33 45.851 116.66 116.66-53.254 53.254 53.254 53.254-53.254 53.195 53.254 53.254-116.66 116.66-837.33 45.851v-537.98" fill="none" stroke="#ccc" stroke-width="1.9105"/>
  <circle transform="matrix(.26843 0 0 .26843 305.4 257.52)" cx="371.43" cy="466.66" r="393.7" fill="#fff"/>
  <path d="m341.02 378.79c-1.6267 1.9981-5.4096 3.2324-9.1181 3.5063-1e-3 0.16253-8e-3 0.32374-8e-3 0.48652 0 40.412 32.801 73.213 73.213 73.213 40.412 0 73.213-32.801 73.213-73.213 0-0.15997-7e-3 -0.3184-8e-3 -0.47813-3.7245-0.26643-7.5344-1.5076-9.1684-3.5147-1.8549 2.2783-6.5161 3.5734-10.67 3.5734-4.1539 0-8.8135-1.2951-10.687-3.5734-1.8732 2.2783-6.5413 3.5734-10.695 3.5734s-8.8151-1.2951-10.67-3.5734c-1.8549 2.2783-6.5161 3.5734-10.67 3.5734s-8.8151-1.2951-10.67-3.5734c-1.8549 2.2783-6.5161 3.5734-10.67 3.5734-4.1539 0-8.8151-1.2951-10.67-3.5734-1.8549 2.2783-6.5161 3.5734-10.67 3.5734-4.1539 0-8.8135-1.2951-10.687-3.5734-1.8732 2.2783-6.5413 3.5734-10.695 3.5734-4.1539 0-8.8151-1.2951-10.67-3.5734z" fill="#002673" fill-rule="evenodd" stroke="#fff" stroke-width=".53685"/>
  <g transform="matrix(.26843 0 0 .26843 307.01 257.52)">
   <g transform="translate(218.56 -66.919)" stroke="#002673" stroke-width="5">
    <g fill="#fff" fill-rule="evenodd" stroke-width="5">
     <path d="m105.02 289.79 5.9053-0.78737 28.739 250.38-9.4485 1.1811z"/>
     <path d="m164.3 389.66c-32.291 1.4831-59.51 5.8854-86.735 12.885l0.8698 6.6437c28.332-2.863 55.183-6.493 86.441-13.333z"/>
     <path d="m81.019 401.57c0.8208 13.084 19.081 21.031 29.345 10.253 5.539 8.1907 21.331 5.4212 24.395-2.8284 14.201 4.3016 28.225-6.2461 26.163-19.269-27.341 1.0017-52.915 4.4783-79.903 11.844z"/>
     <path d="m218.41 311.83-5.9062 0.78125 22.656 225.59h9.2188z"/>
     <path d="m19.969 342.92-5.9062 0.8125 19.531 194.16 8.7188-0.28125z"/>
    </g>
    <g fill-rule="evenodd" stroke-width="5">
     <path d="m108.18 413.12c3.7065-2.9666 4.56-5.2165 6.7671-9.2898-1.2321 4.2516-2.8152 7.0844-5.5557 9.4772z" fill="#002673"/>
     <path d="m134.04 409.46c1.7767-4.4025 1.5505-6.782 1.2348-11.414 1.0099 4.3098 1.151 7.6654-0.0649 11.094z" fill="#002673"/>
     <path d="m65.728 459.82c4.2426 4.1542 15.273 7.9808 14.92 1.7053s-0.03401-7.7889 0.73116-12.4c0.26516-4.8614-2.8347-9.4576-5.398-12.198-2.5633-2.74-1.1214-7.0138 0.17677-10.518 1.5965-4.31-2.1213-11.49-7.7782-10.872 0.70711-15.026-27.4-18.562-36.77-10.783-4.5962-5.2149-26.605-2.1213-27.672 4.6564-1.875-3.875-18.625 0.5-15.75 6-5.722-1.1104-12.263 5.8722-12.616 8.3471-5.1265-4.6846-23.493 2.489-22.362 7.8666 0.53404 2.5408 1.472 3.1089 3.182 3.8007-5.2149 1.5026 0.44194 8.1317 7.955 10.518 7.513 2.3865 16.617 3.3588 23.688-0.26517 7.0711-3.6239 12.728-7.513 23.865-7.513 12.109-0.61871 16.087 3.6239 23.865 3.8891 7.7782 0.26517 12.198-2.4749 19.799-1.2374 7.6014 1.2374 7.955 4.6846 8.0433 6.6291s-2.1213 8.2201 2.1213 12.374z" fill="#fff" stroke-linecap="round" stroke-linejoin="round"/>
    </g>
    <g transform="translate(-220.56 66.921)" fill="#002673" fill-rule="evenodd" stroke-width="5">
     <path d="m287.62 394.24-1.17-13.25-1.08 13.25z"/>
     <path d="m290.25 396.11-1.17-13.25-1.08 13.25z"/>
     <path d="m299.5 393.61-1.17-13.25-1.08 13.25z"/>
     <path d="m180.96 370.01c2.9442 3.2565 10.522 2.6009 12.793-0.0942l0.0675 0.10643c-3.2726 5.2165-10.577 4.3757-12.86-0.0122z"/>
     <path d="m190.42 372.17c2.9442 3.2565 10.522 2.6009 12.793-0.0942l0.0675 0.10643c-3.2726 5.2165-10.577 4.3757-12.86-0.0122z"/>
     <path d="m201.09 365.77c3.2304 3.6955 11.544 2.9515 14.036-0.1069l0.0741 0.12078c-3.5907 5.9197-11.605 4.9656-14.11-0.0139z"/>
     <path d="m207.84 369.64c3.2304 3.6955 11.544 2.9515 14.036-0.1069l0.0741 0.12078c-3.5907 5.9197-11.605 4.9656-14.11-0.0139z"/>
     <path d="m197.84 374.77c3.2304 3.6955 11.544 2.9515 14.036-0.1069l0.0741 0.12078c-3.5907 5.9197-11.605 4.9656-14.11-0.0139z"/>
     <path d="m184.59 375.77c2.8298 3.6955 10.113 2.9515 12.295-0.1069l0.0649 0.12078c-3.1454 5.9197-10.166 4.9656-12.36-0.0139z"/>
     <path d="m214.42 362.74c3.3163 3.6955 11.851 2.9515 14.409-0.1069l0.0761 0.12078c-3.6861 5.9197-11.914 4.9656-14.485-0.0139z"/>
     <path d="m228.71 366.14c3.3163 3.6955 11.851 2.9515 14.409-0.1069l0.0761 0.12078c-3.6861 5.9197-11.914 4.9656-14.485-0.0139z"/>
     <path d="m240.59 362.77c3.3163 3.6955 11.851 2.9515 14.409-0.1069l0.0761 0.12078c-3.6861 5.9197-11.914 4.9656-14.485-0.0139z"/>
     <path d="m243.09 368.25c2.1143 3.037 7.5559 2.4256 9.1866-0.0879l0.0485 0.0993c-2.3501 4.8649-7.5957 4.0808-9.2351-0.0114z"/>
     <path d="m219.96 367.62c2.1143 3.037 7.5559 2.4256 9.1866-0.0879l0.0485 0.0993c-2.3501 4.8649-7.5957 4.0808-9.2351-0.0114z"/>
     <path d="m251.71 367.38c2.9442 3.2565 10.522 2.6009 12.793-0.0942l0.0675 0.10643c-3.2726 5.2165-10.577 4.3757-12.86-0.0122z"/>
     <path d="m223.59 352c2.1143 3.037 7.5559 2.4256 9.1866-0.0879l0.0485 0.0993c-2.3501 4.8649-7.5957 4.0808-9.2351-0.0114z"/>
     <path d="m267.84 355.25c2.1143 3.037 7.5559 2.4256 9.1866-0.0879l0.0485 0.0993c-2.3501 4.8649-7.5957 4.0808-9.2351-0.0114z"/>
     <path d="m260.84 363.52c3.3163 3.6955 11.851 2.9515 14.409-0.1069l0.0761 0.12078c-3.6861 5.9197-11.914 4.9656-14.485-0.0139z"/>
     <path d="m262.97 369c2.1143 3.037 7.5559 2.4256 9.1866-0.0879l0.0485 0.0993c-2.3501 4.8649-7.5957 4.0808-9.2351-0.0114z"/>
     <path d="m271.46 367.76c2.1143 3.037 7.5559 2.4256 9.1866-0.0879l0.0485 0.0993c-2.3501 4.8649-7.5957 4.0808-9.2351-0.0114z"/>
    </g>
    <g fill="#fff">
     <g fill-rule="evenodd" stroke-width="5">
      <path d="m57.938 523.28v-22.5h5.25l-0.75-43c4.8333-1.6667 14.417-1.8333 19.75-0.5l2.25 40.25 4.5 7.75-1 18.25z"/>
      <path d="m-25.855 511.17 3.7881 11.869 34.345 2.7779v-12.879z"/>
      <path d="m210.86 520.36-70.049 0.66944v-6.3125l-3-3.25h-1.8125v-5.25h3.3548v-4.1875h-61.167v18l-60.5-1.5v14.25l191.75-0.25z"/>
     </g>
     <g stroke-linecap="round" stroke-width="5">
      <rect x="20.738" y="513.32" width="3.0305" height="12.879"/>
      <rect x="31.218" y="513.7" width="3.0305" height="12.879"/>
      <rect x="41.699" y="514.08" width="3.0305" height="12.879"/>
      <rect x="52.053" y="514.33" width="3.0305" height="12.879"/>
      <rect x="62.281" y="514.33" width="3.0305" height="12.879"/>
      <rect x="133.88" y="515.97" width="3.0305" height="12.879"/>
      <rect x="145.74" y="515.97" width="3.0305" height="12.879"/>
      <rect x="157.87" y="516.1" width="3.0305" height="12.879"/>
      <rect x="170.49" y="515.59" width="3.0305" height="12.879"/>
      <rect x="182.36" y="515.59" width="3.0305" height="12.879"/>
      <rect x="194.48" y="515.72" width="3.0305" height="12.879"/>
     </g>
     <path d="m208.25 515.09v12.248l80.081-6.9132 9.2923-10.941-47.831 3.9017z" fill-rule="evenodd" stroke-width="5"/>
     <g>
      <path d="m288.81 508.01c-36.742 4.2911-96.562 6.1207-159.09 5.7812-0.81245-0.0827-1.6016 0.30189-2.037 0.9928s-0.44179 1.5688-0.0165 2.266c0.42525 0.69719 1.2087 1.0933 2.0223 1.0224 62.629 0.33994 122.49-1.4441 159.62-5.7812 1.1822-0.13807 2.0287-1.2084 1.8906-2.3906-0.13808-1.1822-1.2084-2.0287-2.3906-1.8906zm-316.22 0.25c-1.1049 0.13217-1.9264 1.0855-1.8939 2.1978 0.03248 1.1123 0.9082 2.016 2.0189 2.0835 29.019 2.105 62.624 3.6732 97.344 4.5938 1.1909 0.0345 2.1842-0.90289 2.2188-2.0938s-0.90289-2.1842-2.0938-2.2188c-34.666-0.91915-68.225-2.4638-97.156-4.5625-0.14545-0.0149-0.29205-0.0149-0.4375 0z" fill-rule="evenodd" stroke-linecap="round" stroke-width="5"/>
      <path d="m-10.813 559.61-12.454-40.328c104.26 10.315 208.93 6.6616 311.63 1.0714-5.7317 22.089-20.672 33.947-38.681 43.554z" fill-rule="evenodd" stroke-width="5"/>
      <g stroke-linecap="round">
       <rect transform="matrix(.99964 .026719 0 1 0 0)" x="82.174" y="525.23" width="6.6585" height="6.222" stroke-width="5.0009"/>
       <rect transform="matrix(.99991 .013363 0 1 0 0)" x="102.41" y="526.38" width="6.6567" height="6.222" stroke-width="5.0002"/>
       <g stroke-width="5">
        <rect x="122.37" y="527.78" width="6.6561" height="6.222"/>
        <rect x="142.19" y="527.7" width="6.6561" height="6.222"/>
        <path d="m161.59 527.5v6.2188l6.6562-0.1779v-6.2188z"/>
       </g>
      </g>
     </g>
     <g fill-rule="evenodd" stroke-width="5">
      <path d="m145.44 308.78c-25.688 1.1798-47.342 4.682-69 10.25l0.69195 5.2852c22.539-2.2776 43.899-5.1654 68.766-10.607z"/>
      <path d="m254.06 335.16c-25.688 1.1798-47.342 4.682-69 10.25l0.69195 5.2852c22.539-2.2776 43.899-5.1654 68.766-10.607z"/>
      <path d="m276.88 403.66c-33.891 1.5566-62.46 6.1771-91.034 13.523l0.91292 6.973c29.736-3.0049 57.918-6.8149 90.726-13.994z"/>
      <path d="m47.983 360.19c-21.131 0.97051-38.943 3.8514-56.759 8.4316l0.5692 4.3476c18.54-1.8735 36.111-4.249 56.566-8.7249z"/>
      <path d="m-5.7497 367.85c16.833-4.4375 36.104-7 51.438-7.5 0.60417 9.7708-6.2292 16.479-15.062 15.438-2.6875 5.8542-13.125 7.5208-19.625 2.5-4.75 3.0625-15.938 1.6875-16.75-10.438z"/>
     </g>
    </g>
    <g fill-rule="evenodd" stroke-width="5">
     <path d="m8.8494 378.75c4.126-1.429 4.6299-4.3031 5.3942-7.0628 0.50545 3.5191-1.4629 5.6822-3.0146 7.0054z" fill="#002673"/>
     <path d="m29.851 376.34c1.2015-2.3935 1.0905-4.6778 0.55241-7.4904 1.5754 2.9305 1.0197 5.5232 0.52778 7.4596z" fill="#002673"/>
     <path d="m189.64 416.12c1.8445 14.521 19.566 22.832 32.625 13.73 10.489 9.1335 28.36 4.2904 32.527-4.0659 17.488 3.7179 21.11-16.286 17.933-22.256-27.518 1.9445-55.744 4.6363-83.085 12.591z" fill="#fff"/>
     <path d="m221.33 429.91c3.7708-2.8844 4.7877-5.0475 6.8747-9.195-1.3253 4.2235-2.9125 7.1834-5.7049 9.5154z" fill="#002673"/>
     <path d="m253.9 426.46c1.8667-3.8695 1.8288-5.8595 1.2857-9.631 1.5428 3.2021 1.37 6.3127-0.23022 9.6479z" fill="#002673"/>
     <path d="m188.06 344.53c2.7083 11.625 13.792 15 22 9.125 6.7983 5.1861 20.276 2.1262 23-2.875 8 2.9167 17.75-1.4167 17.875-15.625-21.958 1.375-41.667 3.625-62.875 9.375z" fill="#fff"/>
     <path d="m208.67 354.01c3.4243-2.4107 3.6-4.9128 4.3346-8.4004 0.34346 3.364-0.33775 6.4334-3.186 8.777z" fill="#002673"/>
     <path d="m232.1 351.29c2.1565-2.9916 1.9894-4.8631 2.0525-8.4267 0.97218 3.2387 0.50687 6.0501-0.94187 8.3588z" fill="#002673"/>
     <path d="m264.61 510.11 95.066-18.666 2.0258 6.0773-72.204 17.798c-14.759 3.6174-24.599-1.7364-24.888-5.2091z" fill="#fff"/>
     <path d="m142.5 308.75c-15.75-0.25-40.31 1.2865-62.81 9.5365-0.99512 7.3044 6.3446 19.304 23.075 12.222 1.9053 2.6092 16.711 2.6836 21.213-4.0659 11.319 3.4235 21.703-9.3665 18.523-17.693z" fill="#fff"/>
     <path d="m100.97 330.69c3.7065-2.0607 4.6926-5.3491 5.4634-9.5991 0.45406 5.0747-1.8195 7.8785-3.2134 9.7866z" fill="#002673"/>
     <path d="m123.01 326.88c2.3315-3.0294 3.0051-5.7241 3.3071-9.6929 0.62907 4.1083 0.33911 6.0257-2.2759 9.8804z" fill="#002673"/>
    </g>
   </g>
   <g transform="translate(-2)">
    <g fill="none" stroke="#002673" stroke-width="2">
     <path d="m239.41 301.85c1.6703 52.892-11.135 118.59-26.724 158.68"/>
     <path d="m238.29 308.54c-1.6703 45.097-22.827 105.78-38.416 138.63"/>
     <path d="m332.94 256.2c-1.6703 65.141-16.146 154.22-71.265 206"/>
    </g>
    <g stroke="#002673">
     <path d="m325.58 222.86 5.9053-0.78737 28.739 250.38-9.4485 1.1811z" fill="#fff" fill-rule="evenodd" stroke-width="1px"/>
     <path d="m384.86 322.74c-32.291 1.4831-59.51 5.8854-86.735 12.885l0.8698 6.6437c28.332-2.863 55.183-6.493 86.441-13.333z" fill="#fff" fill-rule="evenodd"/>
     <path d="m437.39 278.37c3.9369 59.053-27.952 152.36-57.872 187" fill="none" stroke-width="2"/>
    </g>
    <g fill="#fff" fill-rule="evenodd" stroke="#002673" stroke-width="1px">
     <path d="m301.58 334.65c0.8208 13.084 19.081 21.031 29.345 10.253 5.539 8.1907 21.331 5.4212 24.395-2.8284 14.201 4.3016 28.225-6.2461 26.163-19.269-27.341 1.0017-52.915 4.4783-79.903 11.844z"/>
     <path d="m438.97 244.91-5.9062 0.78125 22.656 225.59h9.2188z"/>
     <path d="m240.53 276-5.9062 0.8125 19.531 194.16 8.7188-0.28125z"/>
    </g>
    <path d="m328.74 346.2c3.7065-2.9666 4.56-5.2165 6.7671-9.2898-1.2321 4.2516-2.8152 7.0844-5.5557 9.4772z" fill="#002673" fill-rule="evenodd"/>
    <path d="m333.45 258.69c21.259 76.375 63.777 158.26 101.96 201.17" fill="none" stroke="#002673" stroke-width="2"/>
    <path d="m354.6 342.54c1.7767-4.4025 1.5505-6.782 1.2348-11.414 1.0099 4.3098 1.151 7.6654-0.0649 11.094z" fill="#002673" fill-rule="evenodd"/>
    <path d="m241.63 305.19c7.7946 64.584 36.746 116.36 62.914 161.46" fill="none" stroke="#002673" stroke-width="2"/>
    <path d="m286.29 392.9c4.2426 4.1542 15.273 7.9808 14.92 1.7053s-0.034-7.7889 0.73116-12.4c0.26516-4.8614-2.8347-9.4576-5.398-12.198-2.5633-2.74-1.1214-7.0138 0.17677-10.518 1.5965-4.31-2.1213-11.49-7.7782-10.872 0.70711-15.026-27.4-18.562-36.77-10.783-4.5962-5.2149-26.605-2.1213-27.672 4.6564-1.875-3.875-18.625 0.5-15.75 6-5.722-1.1104-12.263 5.8722-12.616 8.3471-5.1265-4.6846-23.493 2.489-22.362 7.8666 0.53404 2.5408 1.472 3.1089 3.182 3.8007-5.2149 1.5026 0.44194 8.1317 7.955 10.518 7.513 2.3865 16.617 3.3588 23.688-0.26517 7.0711-3.6239 12.728-7.513 23.865-7.513 12.109-0.61871 16.087 3.6239 23.865 3.8891 7.7782 0.26517 12.198-2.4749 19.799-1.2374 7.6014 1.2374 7.955 4.6846 8.0433 6.6291 0.0884 1.9445-2.1213 8.2201 2.1213 12.374z" fill="#fff" fill-rule="evenodd" stroke="#002673" stroke-linecap="round" stroke-linejoin="round"/>
    <g fill="#002673" fill-rule="evenodd">
     <path d="m287.62 394.24-1.17-13.25-1.08 13.25z"/>
     <path d="m290.25 396.11-1.17-13.25-1.08 13.25z"/>
     <path d="m299.5 393.61-1.17-13.25-1.08 13.25z"/>
     <path d="m180.96 370.01c2.9442 3.2565 10.522 2.6009 12.793-0.0942l0.0675 0.10643c-3.2726 5.2165-10.577 4.3757-12.86-0.0122z"/>
     <path d="m190.42 372.17c2.9442 3.2565 10.522 2.6009 12.793-0.0942l0.0675 0.10643c-3.2726 5.2165-10.577 4.3757-12.86-0.0122z"/>
     <path d="m201.09 365.77c3.2304 3.6955 11.544 2.9515 14.036-0.1069l0.0741 0.12078c-3.5907 5.9197-11.605 4.9656-14.11-0.0139z"/>
     <path d="m207.84 369.64c3.2304 3.6955 11.544 2.9515 14.036-0.1069l0.0741 0.12078c-3.5907 5.9197-11.605 4.9656-14.11-0.0139z"/>
     <path d="m197.84 374.77c3.2304 3.6955 11.544 2.9515 14.036-0.1069l0.0741 0.12078c-3.5907 5.9197-11.605 4.9656-14.11-0.0139z"/>
     <path d="m184.59 375.77c2.8298 3.6955 10.113 2.9515 12.295-0.1069l0.0649 0.12078c-3.1454 5.9197-10.166 4.9656-12.36-0.0139z"/>
     <path d="m214.42 362.74c3.3163 3.6955 11.851 2.9515 14.409-0.1069l0.0761 0.12078c-3.6861 5.9197-11.914 4.9656-14.485-0.0139z"/>
     <path d="m228.71 366.14c3.3163 3.6955 11.851 2.9515 14.409-0.1069l0.0761 0.12078c-3.6861 5.9197-11.914 4.9656-14.485-0.0139z"/>
     <path d="m240.59 362.77c3.3163 3.6955 11.851 2.9515 14.409-0.1069l0.0761 0.12078c-3.6861 5.9197-11.914 4.9656-14.485-0.0139z"/>
     <path d="m243.09 368.25c2.1143 3.037 7.5559 2.4256 9.1866-0.0879l0.0485 0.0993c-2.3501 4.8649-7.5957 4.0808-9.2351-0.0114z"/>
     <path d="m219.96 367.62c2.1143 3.037 7.5559 2.4256 9.1866-0.0879l0.0485 0.0993c-2.3501 4.8649-7.5957 4.0808-9.2351-0.0114z"/>
     <path d="m251.71 367.38c2.9442 3.2565 10.522 2.6009 12.793-0.0942l0.0675 0.10643c-3.2726 5.2165-10.577 4.3757-12.86-0.0122z"/>
     <path d="m223.59 352c2.1143 3.037 7.5559 2.4256 9.1866-0.0879l0.0485 0.0993c-2.3501 4.8649-7.5957 4.0808-9.2351-0.0114z"/>
     <path d="m267.84 355.25c2.1143 3.037 7.5559 2.4256 9.1866-0.0879l0.0485 0.0993c-2.3501 4.8649-7.5957 4.0808-9.2351-0.0114z"/>
     <path d="m260.84 363.52c3.3163 3.6955 11.851 2.9515 14.409-0.1069l0.0761 0.12078c-3.6861 5.9197-11.914 4.9656-14.485-0.0139z"/>
     <path d="m262.97 369c2.1143 3.037 7.5559 2.4256 9.1866-0.0879l0.0485 0.0993c-2.3501 4.8649-7.5957 4.0808-9.2351-0.0114z"/>
     <path d="m271.46 367.76c2.1143 3.037 7.5559 2.4256 9.1866-0.0879l0.0485 0.0993c-2.3501 4.8649-7.5957 4.0808-9.2351-0.0114z"/>
    </g>
    <g stroke="#002673">
     <path d="m278.5 456.36v-22.5h5.25l-0.75-43c4.8333-1.6667 14.417-1.8333 19.75-0.5l2.25 40.25 4.5 7.75-1 18.25z" fill="#fff" fill-rule="evenodd"/>
     <path d="m194.71 444.25 3.7881 11.869 34.345 2.7779v-12.879z" fill="#fff" fill-rule="evenodd"/>
     <path d="m331.09 259.87c11.417 70.47 44.487 162.59 77.556 208.26" fill="none" stroke-width="2"/>
    </g>
    <g fill="#fff" stroke="#002673">
     <path d="m431.42 453.44-70.049 0.66944v-6.3125l-3-3.25h-1.8125v-5.25h3.3548v-4.1875h-61.167v18l-60.5-1.5v14.25l191.75-0.25z" fill-rule="evenodd"/>
     <g stroke-linecap="round">
      <rect x="241.3" y="446.4" width="3.0305" height="12.879"/>
      <rect x="251.78" y="446.78" width="3.0305" height="12.879"/>
      <rect x="262.26" y="447.15" width="3.0305" height="12.879"/>
      <rect x="272.61" y="447.41" width="3.0305" height="12.879"/>
      <rect x="282.84" y="447.41" width="3.0305" height="12.879"/>
      <rect x="354.44" y="449.05" width="3.0305" height="12.879"/>
      <rect x="366.31" y="449.05" width="3.0305" height="12.879"/>
      <rect x="378.43" y="449.17" width="3.0305" height="12.879"/>
      <rect x="391.06" y="448.67" width="3.0305" height="12.879"/>
      <rect x="402.92" y="448.67" width="3.0305" height="12.879"/>
      <rect x="415.05" y="448.8" width="3.0305" height="12.879"/>
     </g>
     <path d="m428.81 448.16v12.248l80.081-6.9132 9.2923-10.941-47.831 3.9017z" fill-rule="evenodd"/>
     <g>
      <path d="m509.38 441.09c-36.742 4.2911-96.562 6.1207-159.09 5.7812-0.81245-0.0827-1.6016 0.30189-2.037 0.9928s-0.44179 1.5688-0.0165 2.266c0.42525 0.69719 1.2087 1.0933 2.0223 1.0224 62.629 0.33994 122.49-1.4441 159.62-5.7812 1.1822-0.13807 2.0287-1.2084 1.8906-2.3906-0.13808-1.1822-1.2084-2.0287-2.3906-1.8906zm-316.22 0.25c-1.1049 0.13217-1.9264 1.0855-1.8939 2.1978 0.0325 1.1123 0.9082 2.016 2.0189 2.0835 29.019 2.105 62.624 3.6732 97.344 4.5938 1.1909 0.0345 2.1842-0.90289 2.2188-2.0938 0.0345-1.1909-0.90289-2.1842-2.0938-2.2188-34.666-0.91915-68.225-2.4638-97.156-4.5625-0.14545-0.0149-0.29205-0.0149-0.4375 0z" fill-rule="evenodd" stroke-linecap="round"/>
      <path d="m209.75 492.69-12.454-40.328c104.26 10.315 208.93 6.6616 311.63 1.0714-5.7317 22.089-20.672 33.947-38.681 43.554z" fill-rule="evenodd"/>
      <g stroke-linecap="round">
       <rect transform="matrix(.99964 .026719 0 1 0 0)" x="302.82" y="452.42" width="6.6585" height="6.222" stroke-width="1.0002"/>
       <rect transform="matrix(.99991 .013363 0 1 0 0)" x="322.99" y="456.51" width="6.6567" height="6.222"/>
       <g>
        <rect x="342.93" y="460.86" width="6.6561" height="6.222"/>
        <rect x="362.76" y="460.78" width="6.6561" height="6.222"/>
        <path d="m382.16 460.58v6.2188l6.6562-0.1779v-6.2188z"/>
       </g>
      </g>
     </g>
     <g fill-rule="evenodd">
      <g>
       <path d="m366 241.86c-25.688 1.1798-47.342 4.682-69 10.25l0.69195 5.2852c22.539-2.2776 43.899-5.1654 68.766-10.607z"/>
       <path d="m474.62 268.24c-25.688 1.1798-47.342 4.682-69 10.25l0.69195 5.2852c22.539-2.2776 43.899-5.1654 68.766-10.607z"/>
       <path d="m497.44 336.74c-33.891 1.5566-62.46 6.1771-91.034 13.523l0.91292 6.973c29.736-3.0049 57.918-6.8149 90.726-13.994z"/>
       <path d="m268.54 293.27c-21.131 0.97051-38.943 3.8514-56.759 8.4316l0.5692 4.3476c18.54-1.8735 36.111-4.249 56.566-8.7249z"/>
      </g>
      <path d="m214.81 300.92c16.833-4.4375 36.104-7 51.438-7.5 0.60417 9.7708-6.2292 16.479-15.062 15.438-2.6875 5.8542-13.125 7.5208-19.625 2.5-4.75 3.0625-15.938 1.6875-16.75-10.438z" stroke-width="1px"/>
     </g>
    </g>
    <g fill-rule="evenodd">
     <path d="m229.41 311.83c4.126-1.429 4.6299-4.3031 5.3942-7.0628 0.50545 3.5191-1.4629 5.6822-3.0146 7.0054z" fill="#002673"/>
     <path d="m250.41 309.42c1.2015-2.3935 1.0905-4.6778 0.55241-7.4904 1.5754 2.9305 1.0197 5.5232 0.52778 7.4596z" fill="#002673"/>
     <path d="m410.2 349.2c1.8445 14.521 19.566 22.832 32.625 13.73 10.489 9.1335 28.36 4.2904 32.527-4.0659 17.488 3.7179 21.11-16.286 17.933-22.256-27.518 1.9445-55.744 4.6363-83.085 12.591z" fill="#fff" stroke="#002673" stroke-width="1px"/>
     <path d="m441.89 362.99c3.7708-2.8844 4.7877-5.0475 6.8747-9.195-1.3253 4.2235-2.9125 7.1834-5.7049 9.5154z" fill="#002673"/>
     <path d="m474.46 359.54c1.8667-3.8695 1.8288-5.8595 1.2857-9.631 1.5428 3.2021 1.37 6.3127-0.23022 9.6479z" fill="#002673"/>
    </g>
    <g fill="none" stroke="#002673" stroke-width="2">
     <path d="m438.17 283.49c14.173 52.36 40.943 102.36 85.036 155.11"/>
     <path d="m443.29 284.28c31.495 63.384 67.714 106.3 130.31 142.91"/>
     <path d="m439.75 282.71c20.472 59.053 64.958 118.11 107.48 151.96"/>
    </g>
    <g fill-rule="evenodd">
     <path d="m408.62 277.61c2.7083 11.625 13.792 15 22 9.125 6.7983 5.1861 20.276 2.1262 23-2.875 8 2.9167 17.75-1.4167 17.875-15.625-21.958 1.375-41.667 3.625-62.875 9.375z" fill="#fff" stroke="#002673" stroke-width="1px"/>
     <path d="m429.23 287.09c3.4243-2.4107 3.6-4.9128 4.3346-8.4004 0.34346 3.364-0.33775 6.4334-3.186 8.777z" fill="#002673"/>
     <path d="m452.67 284.37c2.1565-2.9916 1.9894-4.8631 2.0525-8.4267 0.97218 3.2387 0.50687 6.0501-0.94187 8.3588z" fill="#002673"/>
     <path d="m485.17 443.19 95.066-18.666 2.0258 6.0773-72.204 17.798c-14.759 3.6174-24.599-1.7364-24.888-5.2091z" fill="#fff" stroke="#002673"/>
     <path d="m363.06 241.83c-15.75-0.25-40.31 1.2865-62.81 9.5365-0.99512 7.3044 6.3446 19.304 23.075 12.222 1.9053 2.6092 16.711 2.6836 21.213-4.0659 11.319 3.4235 21.703-9.3665 18.523-17.693z" fill="#fff" stroke="#002673" stroke-width="1px"/>
     <path d="m321.54 263.77c3.7065-2.0607 4.6926-5.3491 5.4634-9.5991 0.45406 5.0747-1.8195 7.8785-3.2134 9.7866z" fill="#002673"/>
     <path d="m343.57 259.96c2.3315-3.0294 3.0051-5.7241 3.3071-9.6929 0.62907 4.1083 0.33911 6.0257-2.2759 9.8804z" fill="#002673"/>
    </g>
   </g>
  </g>
  <g fill="#002673" fill-rule="evenodd" stroke="#fff" stroke-width=".53685">
   <path d="m331.92 384.75c1.0467 39.502 33.436 71.242 73.188 71.242 39.13 0 71.13-30.751 73.121-69.388-2.2849 1.4283-5.8333 2.2145-9.0762 2.2145-4.1539 0-8.8135-1.2867-10.687-3.565-1.8732 2.2784-6.5413 3.565-10.695 3.565-4.1539 0-8.8151-1.2867-10.67-3.565-1.8549 2.2784-6.5161 3.565-10.67 3.565-4.1539 0-8.8151-1.2867-10.67-3.565-1.8549 2.2784-6.5161 3.565-10.67 3.565-4.1539 0-8.8151-1.2867-10.67-3.565-1.8549 2.2784-6.5161 3.565-10.67 3.565-4.1539 0-8.8135-1.2867-10.687-3.565-1.8732 2.2784-6.5413 3.565-10.695 3.565s-8.8151-1.2867-10.67-3.565c-1.8549 2.2784-6.5161 3.565-10.67 3.565-4.3623 0-7.9906-2.1978-9.1097-4.0684z"/>
   <path d="m341.02 391.72c-1.4754 1.8122-4.7273 2.9964-8.0864 3.4057 5.8722 34.543 35.967 60.874 72.173 60.874 36.207 0 66.301-26.331 72.173-60.874-3.3759-0.4038-6.6543-1.5849-8.1367-3.4057-1.8549 2.2784-6.5161 3.565-10.67 3.565-4.1539 0-8.8135-1.2867-10.687-3.565-1.8732 2.2784-6.5413 3.565-10.695 3.565-4.1539 0-8.8151-1.2867-10.67-3.565-1.8549 2.2784-6.5161 3.565-10.67 3.565-4.1539 0-8.8151-1.2867-10.67-3.565-1.8549 2.2784-6.5161 3.565-10.67 3.565-4.1539 0-8.8151-1.2867-10.67-3.565-1.8549 2.2784-6.5161 3.565-10.67 3.565-4.1539 0-8.8135-1.2867-10.687-3.565-1.8732 2.2784-6.5413 3.565-10.695 3.565-4.1539 0-8.8151-1.2867-10.67-3.565z"/>
   <path d="m351.7 398.18c-1.8549 2.2784-6.5161 3.565-10.67 3.565-3.9969 0-6.8049-1.5017-7.4237-3.1876 7.2237 32.835 36.508 57.435 71.502 57.435 34.287 0 63.087-23.617 71.032-55.455-2.0847 0.78267-4.6184 1.2079-6.9875 1.2079-4.1539 0-8.8135-1.2867-10.687-3.565-1.8732 2.2784-6.5413 3.565-10.695 3.565-4.1539 0-8.8151-1.2867-10.67-3.565-1.8549 2.2784-6.5161 3.565-10.67 3.565-4.1539 0-8.8151-1.2867-10.67-3.565-1.8549 2.2784-6.5161 3.565-10.67 3.565-4.1539 0-8.8151-1.2867-10.67-3.565-1.8549 2.2784-6.5161 3.565-10.67 3.565-4.1539 0-8.8135-1.2867-10.687-3.565-1.8732 2.2784-6.5413 3.565-10.695 3.565-4.1539 0-8.8151-1.2867-10.67-3.565z"/>
  </g>
  <g>
   <rect x="331.75" y="407.53" width="146.24" height="26.552" fill="#fff"/>
   <path d="m358.15 427.9v-14.199h4.5359l2.2155 9.1922 2.2154-9.1922h4.5359v14.199h-2.877l0.063-12.594-3.0134 12.594h-1.848l-3.0134-12.594 0.0735 12.594zm19.393-5.6979h2.562l-1.2915-5.956zm-4.3259 5.6979 3.6434-14.199h4.0424l3.6749 14.199h-3.2444l-0.79799-3.5681h-3.4649l-0.77698 3.5681zm12.642-4.988h3.0134v0.91277c-1e-5 0.87282 0.12424 1.4675 0.37274 1.784 0.24849 0.31655 0.67723 0.47483 1.2862 0.47483 0.63698 0 1.1217-0.14137 1.4542-0.42412 0.33249-0.28274 0.49874-0.70071 0.49874-1.2539 0-0.42411-0.1155-0.7883-0.34649-1.0926-0.231-0.30425-0.73149-0.6961-1.5015-1.1755l-1.5435-0.95887c-1.33-0.81134-2.1752-1.4813-2.5357-2.0099-0.36049-0.5286-0.54074-1.1924-0.54074-1.9915 0-1.1924 0.40249-2.1267 1.2075-2.8028 0.80498-0.67611 1.9144-1.0142 3.3284-1.0142 1.498 2e-5 2.6459 0.35959 3.4439 1.0787 0.79797 0.71916 1.197 1.7518 1.197 3.0979-1e-5 0.13524-2e-3 0.23973-5e-3 0.31348-4e-3 0.0738-9e-3 0.13831-0.0158 0.19362h-2.8559v-0.37802c-1e-5 -0.76831-0.14351-1.3184-0.43049-1.6504-0.287-0.3319-0.75949-0.49786-1.4175-0.49787-0.48299 1e-5 -0.86273 0.12448-1.1392 0.3734-0.2765 0.24895-0.41475 0.5947-0.41475 1.0372 0 0.59623 0.61949 1.257 1.8585 1.9823 0.014 6e-3 0.0245 0.0123 0.0315 0.0184l1.659 0.98653c1.183 0.68842 1.9845 1.3384 2.4045 1.95 0.41998 0.61159 0.62998 1.3907 0.62999 2.3372-1e-5 1.2908-0.42001 2.2865-1.26 2.9872-0.83999 0.70072-2.0405 1.0511-3.6014 1.0511-1.624 0-2.8332-0.36879-3.6277-1.1064-0.79448-0.7376-1.1917-1.8624-1.1917-3.3745 0-0.1598 0.014-0.42411 0.042-0.79291zm18.532-0.0738h2.9294c-1e-5 0.0615 3e-3 0.15214 0.0105 0.27199 7e-3 0.11987 0.0105 0.2136 0.0105 0.28121-2e-5 1.6411-0.39376 2.8597-1.1812 3.6557-0.78749 0.79598-1.9932 1.194-3.6172 1.194-0.76999 0-1.4315-0.0876-1.9845-0.26276-0.55299-0.17518-1.029-0.44717-1.428-0.81597-0.54599-0.49172-0.93099-1.1678-1.155-2.0284-0.224-0.86052-0.336-2.3603-0.33599-4.4993-1e-5 -1.4629 0.0665-2.6261 0.19949-3.4897 0.133-0.86359 0.33949-1.5074 0.61949-1.9316 0.43399-0.65153 0.97298-1.1233 1.617-1.4152 0.64398-0.29195 1.4665-0.43793 2.4674-0.43795 1.638 2e-5 2.8297 0.37496 3.5752 1.1248 0.74548 0.7499 1.1217 1.9546 1.1287 3.6142h-2.919v-0.34114c0-0.76831-0.14175-1.3415-0.42524-1.7195-0.2835-0.378-0.71574-0.56701-1.2967-0.56702-0.72099 1e-5 -1.2127 0.26124-1.4752 0.78369-0.2625 0.52247-0.39375 1.9669-0.39375 4.3334 0 2.557 0.12775 4.1121 0.38325 4.6653 0.25549 0.55319 0.74373 0.82979 1.4647 0.82979 0.67198 0 1.141-0.21667 1.407-0.65001 0.26599-0.43333 0.39898-1.2339 0.39899-2.4018zm8.1268-2.0376c-1e-5 2.3357 0.15574 3.8063 0.46724 4.4117 0.31148 0.60544 0.88722 0.90816 1.7272 0.90816 0.82598 0 1.3912-0.29658 1.6957-0.88972 0.30449-0.59315 0.45673-2.0699 0.45674-4.4302-1e-5 -2.3603-0.154-3.8416-0.46199-4.444-0.308-0.60236-0.87849-0.90354-1.7115-0.90355-0.83299 1e-5 -1.4035 0.30119-1.7115 0.90355-0.308 0.60238-0.462 2.0837-0.46199 4.444zm-3.0764 0c0-1.5059 0.0805-2.7091 0.2415-3.6096 0.161-0.90047 0.41299-1.5781 0.75599-2.033 0.46898-0.64538 1.029-1.1064 1.68-1.383 0.65099-0.27658 1.5085-0.41488 2.5724-0.4149 1.064 2e-5 1.9215 0.13832 2.5724 0.4149 0.65098 0.27661 1.2145 0.7376 1.6905 1.383 0.34298 0.46716 0.59323 1.1494 0.75074 2.0468 0.15748 0.89741 0.23623 2.096 0.23624 3.5958-1e-5 1.4936-0.0805 2.6907-0.24149 3.5912-0.16101 0.90047-0.40951 1.5843-0.74549 2.0514-0.476 0.6454-1.0395 1.1064-1.6905 1.383-0.65099 0.27659-1.5085 0.41489-2.5724 0.41489s-1.9215-0.1383-2.5724-0.41489c-0.65099-0.2766-1.211-0.73759-1.68-1.383-0.343-0.45484-0.59499-1.1325-0.75599-2.033-0.161-0.90048-0.2415-2.1037-0.2415-3.6096zm15.267 7.0993v-11.857h-3.4649v-2.3418h9.9433v2.3418h-3.4649v11.857zm10.374 0v-11.857h-3.4649v-2.3418h9.9433v2.3418h-3.4649v11.857zm8.0743 0v-14.199h8.3053v2.3603h-5.3129v3.2823h4.9454v2.2497h-4.9454v3.9092h5.4389v2.3972z" fill="#002673"/>
   <path d="m405.1 281.86c-55.707 0-100.92 45.213-100.92 100.92 0 55.707 45.213 100.92 100.92 100.92 55.707 0 100.92-45.213 100.92-100.92 0-55.707-45.213-100.92-100.92-100.92zm0 31.884c38.107 0 69.036 30.929 69.036 69.036 0 38.107-30.929 69.036-69.036 69.036s-69.036-30.929-69.036-69.036c0-38.107 30.929-69.036 69.036-69.036z" fill="#002673"/>
   <path d="m407.02 287.71c-42.301-0.82521-81.62 26.939-93.505 69.506-1.0819 3.4996-0.17756 7.3106 2.3613 9.951 2.5389 2.6404 6.3116 3.6933 9.8508 2.7494 3.5393-0.94396 6.2865-3.7359 7.1733-7.2899 11.157-39.958 52.397-63.198 92.356-52.041 26.424 7.3777 44.664 25.617 52.041 52.041 0.88676 3.554 3.634 6.3459 7.1733 7.2899 3.5393 0.94397 7.312-0.10899 9.8508-2.7494 2.5389-2.6404 3.4432-6.4514 2.3613-9.951-9.114-32.643-33.373-56.902-66.016-66.016-7.8828-2.2009-15.813-3.3367-23.647-3.4896z" fill="#fff"/>
   <path d="m323.06 395.31c-2.6732 0.0217-5.2679 1.1066-7.172 3.0869-2.5389 2.6404-3.4474 6.449-2.3655 9.9486 9.114 32.643 33.373 56.902 66.016 66.016 7.8828 2.2009 15.813 3.3367 23.647 3.4896 42.301 0.8252 81.62-26.939 93.505-69.506 1.0819-3.4996 0.17337-7.3082-2.3655-9.9486s-6.3086-3.6953-9.8479-2.7514c-3.5393 0.94397-6.2853 3.7354-7.172 7.2895-11.157 39.958-52.397 63.198-92.356 52.041-26.424-7.3777-44.664-25.617-52.041-52.041-0.88676-3.554-3.6328-6.3455-7.172-7.2895-0.88482-0.23599-1.7848-0.34276-2.6759-0.33553z" fill="#fff"/>
  </g>
  <path transform="matrix(-.23565 -.087287 .087287 -.23565 451.9 525.17)" d="m682.36 406.22a316.75 316.75 0 0 1-200.52 357.32 316.75 316.75 0 0 1-385.27-139.47" fill="none"/>
  <g>
   <path transform="matrix(.26843 0 0 .26843 305.4 257.52)" d="m54.673 440.61 5.941 17.871 18.833 0.12764-15.161 11.173 5.6982 17.95-15.311-10.966-15.311 10.966 5.6982-17.95-15.161-11.173 18.833-0.12764z" fill="#fff"/>
   <path transform="matrix(.26843 0 0 .26843 475.43 257.52)" d="m54.673 440.61 5.941 17.871 18.833 0.12764-15.161 11.173 5.6982 17.95-15.311-10.966-15.311 10.966 5.6982-17.95-15.161-11.173 18.833-0.12764z" fill="#fff"/>
   <path d="m323.61 351.06-0.56704 1.7501c-0.67245-0.11132-1.262 0.0106-1.7687 0.36588-0.50666 0.35527-0.88339 0.91377-1.1302 1.6755-0.32959 1.0173-0.23988 1.916 0.26913 2.6963 0.50902 0.78023 1.3927 1.3742 2.651 1.7819 1.268 0.41083 2.3574 0.45214 3.2681 0.12392 0.91077-0.3282 1.5255-0.98407 1.8441-1.9676 0.25306-0.78103 0.23177-1.5004-0.0639-2.1583-0.29563-0.6578-0.81254-1.1383-1.5507-1.4414l0.56234-1.7356c1.1912 0.43392 2.0327 1.2033 2.5244 2.3082 0.49172 1.1049 0.52591 2.3106 0.10259 3.6172-0.49205 1.5187-1.3788 2.5539-2.6603 3.1056-1.2815 0.5517-2.7949 0.54482-4.5402-0.0207-1.7646-0.57171-2.9973-1.4612-3.6982-2.6686-0.70092-1.2073-0.7952-2.6017-0.28285-4.183 0.41552-1.2824 1.0708-2.2115 1.9658-2.7872 0.89507-0.57568 1.9199-0.72976 3.0745-0.46223zm-1.6926-4.7228 0.76759-1.7053 10.211 4.5962-0.7676 1.7053zm2.12-4.7278 4.3371-7.5993 1.4261 0.81392-1.7032 2.9842 8.2991 4.7366-0.91943 1.611-8.2991-4.7366-1.7145 3.004zm5.5693-9.535 1.3924-1.8444 5.7139 0.88461-2.471-5.1802 1.2962-1.717 3.0882 7.151 3.5311 2.6657-1.1268 1.4925-3.4643-2.6154zm16.949-16.932c-0.82416 0.71275-1.222 1.5543-1.1936 2.5247 0.0285 0.97038 0.48359 1.9654 1.3654 2.9851 0.8785 1.0158 1.7966 1.6088 2.7544 1.7788 0.95777 0.17005 1.8488-0.1013 2.6729-0.81405 0.82032-0.70942 1.2154-1.5503 1.1853-2.5226-0.0301-0.97228-0.48442-1.9663-1.3629-2.9822-0.88181-1.0196-1.7998-1.6144-2.754-1.7842-0.95421-0.16977-1.8434 0.10171-2.6676 0.81444zm-1.0592-1.2248c1.2573-1.0873 2.5922-1.5466 4.0046-1.3777 1.4124 0.16888 2.7169 0.94523 3.9137 2.329 1.1967 1.3838 1.7768 2.7867 1.7402 4.2087-0.0366 1.422-0.6836 2.6766-1.9409 3.764-1.2612 1.0907-2.5971 1.5525-4.0078 1.3856s-2.7161-0.94426-3.9162-2.3319c-1.2001-1.3877-1.781-2.7915-1.7427-4.2116 0.0383-1.42 0.688-2.6754 1.9492-3.7661zm7.8164-5.7789 6.4345-4.119 0.88528 1.3829-4.8915 3.1313 1.6189 2.529 4.2896-2.746 0.87299 1.3637-4.2896 2.746 2.66 4.1552-1.543 0.98775zm14.116-8.0856 8.1257-3.2454 0.60903 1.5249-3.191 1.2745 3.5442 8.874-1.7226 0.68798-3.5442-8.874-3.2122 1.2829zm15.92-3.4964-0.42329 5.1175 3.2281-0.81618zm-1.4718-1.5725 2.0341-0.51431 6.732 9.8479-1.9309 0.48822-1.6828-2.562-4.223 1.0678-0.24076 3.0484-1.8867 0.47705zm9.769-2.1797 2.6957-0.23935 3.4726 8.682 1.9264-9.1614 2.6957-0.23935 0.99038 11.154-1.7643 0.15665-0.81825-9.2153-1.9456 9.4607-1.8173 0.16137-3.5442-8.9732 0.81825 9.2153-1.7189 0.15263zm17.527 0.86199-0.24284 3.5266 2.4117 0.16607c0.75333 0.0519 1.2999-0.0476 1.6398-0.29856 0.33985-0.25091 0.53119-0.68731 0.57402-1.3092 0.0421-0.61176-0.0863-1.0714-0.3851-1.379-0.29886-0.30759-0.79209-0.48506-1.4797-0.53242zm-1.7468-1.7433 4.2546 0.29297c0.68761 0.0474 1.1948 0.11403 1.5216 0.20003 0.32681 0.086 0.61662 0.21138 0.86945 0.3761 0.49184 0.30819 0.85155 0.72793 1.0791 1.2592 0.22756 0.5313 0.31663 1.1559 0.2672 1.8739-0.0407 0.59155-0.18592 1.1137-0.43552 1.5664-0.24962 0.45272-0.59234 0.819-1.0282 1.0989-0.29741 0.18781-0.63885 0.31416-1.0243 0.37905-0.38547 0.0649-0.9119 0.0744-1.5793 0.0284l-2.533-0.17443-0.30289 4.3987-1.8581-0.12795zm15.828 3.8125-2.6109 4.4217 3.2611 0.67199zm-0.63955-2.0567 2.055 0.42344 1.7681 11.797-1.9507-0.40197-0.39826-3.0393-4.2663-0.87911-1.545 2.6388-1.906-0.39277zm6.3386 11.071 1.8007 0.5583-0.58982 1.9024c-0.1906 0.61476-0.49963 1.0681-0.92707 1.3601s-0.95354 0.41005-1.5783 0.35432l0.23863-0.76967c0.29876 0.029 0.57159-0.0509 0.81847-0.23968 0.24688-0.18876 0.42135-0.44772 0.52341-0.77688 1e-3 -5e-3 8e-3 -0.0346 0.0197-0.0894s0.025-0.10633 0.04-0.15473l-0.92215-0.28591zm14.069-4.6892 6.848 3.3873-0.72802 1.4718-5.2058-2.575-1.3313 2.6915 4.5653 2.2582-0.71791 1.4514-4.5653-2.2582-2.1874 4.4222-1.6422-0.81229zm10.105 5.3352 1.5539 1.0267-5.2384 7.9281 4.611 3.0466-0.93453 1.4144-6.1649-4.0734zm11.912 10.566c-0.81248-0.72605-1.6981-1.0128-2.6568-0.86024-0.95873 0.15256-1.8872 0.73144-2.7855 1.7366-0.8949 1.0014-1.3653 1.988-1.4112 2.9596-0.0459 0.97167 0.33735 1.8205 1.1498 2.5466 0.80868 0.72266 1.6932 1.0068 2.6537 0.85233 0.96041-0.15445 1.8881-0.73238 2.783-1.7338 0.89826-1.0052 1.3704-1.9918 1.4166-2.9599 0.0461-0.96809-0.33706-1.8152-1.1495-2.5412zm1.0789-1.2074c1.2395 1.1076 1.866 2.3727 1.8795 3.795 0.0135 1.4224-0.58932 2.8156-1.8084 4.1798-1.2191 1.3642-2.5361 2.1192-3.951 2.2651-1.4149 0.14588-2.7422-0.33501-3.9816-1.4426-1.2433-1.111-1.8725-2.3768-1.8877-3.7973-0.0152-1.4205 0.58845-2.8147 1.8109-4.1827s2.5403-2.124 3.9536-2.2679c1.4132-0.14399 2.7415 0.33952 3.9848 1.4505zm6.7964 9.5472-2.6727 2.1716 1.6826 2.0709c0.49216 0.60573 0.9515 0.95406 1.378 1.045 0.42651 0.091 0.87773-0.0569 1.3537-0.44362 0.46411-0.37712 0.69574-0.77918 0.69489-1.2062-8.8e-4 -0.42701-0.2426-0.93747-0.72517-1.5314zm0.066-2.4142 3.0441 3.7464c0.0927 0.11407 0.19101 0.24313 0.29501 0.38718 0.0312 0.0465 0.05 0.0736 0.0564 0.0815 0.62318 0.76699 0.89699 1.542 0.82142 2.3249-0.0756 0.78298-0.48901 1.4797-1.2402 2.0901-0.49167 0.39948-1.0004 0.63327-1.5262 0.70138-0.52585 0.0681-1.0268-0.0342-1.503-0.30678 0.17355 0.44667 0.20054 0.84756 0.0809 1.2027-0.1196 0.3551-0.4455 0.77173-0.97772 1.2499l-1.1826 1.0882c-4e-3 3e-3 -8e-3 6e-3 -0.0118 0.01-0.52362 0.46462-0.75654 0.85304-0.69876 1.1652l-0.25369 0.20614-1.3135-1.6166c0.0629-0.15561 0.15849-0.31326 0.28669-0.47292 0.1282-0.15968 0.35503-0.3848 0.68052-0.67537l1-0.89091c0.53295-0.48528 0.80957-0.9043 0.82985-1.2571 0.0203-0.35277-0.16614-0.77105-0.55922-1.2548l-1.7785-2.1889-3.5753 2.905-1.1649-1.4337zm7.7269 10.169 1.0159 1.5701-9.4012 6.0831-1.0159-1.5701zm2.8201 7.744-7.1153 3.5668 1.0254 2.0456c0.49737 0.99219 1.1603 1.574 1.9889 1.7454 0.82856 0.17139 1.8658-0.0552 3.1117-0.67975 1.1326-0.56778 1.8753-1.2349 2.2281-2.0013 0.35277-0.76643 0.30091-1.605-0.15557-2.5156zm0.59932-2.3498 1.9384 3.8668c0.73583 1.4679 0.8726 2.7784 0.41031 3.9313-0.46232 1.153-1.5203 2.1439-3.174 2.9729-1.6174 0.81078-3.0632 1.031-4.3373 0.6606-1.2741-0.37039-2.2905-1.3122-3.049-2.8254l-1.7987-3.5882zm5.2031 16.662-5.1348-0.0481 1.0499 3.1598zm1.4607-1.5828 0.66161 1.9911-9.3295 7.4338-0.62805-1.8901 2.4322-1.8656-1.3736-4.1337-3.0578-0.0173-0.61366-1.8468z" fill="#002673"/>
  </g>
  <path d="m315.98 398.35c6.6966 38.339 35.151 66.815 73.485 73.541 49.187 8.6305 96.112-24.285 104.74-73.473" fill="none" stroke="#e6e6e6" stroke-linecap="round" stroke-linejoin="round" stroke-width=".26616"/>
  <path d="m328.14 406.89c-0.31721-1.0424-0.92507-1.7474-1.8236-2.115-0.89852-0.36757-1.9926-0.35513-3.2823 0.0373-1.2848 0.39098-2.1992 0.98971-2.7431 1.7962-0.5439 0.80649-0.65725 1.731-0.34004 2.7734 0.31573 1.0376 0.92406 1.7398 1.825 2.1066s1.9938 0.35476 3.2787-0.0362c1.2897-0.39246 2.2056-0.99035 2.7478-1.7937 0.5422-0.80334 0.6547-1.7262 0.3375-2.7686zm1.5491-0.47138c0.48391 1.5903 0.36227 2.9967-0.36492 4.2192-0.72722 1.2225-1.966 2.1-3.7162 2.6327-1.7503 0.5326-3.2679 0.49379-4.5528-0.11641-1.2849-0.61023-2.1693-1.7105-2.6532-3.3008-0.4854-1.5952-0.36571-3.0036 0.35908-4.2254 0.72478-1.2218 1.9647-2.0997 3.7199-2.6338 1.7551-0.53408 3.2739-0.49564 4.5564 0.11531 1.2825 0.61095 2.1664 1.714 2.6518 3.3091zm1.5256 9.6084-3.1146 1.4692 1.1384 2.4133c0.33295 0.70587 0.69562 1.154 1.088 1.3443 0.39237 0.19034 0.86586 0.15471 1.4205-0.1069 0.54086-0.25513 0.86195-0.59011 0.96327-1.0049 0.1013-0.41482-0.0113-0.96829-0.33774-1.6604zm0.64162-2.3283 2.0594 4.3659c0.0627 0.13292 0.1273 0.28176 0.19382 0.44651 0.0192 0.0526 0.0309 0.0834 0.0353 0.0926 0.4216 0.8938 0.50205 1.7118 0.24136 2.454-0.26071 0.74215-0.8288 1.3197-1.7043 1.7327-0.57296 0.27026-1.1229 0.37555-1.6497 0.31589-0.52686-0.0597-0.98886-0.27883-1.386-0.65745 0.0616 0.47522-8e-3 0.87093-0.20911 1.1871-0.20109 0.31618-0.6172 0.64274-1.2484 0.97969l-1.4086 0.77368c-5e-3 2e-3 -9e-3 4e-3 -0.0138 6e-3 -0.61957 0.32586-0.93865 0.64728-0.95724 0.96425l-0.29564 0.13945-0.88862-1.8839c0.0983-0.13605 0.22883-0.26625 0.39151-0.39061 0.16267-0.12437 0.43678-0.28869 0.82232-0.49295l1.1841-0.6258c0.63357-0.34369 1.0024-0.68437 1.1065-1.022 0.10407-0.33768 0.0231-0.78841-0.24279-1.3522l-0.15242-0.32315-1.0508-2.2276-4.1665 1.9654-0.78808-1.6707zm7.3384 19.8-1.0277-1.535c0.47273-0.48727 0.72501-1.0419 0.75684-1.664 0.0318-0.62204-0.16091-1.2447-0.57817-1.868-0.6231-0.9307-1.4151-1.4464-2.376-1.5472-0.96093-0.10074-2.0015 0.22387-3.1217 0.97383-1.0992 0.73586-1.7912 1.5742-2.0761 2.5152-0.28492 0.9409-0.12711 1.8598 0.47343 2.7569 0.5103 0.76225 1.1599 1.2224 1.9487 1.3804 0.78884 0.15799 1.589-0.0133 2.4005-0.51386l-1.7043-2.5457 1.2823-0.85851 2.6601 3.9734-5.022 3.3621-0.68511-1.0234 1.0016-1.0456c-0.69865-0.0324-1.3329-0.21458-1.9028-0.54659-0.56992-0.33203-1.0621-0.80757-1.4766-1.4266-0.85991-1.2845-1.1074-2.6267-0.74261-4.0267 0.36484-1.4 1.2779-2.5891 2.7392-3.5675 1.4908-0.99806 2.9497-1.3924 4.3768-1.1829 1.4271 0.20947 2.5903 0.98591 3.4897 2.3293 0.74995 1.1202 1.0887 2.2138 1.0163 3.2808-0.0724 1.067-0.54994 1.9935-1.4325 2.7796zm5.7851 4.3083-4.7113 2.0426 2.2434 2.4605zm0.69144-2.0398 1.4136 1.5504-5.5036 10.584-1.3419-1.4718 1.4642-2.6929-2.9348-3.2188-2.801 1.2268-1.3112-1.4381zm5.312 5.5907 1.5306 1.2506-1.2621 9.7868 5.3004-6.4873 1.3952 1.1399-7.0849 8.6713-1.5188-1.2409 1.2386-9.8061-5.3005 6.4873-1.3834-1.1303zm9.6293 7.3822 1.5713 1.014-6.0714 9.4088-1.5713-1.014zm3.9222 2.5439 7.4805 3.8382-0.74959 1.4609-9.3447 4.0913 5.6949 2.922-0.75306 1.4677-7.7172-3.9596 0.71141-1.3865 9.4644-4.158-5.5258-2.8353zm9.3143 4.5884 7.5519 2.7225-0.55688 1.5447-5.8284-2.1012-0.99259 2.7533 5.3778 1.9388-0.53109 1.4732-5.3779-1.9388-1.1473 3.1824 6.0215 2.1708-0.56977 1.5805-7.745-2.7921zm11.411 5.358-1.6816 7.7796 2.2365 0.48343c1.0848 0.23448 1.9537 0.0827 2.6067-0.45542 0.65295-0.53809 1.1266-1.4883 1.4211-2.8505 0.26766-1.2384 0.21352-2.2352-0.16245-2.9906-0.37599-0.7553-1.0618-1.2406-2.0575-1.4558zm-1.455-1.94 4.2279 0.91386c1.6049 0.34692 2.7117 1.0619 3.3201 2.1448 0.60847 1.083 0.7173 2.5285 0.3265 4.3365-0.38226 1.7684-1.117 3.0329-2.2043 3.7934-1.0873 0.76049-2.4582 0.96193-4.1127 0.60431l-3.9232-0.848zm21.08 2.7885 1.8698 0.0346-0.14826 8.0187c-0.0222 1.2009-0.30956 2.075-0.86204 2.6224-0.55248 0.54736-1.4064 0.81035-2.5617 0.789-1.1806-0.0218-2.0393-0.32536-2.5759-0.9106-0.53661-0.58523-0.7933-1.5062-0.77007-2.7628l0.0101-0.54725 1.7938 0.0332-0.0132 0.71445c-0.0114 0.61819 0.10672 1.0816 0.35445 1.3904 0.24774 0.30871 0.63002 0.46784 1.1469 0.4774 0.58271 0.0108 0.99335-0.1299 1.2319-0.42201 0.23856-0.29212 0.36637-0.89928 0.38343-1.8215zm4.5902 7.4e-4 1.8586-0.20662 0.76938 6.9207c0.10695 0.96206 0.39241 1.6493 0.8564 2.0618 0.46398 0.41244 1.1292 0.57051 1.9955 0.47419 0.87139-0.0969 1.4892-0.39884 1.8536-0.90592 0.3643-0.50707 0.49326-1.2391 0.38688-2.1961l-0.76938-6.9207 1.8586-0.20662 0.78114 7.0265c0.15678 1.4103-0.10507 2.5409-0.78556 3.3916-0.68051 0.85073-1.7259 1.3545-3.1363 1.5113-1.4456 0.1607-2.5812-0.0891-3.4067-0.74947-0.82554-0.66035-1.3192-1.7184-1.481-3.174zm11.562-1.5582 1.808-0.44737 2.2825 9.2242 5.3648-1.3275 0.40719 1.6456-7.1728 1.7749zm7.6631-1.8861 2.1587-0.82505 4.3747 3.7806 0.65277-5.7021 2.0096-0.76806-1.1749 7.7002 1.5795 4.1328-1.7468 0.66764-1.5497-4.0546zm18.366-8.2422 1.1492-0.71443 5.7476 9.245-1.4784 0.91913-4.0097-6.4495-2.1692 1.3486-0.66627-1.0717c0.82206-0.51106 1.3413-1.0174 1.5576-1.5189 0.21634-0.5015 0.17274-1.0876-0.1308-1.7582zm5.6831-3.4295 4.6602-3.7152 0.95249 1.1948-3.6854 2.938 1.3259 2.2485c0.0734-0.33071 0.20866-0.64272 0.40584-0.93603 0.19719-0.2933 0.45825-0.56948 0.7832-0.82854 0.84407-0.6729 1.735-0.95375 2.6727-0.84254 0.93772 0.11122 1.7509 0.59877 2.4396 1.4626 0.68554 0.85993 0.95721 1.7922 0.81502 2.7967-0.1422 1.0046-0.671 1.8717-1.5864 2.6015-0.82823 0.66027-1.6822 0.97324-2.5618 0.9389-0.87967-0.0343-1.649-0.40785-2.3078-1.1205l1.3672-1.0899c0.35871 0.36865 0.76698 0.56167 1.2248 0.57907 0.45784 0.0174 0.89877-0.14292 1.3228-0.48095 0.51516-0.41069 0.79932-0.89163 0.8525-1.4428 0.0532-0.55117-0.13506-1.0962-0.56471-1.6352-0.42334-0.53101-0.90781-0.8318-1.4534-0.90239-0.54561-0.0706-1.078 0.10107-1.5971 0.51491-0.29324 0.23379-0.50997 0.50055-0.65018 0.80028-0.1402 0.29974-0.20389 0.63244-0.19106 0.99813l-1.247 0.93578zm13.122 0.1912 1.3586-1.3072 1.3809 1.4352c0.44626 0.46381 0.69399 0.95336 0.74319 1.4686 0.0492 0.51528-0.10146 1.033-0.45199 1.5531l-0.5587-0.58067c0.16965-0.24763 0.23145-0.52511 0.18541-0.83245-0.046-0.30734-0.18854-0.58518-0.42748-0.83352-4e-3 -4e-3 -0.0264-0.0238-0.0687-0.0605s-0.081-0.0732-0.11617-0.10976l-0.69571 0.66938zm3.0414-16.791 0.80982-1.0841 8.7212 6.515-1.0418 1.3947-6.0841-4.545-1.5286 2.0463-1.011-0.75523c0.57932-0.77548 0.87833-1.4362 0.89705-1.982 0.0187-0.54585-0.23542-1.0757-0.76246-1.5896zm10.256-4.8744c-0.30898 0.53555-0.40617 1.0412-0.29154 1.5169 0.11463 0.47571 0.42654 0.86046 0.93575 1.1542 0.50043 0.28873 0.98697 0.3632 1.4596 0.22341 0.47266-0.13978 0.85969-0.47085 1.1611-0.99323 0.31658-0.54871 0.41773-1.0638 0.30344-1.5451-0.11429-0.48135-0.43482-0.87399-0.96158-1.1779-0.49165-0.28366-0.97178-0.3515-1.4404-0.20354-0.46862 0.14798-0.85742 0.48974-1.1664 1.0253zm0.36096-2.2228c0.45537-0.36332 0.96079-0.55734 1.5163-0.58206 0.55547-0.0247 1.1076 0.12122 1.6563 0.4378 0.91306 0.52681 1.464 1.2426 1.653 2.1473 0.1889 0.90473-0.0155 1.8751-0.61322 2.911-0.57746 1.0009-1.3006 1.6382-2.1696 1.9122-0.86893 0.27391-1.7599 0.14747-2.673-0.37933-0.54871-0.31659-0.94779-0.71506-1.1972-1.1954s-0.33802-1.0215-0.26575-1.6234c-0.42801 0.2855-0.8531 0.43664-1.2753 0.45342-0.42217 0.0168-0.85494-0.10272-1.2983-0.35853-0.77697-0.44828-1.2351-1.0739-1.3745-1.8769-0.13934-0.803 0.0607-1.672 0.60017-2.607 0.51921-0.89989 1.1639-1.4875 1.9342-1.7627 0.77025-0.27526 1.5329-0.19508 2.2879 0.24053 0.44336 0.25582 0.76562 0.57193 0.96678 0.94835 0.20116 0.37644 0.28527 0.82137 0.25233 1.3348zm-4.1932 0.0118c-0.26339 0.45654-0.35665 0.8869-0.27976 1.2911 0.0769 0.4042 0.31508 0.72154 0.71454 0.95201 0.42142 0.24315 0.82726 0.30031 1.2175 0.17149 0.39027-0.1288 0.71964-0.42586 0.9881-0.89118 0.26847-0.4653 0.3616-0.90305 0.27939-1.3133-0.0822-0.41018-0.32744-0.73305-0.73569-0.9686-0.40824-0.23553-0.80657-0.28544-1.195-0.14971-0.38841 0.13574-0.71811 0.43846-0.98912 0.90815zm8.3282-6.7704c-0.24347 0.56833-0.28017 1.0819-0.11008 1.5407s0.52532 0.80396 1.0657 1.0355c0.53107 0.22751 1.023 0.24392 1.4758 0.0492 0.45282-0.1947 0.79797-0.56924 1.0355-1.1236 0.24946-0.5823 0.28898-1.1057 0.11856-1.5702-0.17042-0.46445-0.53514-0.81643-1.0942-1.0559-0.52174-0.22351-1.0065-0.23409-1.4544-0.0317-0.44782 0.20237-0.79347 0.58772-1.037 1.156zm0.0955-2.2499c0.4092-0.41463 0.88812-0.66707 1.4368-0.75732 0.54866-0.0902 1.1141-0.0106 1.6964 0.23882 0.96896 0.41512 1.6007 1.0607 1.8953 1.9367 0.29458 0.87603 0.20639 1.8638-0.2646 2.9631-0.45502 1.0621-1.0978 1.7806-1.9282 2.1554-0.83044 0.37477-1.7301 0.3546-2.6991-0.0605-0.5823-0.24946-1.0257-0.59793-1.3302-1.0454-0.30451-0.44747-0.45647-0.97433-0.45589-1.5806-0.39124 0.33412-0.79548 0.53448-1.2127 0.60108s-0.8611-8.7e-4 -1.3316-0.20244c-0.82454-0.35324-1.3535-0.9203-1.5868-1.7012-0.23334-0.78088-0.13747-1.6674 0.28761-2.6597 0.40912-0.95498 0.97982-1.6147 1.7121-1.9791 0.73229-0.36443 1.499-0.37502 2.3003-0.0318 0.47051 0.20158 0.8279 0.47736 1.0722 0.82735 0.24427 0.35 0.38042 0.78186 0.40844 1.2956zm-4.1624 0.50766c-0.20755 0.48449-0.24924 0.92286-0.12509 1.3151 0.12417 0.39228 0.39821 0.67922 0.82213 0.86082 0.44721 0.19159 0.85697 0.20035 1.2293 0.0263 0.37231-0.17406 0.66422-0.508 0.87577-1.0018 0.21154-0.49379 0.25224-0.93948 0.12208-1.3371-0.13014-0.39758-0.41184-0.68918-0.84508-0.87479-0.43323-0.18559-0.83467-0.18803-1.2043-7e-3 -0.36963 0.18074-0.66121 0.52033-0.87476 1.0188zm1.0592-5.6929 2.1346-7.2406 1.3927 0.41058c0.94482 1.5624 2.0391 2.8823 3.2828 3.9596 1.2437 1.0773 2.6742 1.9468 4.2914 2.6085l-0.53311 1.8083c-1.5146-0.61557-2.8832-1.4616-4.1061-2.538-1.2228-1.0764-2.3302-2.4054-3.3222-3.9871l-1.6015 5.4323z" fill="#002673"/>
 </g>
 <path class="st0" d="m5 17h62v38h-62z" display="none"/>
 <path d="m5.0639 18.002v36l56.032-3.0683 7.8065-7.8065-3.5637-3.5637 3.5637-3.5597-3.5637-3.5637 3.5637-3.5637-7.8065-7.8065z" fill="none" stroke="#000" stroke-width="2"/>
</svg>
