<svg data-name="レイヤー_1" version="1.1" viewBox="0 0 72 72" xmlns="http://www.w3.org/2000/svg">
 <!-- Generator: Adobe Illustrator 29.4.0, SVG Export Plug-In . SVG Version: 2.1.0 Build 152)  -->
 <defs>
  <style>.st0 {
        fill: none;
        stroke: #000;
        stroke-linecap: round;
        stroke-linejoin: round;
        stroke-width: 2px;
      }</style>
  <clipPath id="clipPath69">
   <path class="st0" d="m0 0h900v600h-900z"/>
  </clipPath>
 </defs>
 <path class="st0" d="M5,17h62v38H5V17Z"/>
 <g transform="matrix(.068889 0 0 .063333 5 17)" clip-path="url(#clipPath69)">
  <rect transform="scale(1,-1)" y="-200" width="900" height="200" fill="#fcdd09"/>
  <rect transform="scale(1,-1)" y="-400" width="900" height="200" fill="#fff"/>
  <rect transform="scale(1,-1)" y="-600" width="900" height="200" fill="#fcdd09"/>
  <path d="m0 0 380 300-380 300z" fill="#078930" stroke-width="1.0014"/>
  <g fill="#fff" fill-rule="evenodd">
   <path d="m177.07 259.44-12.347-8.9052-12.092 9.2478 4.6538-14.495-12.532-8.6431 15.223-0.053 4.3474-14.59 4.7547 14.462 15.219-0.3737-12.285 8.9909z"/>
   <path d="m117.66 268.57-15.03-2.4223-6.6612 13.689-2.3406-15.042-15.077-2.1051 13.583-6.8744-2.657-14.99 10.735 10.794 13.435-7.159-6.9482 13.545z"/>
   <path d="m210.81 268.57 15.03-2.4224 6.6613 13.689 2.3405-15.042 15.077-2.1052-13.583-6.8744 2.657-14.99-10.735 10.794-13.435-7.159 6.9483 13.545z"/>
   <path d="m69.765 303.77-14.468 4.7355 0.35356 15.219-8.9746-12.297-14.365 5.0392 8.9216-12.335-9.2317-12.105 14.488 4.6732 8.6598-12.52 0.0327 15.223z"/>
   <path d="m259.89 303.77 14.468 4.7355-0.3536 15.219 8.9746-12.297 14.365 5.0392-8.9215-12.335 9.2317-12.105-14.488 4.6732-8.6598-12.52-0.033 15.223z"/>
  </g>
 </g>
 <path class="st0" d="M5,17h62v38H5V17Z"/>
 <path class="st0" d="M5,17h62v38H5V17Z"/>
 <path class="st0" d="M5,17h62v38H5V17Z"/>
 <path class="st0" d="M5,17h62v38H5V17Z"/>
</svg>
