<svg data-name="レイヤー_1" version="1.1" viewBox="0 0 72 72" xmlns="http://www.w3.org/2000/svg">
 <!-- Generator: Adobe Illustrator 29.4.0, SVG Export Plug-In . SVG Version: 2.1.0 Build 152)  -->
 <defs>
  <style>.st0 {
        fill: none;
        stroke: #000;
        stroke-linecap: round;
        stroke-linejoin: round;
        stroke-width: 2px;
      }</style>
 </defs>
 <path class="st0" d="M5,17h62v38H5V17Z"/>
 <g transform="matrix(.019856 0 0 .018255 37.607 28.038)">
  <rect class="st0" x="-1642.2" y="-604.7" width="1040.6" height="2081.7" fill="#ed1c24"/>
  <rect class="st1" x="-601.6" y="-604.7" width="1040.6" height="2081.7" fill="#939598"/>
  <rect class="st2" x="439.7" y="-604.7" width="1040.6" height="2081.7" fill="#fff"/>
  <polygon class="st1" points="-1104.1 436.4 -938.6 682.8 -773.6 436.4 -938.6 189.4" fill="#939598"/>
  <g fill="#fff">
   <polygon class="st2" points="84.7 -56.8 -80.7 -303.6 -246.7 -56.8 -80.7 189.4"/>
   <polygon class="st2" points="-246.7 929.2 -80.7 1175.4 84.7 929.2 -80.7 683"/>
  </g>
  <polygon class="st1" points="-1470.6 929.2 -1305.2 1175.4 -1139.2 929.2 -1305.2 683" fill="#939598"/>
  <g fill="#ed1c24">
   <polygon class="st0" points="611.7 436.5 776.6 682.8 942.6 436.5 776.6 189.6"/>
   <polygon class="st0" points="1143.1 682.8 978.1 929.2 1143.1 1175.6 1308.7 929.2"/>
  </g>
 </g>
 <g transform="matrix(.019856 0 0 .018315 37.607 27.935)">
  <rect class="st0" x="-1642.2" y="-604.7" width="1040.6" height="2081.7" fill="#ed1c24"/>
  <rect class="st1" x="-601.6" y="-604.7" width="1040.6" height="2081.7" fill="#939598"/>
  <rect class="st2" x="439.7" y="-604.7" width="1040.6" height="2081.7" fill="#fff"/>
  <polygon class="st1" points="-938.6 189.4 -1104.1 436.4 -938.6 682.8 -773.6 436.4" fill="#939598"/>
  <g fill="#fff">
   <polygon class="st2" points="-80.7 189.4 84.7 -56.8 -80.7 -303.6 -246.7 -56.8"/>
   <polygon class="st2" points="-80.7 683 -246.7 929.2 -80.7 1175.4 84.7 929.2"/>
  </g>
  <polygon class="st1" points="-1305.2 683 -1470.6 929.2 -1305.2 1175.4 -1139.2 929.2" fill="#939598"/>
  <g fill="#ed1c24">
   <polygon class="st0" points="776.6 189.6 611.7 436.5 776.6 682.8 942.6 436.5"/>
   <polygon class="st0" points="1308.7 929.2 1143.1 682.8 978.1 929.2 1143.1 1175.6"/>
  </g>
 </g>
 <path class="st0" d="M5,17h62v38H5V17Z"/>
 <path class="st0" d="M5,17h62v38H5V17Z"/>
 <path class="st0" d="M5,17h62v38H5V17Z"/>
 <path class="st0" d="M5,17h62v38H5V17Z"/>
</svg>
