<svg data-name="レイヤー_1" version="1.1" viewBox="0 0 72 72" xmlns="http://www.w3.org/2000/svg">
 <!-- Generator: Adobe Illustrator 29.4.0, SVG Export Plug-In . SVG Version: 2.1.0 Build 152)  -->
 <defs>
  <style>.st0 {
        fill: none;
        stroke: #000;
        stroke-linecap: round;
        stroke-linejoin: round;
        stroke-width: 2px;
      }</style>
 </defs>
 <path class="st0" d="M5,17h62v38H5V17Z"/>
 <g transform="matrix(.068781 0 0 .063352 33.269 32.458)">
  <g id="XMLID_7_" transform="matrix(1.3476,0,0,1.3452,-411,-244)">
   <path id="XMLID_10_" d="M 668.9,445.9 H 0 L 668.9,0 Z" fill="#077625"/>
   <path id="XMLID_9_" d="m0 445.9v-445.9h668.9z" fill="#75bee3"/>
  </g>
  <g fill="#fff200" stroke-width="1.32">
   <path id="XMLID_11_" class="st2" d="m-36.24 11.6-30.84-22.32-30.72 22.32 11.76-36-30.72-22.44h38.04l11.64-36 11.76 36h38.04l-30.72 22.32z"/>
   <path id="XMLID_13_" class="st2" d="m177.12 11.6-30.72-22.32-30.72 22.32 11.76-36-30.72-22.44h38.04l11.64-36 11.76 36h38.04l-30.72 22.32z"/>
   <path id="XMLID_17_" class="st2" d="m-193.92 197.6-30.72-22.32-30.96 22.32 12-36-30.96-22.32h38.04l11.88-36.24 11.64 36.24h38.04l-30.72 22.32z"/>
   <path class="st2" d="m272.16 197.6 30.72-22.32 30.84 22.32-11.88-36 30.84-22.32h-37.92l-12-36.24-11.64 36.24h-38.04l30.72 22.32z"/>
  </g>
 </g>
 <path class="st0" d="M5,17h62v38H5V17Z"/>
 <path class="st0" d="M5,17h62v38H5V17Z"/>
 <path class="st0" d="M5,17h62v38H5V17Z"/>
 <path class="st0" d="M5,17h62v38H5V17Z"/>
</svg>
