<svg data-name="レイヤー_1" version="1.1" viewBox="0 0 72 72" xmlns="http://www.w3.org/2000/svg">
 <!-- Generator: Adobe Illustrator 29.4.0, SVG Export Plug-In . SVG Version: 2.1.0 Build 152)  -->
 <defs>
  <style>.st0 {
        fill: none;
        stroke: #000;
        stroke-linecap: round;
        stroke-linejoin: round;
        stroke-width: 2px;
      }</style>
  <clipPath id="clipPath63">
   <path class="st0" d="m0 0h750.99v500h-750.99z"/>
  </clipPath>
 </defs>
 <g transform="matrix(.082558 0 0 .076 5 17)" clip-path="url(#clipPath63)">
  <path d="m750.99 0v254h-750.99v-254z" fill="#da121a"/>
  <path d="m750.99 256v244h-750.99v-244z" fill="#078930"/>
  <path d="m750.99 107.33v285.33h-750.99v-285.33z" fill="#ff0"/>
  <g transform="matrix(2.6333 0 0 2.6239 294.84 74.256)" fill-rule="evenodd" stroke="#000">
   <g fill="#d38d5f" stroke-width=".28222">
    <path d="m49.397 87.283 2.0106-0.63077-2.2077-8.5154-1.8529 1.6558z" fill-rule="evenodd"/>
    <g transform="matrix(-1 0 0 1 60.358 0)">
     <path class="fil7 str6" d="m11.578 76.751c-0.8284-0.2079-1.2595-0.2973-2.4219 0.1295-0.1916 0.6077-0.5811 1.1419-0.1256 1.9897-1.352-0.6777-1.8071 0.8687-1.1041 2.0059-0.7518-0.5277-1.4402 1.5641-0.1533 3.1141-0.4073-0.3672-0.9009 1.1505-0.2982 1.8282 0.4511 0.3816 0.716 0.6912 1.1514 0.9993 2.5579 1.1127 1.6311-1.2791 0.3056-1.917 2.4145 2.1099 3.2384-0.2107 1.1313-1.7381 2.4528 1.6783 2.8421-1.4927 1.1491-2.225 1.9194 1.1606 1.7516-1.3489 0.3793-2.1955l-0.6298-0.8324z" stroke-linejoin="bevel"/>
     <path class="fil7 str5" d="m10.266 74.987c-1.0131-0.6221-2.3098 1.2136-0.494 2.4149 0.5451 0.5062 1.1141 0.8658 1.878 0.9206 0.5948 1.1002 0.34024 0.80719 1.3454 1.6224-0.68513 1.5169-1.4029 4.5399-2.2178 7.2599 0.5958 0.4388 2.4411 0.90491 2.9409 1.0774 3.8447 4.0176 6.3527 6.5527 8.4725 8.6842l6.1439-7.476c-3.8498-2.5051-8.1931-5.2542-10.771-7.108-1.7311-3.8812-1.481-4.4189-2.5122-5.1261-1.2463-0.6221-1.6252-1.2968-2.3372-1.8841-0.5006-0.1356-1.6209 0.1572-2.4484-0.3852z"/>
     <path class="fil7 str5" d="m9.0623 78.904c0.4866 1.1739 1.3265 1.5494 2.3359 2.1291"/>
     <path class="fil7 str5" d="m7.887 80.707c0.4736 1.1843 1.6177 2.2269 2.6022 2.7207"/>
     <path class="fil7 str5" d="m7.5361 83.621c0.5592 0.9039 1.0272 0.9891 1.9181 1.6464"/>
     <path class="fil7 str7" d="m25.821 87.903c7.8006 5.1926 12.463 5.7988 15.848 9.2205 28.156-9.738 31.439 2.549 39.071-2.6739 2.3494 5.4263 2.2107 10.853 1.3112 16.279-19.418 4.5708-28.86-0.043-40.704 2.0826-3.0688 0.2068-7.3318-2.6844-10.386-5.9106-5.9147-6.3873-3.3237-4.5744-10.914-12.053" stroke-linejoin="bevel"/>
     <polyline class="fil2 str5" transform="matrix(-1 0 0 1 93.654 0)" points="51.985 97.123 51.212 97.94 50.471 98.827 49.783 99.754 49.106 100.76"/>
     <line class="fil2 str5" x1="18.78" x2="15.761" y1="87.311" y2="85.376"/>
     <g fill-rule="evenodd">
      <path d="m53.634 107.49c6.3186 0.84486 12.637 0.89928 18.956-0.33452"/>
      <path d="m78.109 95.673c-3.0035 2.6539-0.96465 4.9378 2.3974 4.7947"/>
      <path d="m35.57 96.565c3.6913 2.0671 5.5047 4.4472 7.4709 6.8018"/>
     </g>
    </g>
   </g>
   <g transform="rotate(-16.452 121.66 261.48)">
    <g transform="matrix(.2149 .13866 -.083148 .35838 72.076 -116.11)" stroke-width="1.1598">
     <path d="m337.61 406.86c-1.8139 18.74-5.8342 52.032-13.523 69.48l6.5183 6.2917c14.581-28.935 22.141-59.375 20.587-80.995-0.38427-23.983-8.7692-47.79-25.659-65.509-13.536-16.931-40.916-31.274-71.264-42.623l-0.50265 9.0772c18.103 7.8584 44.711 27.528 58.938 40.649 17.831 15.837 23.676 40.656 24.906 63.63z" fill="#884800" fill-rule="evenodd" stroke="#000" stroke-width="1.1598"/>
    </g>
    <path d="m101.47 27.655 0.66903 72.032" fill="none" stroke-width=".42333"/>
   </g>
   <g transform="rotate(38.41 50.885 23.405)" stroke-width=".25">
    <g fill="#e6e6e6">
     <path class="fil3 str3" d="m42.423 50.285s0.3181 2.8687 0.429 6.1926c0.1111 3.3239 0.0151 7.1029 0.0151 7.1029 0.1777-2.0173 1.1324-2.5973 2.0251-3.899l0.5869-0.2015 0.0205-7e-3 0.587-0.2015c1.5009 0.9042 2.6555 0.4725 4.0669 2.0234 0 0-2.2475-2.8469-4.1801-5.5994-1.9326-2.7524-3.5504-5.4105-3.5504-5.4105z"/>
     <path class="fil3 str3" d="m42.793 51.326 2.7044 8.1467"/>
     <path class="fil4 str4" d="m44.821 59.705 1.3531-0.4644c0.0985-0.0337 0.2054 0.0188 0.2388 0.1173v-1e-4c0.0335 0.0985-0.0191 0.2058-0.1175 0.2396l-1.3532 0.4643c-0.0983 0.0338-0.2052-0.0186-0.2387-0.1171l-1e-4 -1e-4c-0.0334-0.0984 0.0193-0.2057 0.1177-0.2394z" fill-opacity=".90196" stroke-opacity=".90196"/>
     <polygon class="fil3 str3" points="46.213 59.644 45.05 60.024 45.417 61.81 47.001 61.267"/>
    </g>
    <rect class="fil5 str3" transform="matrix(-.15077 -.45652 .45592 -.15257 65.236 120.61)" width="128.96" height="2.0092" fill="#828282"/>
    <g fill="#e3e4e5">
     <polygon class="fil6 str3" points="61.353 109.5 64.308 118.45 61.919 121.67 59.263 112.85"/>
     <polygon class="fil6 str3" points="62.662 109.02 65.615 117.97 69.452 119.14 66.332 110.47"/>
     <path class="fil6 str3" d="m61.97 109.2 3.6073 10.927"/>
     <path class="fil6 str3" d="m61.247 111.4-1.2865 1.7901"/>
     <path class="fil6 str3" d="m61.613 112.61-1.2866 1.7901"/>
     <path class="fil6 str3" d="m62.008 113.96-1.2865 1.7901"/>
     <path class="fil6 str3" d="m62.44 115.27-1.2865 1.7901"/>
     <path class="fil6 str3" d="m62.821 116.43-1.2865 1.7901"/>
     <path class="fil6 str3" d="m63.227 117.66-1.2865 1.7901"/>
     <path class="fil6 str3" d="m63.893 110.5 2.0994 0.6724"/>
     <path class="fil6 str3" d="m64.32 111.69 2.0994 0.6723"/>
     <path class="fil6 str3" d="m64.808 113.01 2.0994 0.6723"/>
     <path class="fil6 str3" d="m65.24 114.32 2.0994 0.6723"/>
     <path class="fil6 str3" d="m65.621 115.48 2.0995 0.6724"/>
     <path class="fil6 str3" d="m66.028 116.71 2.0994 0.6723"/>
    </g>
   </g>
   <g fill="#d38d5f" stroke-width=".28222">
    <path class="fil7 str6" d="m11.578 76.751c-0.8284-0.2079-1.2595-0.2973-2.4219 0.1295-0.1916 0.6077-0.5811 1.1419-0.1256 1.9897-1.352-0.6777-1.8071 0.8687-1.1041 2.0059-0.7518-0.5277-1.4402 1.5641-0.1533 3.1141-0.4073-0.3672-0.9009 1.1505-0.2982 1.8282 0.4511 0.3816 0.716 0.6912 1.1514 0.9993 2.5579 1.1127 1.6311-1.2791 0.3056-1.917 2.4145 2.1099 3.2384-0.2107 1.1313-1.7381 2.4528 1.6783 2.8421-1.4927 1.1491-2.225 1.9194 1.1606 1.7516-1.3489 0.3793-2.1955l-0.6298-0.8324z" stroke-linejoin="bevel"/>
    <path class="fil7 str5" d="m10.266 74.987c-1.0131-0.6221-2.3098 1.2136-0.494 2.4149 0.5451 0.5062 1.1141 0.8658 1.878 0.9206 0.5948 1.1002 0.73447 0.96488 1.7397 1.7801-0.68513 1.5169-1.7971 4.5399-2.612 7.2599 0.5958 0.4388 2.4411 0.74722 2.9409 0.91972 3.8447 4.0176 6.3527 6.5527 8.4725 8.6842l6.1439-7.476c-3.8498-2.5051-8.1931-5.2542-10.771-7.108-1.7311-3.8812-1.481-4.4189-2.5122-5.1261-1.2463-0.6221-1.6252-1.2968-2.3372-1.8841-0.5006-0.1356-1.6209 0.1572-2.4484-0.3852z"/>
    <path class="fil7 str5" d="m9.0623 78.904c0.4866 1.1739 1.3265 1.5494 2.3359 2.1291"/>
    <path class="fil7 str5" d="m7.887 80.707c0.4736 1.1843 1.6177 2.2269 2.6022 2.7207"/>
    <path class="fil7 str5" d="m7.5361 83.621c0.5592 0.9039 1.0272 0.9891 1.9181 1.6464"/>
    <path class="fil7 str7" d="m25.821 87.903c7.8006 5.1926 12.463 5.7988 15.848 9.2205 28.156-9.738 31.439 2.549 39.071-2.6739 2.3494 5.4263 2.2107 10.853 1.3112 16.279-19.418 4.5708-28.86-0.043-40.704 2.0826-3.0688 0.2068-7.3318-2.6844-10.386-5.9106-5.9147-6.3873-3.3237-4.5744-10.914-12.053" stroke-linejoin="bevel"/>
    <polyline class="fil2 str5" transform="matrix(-1 0 0 1 93.654 0)" points="51.985 97.123 51.212 97.94 50.471 98.827 49.783 99.754 49.106 100.76"/>
    <line class="fil2 str5" x1="18.78" x2="15.761" y1="87.311" y2="85.376"/>
    <g fill-rule="evenodd">
     <path d="m53.634 107.49c6.3186 0.84486 12.637 0.89928 18.956-0.33452"/>
     <path d="m78.109 95.673c-3.0035 2.6539-0.96465 4.9378 2.3974 4.7947"/>
     <path d="m35.57 96.565c3.6913 2.0671 5.5047 4.4472 7.4709 6.8018"/>
    </g>
   </g>
  </g>
  <g>
   <path d="m311.49 117.65 12.397 21.527 24.303-5.049-16.772 18.427 12.286 21.426-22.762-10.138-16.71 18.291 2.704-24.693-22.613-10.121 24.434-5.1232z"/>
   <path d="m213.13 164.08 18.189 16.919 21.736-11.985-10.599 22.551 18.053 16.855-24.739-2.9816-10.579 22.402-4.691-24.393-24.591-3.0099 21.84-12.094z"/>
   <path d="m136.43 238.83 23.155 8.9948 15.765-19.172-1.5097 24.871 23.006 8.9859-24.088 6.3766-1.5467 24.726-13.378-20.93-23.961 6.2956 15.82-19.312z"/>
   <path d="m92.895 331.8 24.625 3.2658 10.786-22.356 4.4129 24.523 24.478 3.2925-21.898 11.89 4.3425 24.391-17.947-17.175-21.794 11.782 10.806-22.505z"/>
   <path d="m537.41 166.2-20.036 14.684-20.192-14.436 7.8991 23.632-19.894 14.637 24.918-0.0791 7.8972 23.482 7.501-23.681 24.774-0.12439-20.282-14.556z"/>
   <path d="m610.4 238.83-23.155 8.9948-15.765-19.172 1.5097 24.871-23.006 8.9859 24.088 6.3766 1.5467 24.726 13.378-20.93 23.961 6.2956-15.82-19.312z"/>
   <path d="m653.93 331.8-24.625 3.2658-10.786-22.356-4.4129 24.523-24.478 3.2925 21.898 11.89-4.3425 24.391 17.947-17.175 21.794 11.782-10.806-22.505z"/>
   <path d="m437.02 117.65-12.397 21.527-24.303-5.049 16.772 18.427-12.286 21.426 22.762-10.138 16.71 18.291-2.704-24.693 22.613-10.121-24.434-5.1232z"/>
  </g>
 </g>
 <path class="st0" d="M5,17h62v38H5V17Z"/>
</svg>
