<svg data-name="レイヤー_1" version="1.1" viewBox="0 0 72 72" xmlns="http://www.w3.org/2000/svg">
 <!-- Generator: Adobe Illustrator 29.4.0, SVG Export Plug-In . SVG Version: 2.1.0 Build 152)  -->
 <defs>
  <style>.st0 {
        fill: none;
        stroke: #000;
        stroke-linecap: round;
        stroke-linejoin: round;
        stroke-width: 2px;
      }</style>
 </defs>
 <path class="st0" d="M5,17h62v38H5V17Z"/>
 <g transform="matrix(.10333 0 0 .095 5 17)">
  <polygon points="600 0 0 0 600 400" fill="#6f2571"/>
  <polygon points="0 400 600 400 0 0" fill="#0e8341"/>
  <g fill="#fff">
   <path d="m526.76 122.39c-1.066 0-2.117 0.063-3.155 0.171 1.249-2.532 1.964-5.374 1.964-8.391 0-5.87-2.666-11.1-6.841-14.586-9.944 14.717-26.782 24.394-45.88 24.394-4.173 0-8.231-0.478-12.139-1.353-0.877-3.908-1.354-7.967-1.354-12.14 0-19.098 9.676-35.937 24.394-45.878-3.489-4.176-8.718-6.843-14.586-6.843-3.015 0-5.858 0.712-8.39 1.96 0.107-1.036 0.17-2.086 0.17-3.15 0-9.354-4.258-17.711-10.941-23.243-6.684 5.532-10.941 13.89-10.941 23.243 0 1.064 0.063 2.114 0.17 3.15-2.531-1.248-5.375-1.96-8.39-1.96-5.87 0-11.098 2.667-14.586 6.843 14.718 9.941 24.394 26.78 24.394 45.878 0 4.173-0.477 8.231-1.354 12.14-3.907 0.875-7.966 1.353-12.139 1.353-19.1 0-35.941-9.68-45.884-24.401-4.172 3.493-6.837 8.726-6.837 14.594 0 3.013 0.705 5.857 1.951 8.39-1.034-0.107-2.081-0.17-3.143-0.17-9.352 0-17.709 4.258-23.242 10.942 5.531 6.682 13.889 10.94 23.242 10.94 1.062 0 2.108-0.063 3.142-0.17-1.245 2.532-1.95 5.377-1.95 8.39 0 5.866 2.665 11.1 6.837 14.593 9.942-14.722 26.782-24.4 45.884-24.4 4.173 0 8.231 0.478 12.139 1.353 0.877 3.908 1.354 7.967 1.354 12.14 0 19.102-9.68 35.941-24.401 45.885 3.493 4.171 8.726 6.836 14.594 6.836 3.012 0 5.856-0.706 8.39-1.951-0.107 1.033-0.17 2.08-0.17 3.142 0 9.353 4.26 17.711 10.942 23.243 6.683-5.531 10.94-13.89 10.94-23.243 0-1.061-0.063-2.108-0.17-3.142 2.533 1.245 5.377 1.951 8.39 1.951 5.866 0 11.1-2.665 14.594-6.837-14.722-9.942-24.401-26.782-24.401-45.884 0-4.173 0.477-8.231 1.354-12.14 3.907-0.875 7.966-1.353 12.139-1.353 19.098 0 35.936 9.676 45.88 24.394 4.175-3.488 6.841-8.718 6.841-14.586 0-3.017-0.714-5.858-1.963-8.391 1.037 0.107 2.088 0.171 3.154 0.171 9.353 0 17.711-4.259 23.242-10.94-5.534-6.687-13.893-10.944-23.244-10.944z"/>
   <path d="m226.76 255.73c-1.066 0-2.117 0.063-3.155 0.171 1.249-2.532 1.964-5.374 1.964-8.391 0-5.87-2.666-11.1-6.841-14.586-9.944 14.717-26.782 24.394-45.88 24.394-4.173 0-8.231-0.478-12.139-1.353-0.877-3.908-1.354-7.967-1.354-12.14 0-19.098 9.676-35.937 24.394-45.878-3.489-4.176-8.718-6.843-14.586-6.843-3.015 0-5.858 0.712-8.39 1.96 0.107-1.036 0.17-2.086 0.17-3.15 0-9.354-4.258-17.711-10.941-23.243-6.684 5.532-10.941 13.89-10.941 23.243 0 1.064 0.063 2.114 0.17 3.15-2.531-1.248-5.375-1.96-8.39-1.96-5.87 0-11.098 2.667-14.586 6.843 14.718 9.941 24.394 26.78 24.394 45.878 0 4.173-0.477 8.231-1.354 12.14-3.907 0.875-7.966 1.353-12.139 1.353-19.1 0-35.941-9.68-45.884-24.401-4.172 3.493-6.837 8.726-6.837 14.594 0 3.013 0.705 5.857 1.951 8.39-1.034-0.107-2.081-0.17-3.143-0.17-9.352 0-17.709 4.258-23.242 10.942 5.531 6.682 13.889 10.94 23.242 10.94 1.062 0 2.108-0.063 3.142-0.17-1.245 2.532-1.95 5.377-1.95 8.39 0 5.866 2.665 11.1 6.837 14.593 9.942-14.722 26.782-24.4 45.884-24.4 4.173 0 8.231 0.478 12.139 1.353 0.877 3.908 1.354 7.967 1.354 12.14 0 19.102-9.68 35.941-24.401 45.885 3.493 4.171 8.726 6.836 14.594 6.836 3.012 0 5.856-0.706 8.39-1.951-0.107 1.033-0.17 2.08-0.17 3.142 0 9.353 4.26 17.711 10.942 23.243 6.683-5.531 10.94-13.89 10.94-23.243 0-1.061-0.063-2.108-0.17-3.142 2.533 1.245 5.377 1.951 8.39 1.951 5.866 0 11.1-2.665 14.594-6.837-14.722-9.942-24.401-26.782-24.401-45.884 0-4.173 0.477-8.231 1.354-12.14 3.907-0.875 7.966-1.353 12.139-1.353 19.098 0 35.936 9.676 45.88 24.394 4.175-3.488 6.841-8.718 6.841-14.586 0-3.017-0.714-5.858-1.963-8.391 1.037 0.107 2.088 0.171 3.154 0.171 9.353 0 17.711-4.259 23.242-10.94-5.534-6.687-13.893-10.944-23.244-10.944z"/>
   <polygon points="0 0 600 333.33 600 400 0 66.667"/>
  </g>
 </g>
 <path class="st0" d="M5,17h62v38H5V17Z"/>
</svg>
