<svg data-name="レイヤー_1" version="1.1" viewBox="0 0 72 72" xmlns="http://www.w3.org/2000/svg" xmlns:xlink="http://www.w3.org/1999/xlink">
 <!-- Generator: Adobe Illustrator 29.4.0, SVG Export Plug-In . SVG Version: 2.1.0 Build 152)  -->
 <defs>
  <style>.st0 {
        fill: none;
        stroke: #000;
        stroke-linecap: round;
        stroke-linejoin: round;
        stroke-width: 2px;
      }</style>
  <clipPath id="SVGID_00000158711920621286929850000013501623203470084754_">
   <use xlink:href="#SVGID_1_-0"/>
  </clipPath>
  <clipPath id="SVGID_00000165923974807408707700000005753470356947135378_">
   <use xlink:href="#SVGID_00000098200133519300708030000008931448955439866540_"/>
  </clipPath>
  <clipPath id="SVGID_00000134249694366545777240000009154023288759414148_">
   <use xlink:href="#SVGID_00000001639269379379657230000009442001211160991156_"/>
  </clipPath>
  <clipPath id="SVGID_00000108273732375246811690000017807093202380787590_">
   <use xlink:href="#SVGID_00000049943710314804357990000002409745629007399103_"/>
  </clipPath>
  <clipPath id="SVGID_00000023263445233922704410000002585221658784767884_">
   <use xlink:href="#SVGID_00000129178867956572523600000016891245813531888806_"/>
  </clipPath>
  <path id="SVGID_1_-0" d="m261.2 341.6h164.2v122.1c0 40-33.9 76.9-82.1 76.9-46.1 0-82.1-34.7-82.1-76.9z"/>
  <path id="SVGID_00000098200133519300708030000008931448955439866540_" d="m261.2 341.6h164.2v122.1c0 40-33.9 76.9-82.1 76.9-46.1 0-82.1-34.7-82.1-76.9z"/>
  <path id="SVGID_00000001639269379379657230000009442001211160991156_" d="m261.2 341.6h164.2v122.1c0 40-33.9 76.9-82.1 76.9-46.1 0-82.1-34.7-82.1-76.9z"/>
  <path id="SVGID_00000049943710314804357990000002409745629007399103_" d="m261.2 341.6h164.2v122.1c0 40-33.9 76.9-82.1 76.9-46.1 0-82.1-34.7-82.1-76.9z"/>
  <path id="SVGID_00000129178867956572523600000016891245813531888806_" d="m261.2 341.6h164.2v122.1c0 40-33.9 76.9-82.1 76.9-46.1 0-82.1-34.7-82.1-76.9z"/>
  <clipPath id="clipPath117">
   <path class="st0" d="m10.526 0h978.95v600h-978.95z"/>
  </clipPath>
 </defs>
 <g transform="matrix(.063333 0 0 .063333 4.3333 17)" clip-path="url(#clipPath117)">
  <rect class="st0" x="500" width="500" height="600" fill="#f7ce18" stroke-width=".73206"/>
  <rect class="st1" width="500" height="600" fill="#0039a5" stroke-width=".73206"/>
  <g transform="matrix(.69469 0 0 .71801 11.167 5.0723)">
   <path class="st2" d="m261.6 346.4h164.2v118.1c0 40-36 76.1-82.1 76.1s-82.1-36-82.1-76.1z" fill="#ffd42a" stroke="#000" stroke-width=".5"/>
   <polygon class="st3" points="312.4 241.1 311.7 235.9 296.7 238.2 311.7 302.1 334.7 299.2 332.3 233.8 317.9 235.2 318.5 240.3" fill="#ffd42a" stroke="#000" stroke-width="1.1081"/>
   <g fill="none" stroke="#000" stroke-width="1.1081">
    <line class="st4" x1="332.2" x2="297.8" y1="239" y2="243.3"/>
    <line class="st4" x1="332.8" x2="299.4" y1="246" y2="250.2"/>
    <line class="st4" x1="300.9" x2="332.8" y1="256.1" y2="252.1"/>
    <line class="st4" x1="333.6" x2="304.9" y1="269.6" y2="273.4"/>
    <line class="st4" x1="306.4" x2="333.7" y1="279.5" y2="275.9"/>
    <line class="st4" x1="333.9" x2="307.7" y1="281.9" y2="285.4"/>
    <line class="st4" x1="308.9" x2="334.1" y1="289.9" y2="286.4"/>
    <line class="st4" x1="334.3" x2="310.2" y1="292.3" y2="295.7"/>
   </g>
   <polygon class="st5" points="326.4 267.8 325.8 263.3 311.3 265 311.9 269.6" fill="#003d8f" stroke="#000" stroke-width=".25"/>
   <g fill="none" stroke="#000" stroke-width="1.1081">
    <line class="st4" x1="321.3" x2="322" y1="288.4" y2="294.2"/>
    <line class="st4" x1="320" x2="320.7" y1="277.8" y2="283.8"/>
    <line class="st4" x1="317.1" x2="318.2" y1="253.9" y2="262.9"/>
    <line class="st4" x1="315.4" x2="316.3" y1="240.6" y2="247.9"/>
    <line class="st4" x1="312.6" x2="312.1" y1="254.4" y2="248.4"/>
    <line class="st4" x1="314.9" x2="314.3" y1="278.4" y2="272.1"/>
    <line class="st4" x1="315.9" x2="315.5" y1="288.9" y2="284.3"/>
    <line class="st4" x1="317.1" x2="316.5" y1="301.4" y2="295"/>
    <line class="st4" x1="329" x2="330" y1="293.4" y2="299.5"/>
    <line class="st4" x1="327.2" x2="328" y1="282.8" y2="287.5"/>
    <line class="st4" x1="325.2" x2="326.2" y1="270.7" y2="276.9"/>
    <line class="st4" x1="321.2" x2="322.2" y1="247.4" y2="253.1"/>
   </g>
   <polygon class="st3" points="258.9 256.2 257 251.4 243 257.2 273 315.6 294.6 307.2 276.5 244.3 262.8 249.2 264.6 254" fill="#ffd42a" stroke="#000" stroke-width="1.1081"/>
   <g fill="none" stroke="#000" stroke-width="1.1081">
    <line class="st4" x1="277.6" x2="245.3" y1="249.4" y2="261.9"/>
    <line class="st4" x1="279.9" x2="248.5" y1="256.1" y2="268.2"/>
    <line class="st4" x1="251.4" x2="281.4" y1="273.6" y2="261.9"/>
    <line class="st4" x1="286.4" x2="259.4" y1="278.8" y2="289.4"/>
    <line class="st4" x1="262.4" x2="288" y1="294.9" y2="284.8"/>
    <line class="st4" x1="289.7" x2="265.1" y1="290.6" y2="300.4"/>
    <line class="st4" x1="267.3" x2="291" y1="304.4" y2="294.9"/>
    <line class="st4" x1="292.5" x2="270" y1="300.7" y2="309.8"/>
   </g>
   <polygon class="st5" points="279 278.8 277.3 274.5 263.6 279.7 265.3 284" fill="#003d8f" stroke="#000" stroke-width=".25"/>
   <g fill="none" stroke="#000" stroke-width="1.1081">
    <line class="st4" x1="279" x2="281.1" y1="300" y2="305.4"/>
    <line class="st4" x1="275.2" x2="277.4" y1="290" y2="295.7"/>
    <line class="st4" x1="266.5" x2="269.8" y1="267.5" y2="276"/>
    <line class="st4" x1="261.8" x2="264.4" y1="255" y2="261.9"/>
    <line class="st4" x1="262.4" x2="260.4" y1="269.1" y2="263.4"/>
    <line class="st4" x1="270.4" x2="268.3" y1="291.8" y2="285.8"/>
    <line class="st4" x1="273.9" x2="272.4" y1="301.7" y2="297.4"/>
    <line class="st4" x1="278.1" x2="275.9" y1="313.6" y2="307.5"/>
    <line class="st4" x1="287.7" x2="290.2" y1="303" y2="308.6"/>
    <line class="st4" x1="283.4" x2="285.3" y1="293.1" y2="297.5"/>
    <line class="st4" x1="278.5" x2="281" y1="281.8" y2="287.6"/>
    <line class="st4" x1="269" x2="271.3" y1="260.2" y2="265.5"/>
   </g>
   <polygon class="st3" points="422.6 252.7 424.5 247.9 410.1 242.8 393.4 306.3 415 314.6 443.6 255.7 430.2 250.1 428.3 254.9" fill="#ffd42a" stroke="#000" stroke-width="1.1081"/>
   <g fill="none" stroke="#000" stroke-width="1.1081">
    <line class="st4" x1="441.1" x2="408.7" y1="260.2" y2="247.8"/>
    <line class="st4" x1="438.3" x2="406.9" y1="266.7" y2="254.7"/>
    <line class="st4" x1="405.4" x2="435.5" y1="260.6" y2="272.1"/>
    <line class="st4" x1="427.9" x2="400.8" y1="287.9" y2="277.8"/>
    <line class="st4" x1="399.3" x2="425.1" y1="283.9" y2="293.5"/>
    <line class="st4" x1="422.5" x2="397.7" y1="298.9" y2="289.7"/>
    <line class="st4" x1="396.6" x2="420.5" y1="294.2" y2="303"/>
    <line class="st4" x1="417.9" x2="395" y1="308.3" y2="300"/>
   </g>
   <polygon class="st5" points="422.4 282.9 424.1 278.7 410.4 273.4 408.7 277.7" fill="#003d8f" stroke="#000" stroke-width=".25"/>
   <g fill="none" stroke="#000" stroke-width="1.1081">
    <line class="st4" x1="408.3" x2="406.2" y1="298.7" y2="304.2"/>
    <line class="st4" x1="412.1" x2="409.9" y1="288.7" y2="294.4"/>
    <line class="st4" x1="420.7" x2="417.5" y1="266.2" y2="274.8"/>
    <line class="st4" x1="425.5" x2="422.9" y1="253.8" y2="260.6"/>
    <line class="st4" x1="416.6" x2="418.9" y1="264.6" y2="259.1"/>
    <line class="st4" x1="407.3" x2="409.8" y1="286.9" y2="281.1"/>
    <line class="st4" x1="403.3" x2="405.1" y1="296.6" y2="292.4"/>
    <line class="st4" x1="398.5" x2="401" y1="308.2" y2="302.3"/>
    <line class="st4" x1="412.7" x2="410.8" y1="306.8" y2="312.6"/>
    <line class="st4" x1="416.1" x2="414.6" y1="296.6" y2="301.1"/>
    <line class="st4" x1="420" x2="418" y1="284.9" y2="290.9"/>
    <line class="st4" x1="427.5" x2="425.6" y1="262.5" y2="268"/>
   </g>
   <polygon class="st3" points="368.5 240.6 369.1 235.5 354 234 353.1 299.7 376.1 302.4 389.6 238.4 375.2 236.2 374.6 241.4" fill="#ffd42a" stroke="#000" stroke-width="1.1081"/>
   <g fill="none" stroke="#000" stroke-width="1.1081">
    <line class="st4" x1="388.2" x2="353.8" y1="243.4" y2="239.2"/>
    <line class="st4" x1="387.1" x2="353.7" y1="250.4" y2="246.4"/>
    <line class="st4" x1="353.7" x2="385.7" y1="252.4" y2="256.3"/>
    <line class="st4" x1="382.2" x2="353.4" y1="273.4" y2="270.2"/>
    <line class="st4" x1="353.4" x2="380.7" y1="276.4" y2="279.5"/>
    <line class="st4" x1="379.5" x2="353.2" y1="285.4" y2="282.5"/>
    <line class="st4" x1="353.3" x2="378.6" y1="287.1" y2="289.9"/>
    <line class="st4" x1="377.3" x2="353.1" y1="295.7" y2="293.1"/>
   </g>
   <polygon class="st5" points="375.6 270 376.2 265.4 361.6 263.6 361.1 268.2" fill="#003d8f" stroke="#000" stroke-width=".25"/>
   <g fill="none" stroke="#000" stroke-width="1.1081">
    <line class="st4" x1="365.7" x2="365" y1="288.7" y2="294.5"/>
    <line class="st4" x1="367" x2="366.3" y1="278.1" y2="284.1"/>
    <line class="st4" x1="369.9" x2="368.8" y1="254.2" y2="263.2"/>
    <line class="st4" x1="371.6" x2="370.7" y1="240.9" y2="248.2"/>
    <line class="st4" x1="365.5" x2="366.4" y1="253.6" y2="247.7"/>
    <line class="st4" x1="361.9" x2="362.9" y1="277.4" y2="271.2"/>
    <line class="st4" x1="360.4" x2="361.1" y1="287.9" y2="283.3"/>
    <line class="st4" x1="358.5" x2="359.5" y1="300.3" y2="293.9"/>
    <line class="st4" x1="372" x2="371.5" y1="295.4" y2="301.6"/>
    <line class="st4" x1="372.8" x2="372.4" y1="284.7" y2="289.4"/>
    <line class="st4" x1="373.7" x2="373.3" y1="272.4" y2="278.7"/>
    <line class="st4" x1="375.5" x2="375.1" y1="248.9" y2="254.7"/>
   </g>
   <polygon class="st3" points="357.2 214.5 355 299.3 331.9 299.3 329.3 214.5" fill="#ffd42a" stroke="#000" stroke-width="1.1081"/>
   <polygon class="st3" points="329.5 214.5 324.1 208.6 324.1 202.4 331.7 202.4 331.7 208.6 339.8 208.6 339.8 202.4 347.8 202.4 347.8 208.6 354.9 208.6 354.9 202.4 362 202.4 362 208.6 357.1 214.5" fill="#ffd42a" stroke="#000" stroke-width="1.1081"/>
   <g fill="none" stroke="#000" stroke-width="1.1081">
    <line class="st4" x1="329.6" x2="357.1" y1="220.9" y2="220.9"/>
    <line class="st4" x1="356.9" x2="329.7" y1="227" y2="227"/>
    <line class="st4" x1="356.6" x2="330.1" y1="233.7" y2="233.7"/>
    <line class="st4" x1="356.6" x2="329.9" y1="238.9" y2="238.9"/>
    <line class="st4" x1="356.4" x2="330.2" y1="246.1" y2="246.1"/>
    <line class="st4" x1="330.4" x2="356.3" y1="252.1" y2="252.1"/>
    <line class="st4" x1="355.8" x2="330.9" y1="269.8" y2="269.8"/>
    <line class="st4" x1="331.1" x2="355.6" y1="276.1" y2="276.1"/>
    <line class="st4" x1="355.5" x2="331.3" y1="282.2" y2="282.2"/>
    <line class="st4" x1="331.5" x2="355.4" y1="286.8" y2="286.8"/>
    <line class="st4" x1="355.2" x2="331.6" y1="292.8" y2="292.8"/>
   </g>
   <g fill="#003d8f" stroke="#000" stroke-width="1.1081">
    <path class="st6" d="m340 260h6.1l0.5-17.8s-2.5-3.7-3.5-3.7-3.6 3.7-3.6 3.7z"/>
    <path class="st6" d="m332.5 228.2h6.1v-7.2s-2-2.9-3-2.9-3.1 2.9-3.1 2.9z"/>
    <path class="st6" d="m347.5 228.2h6.1v-7.2s-2-2.9-3-2.9-3.1 2.9-3.1 2.9z"/>
   </g>
   <g fill="none" stroke="#000" stroke-width="1.1081">
    <line class="st4" x1="343.1" x2="343.1" y1="221.1" y2="214.5"/>
    <line class="st4" x1="343.1" x2="343.1" y1="233.6" y2="226.9"/>
    <line class="st4" x1="337.6" x2="337.9" y1="262" y2="269.9"/>
    <line class="st4" x1="336.8" x2="337" y1="233.7" y2="238.7"/>
    <line class="st4" x1="350" x2="350.1" y1="238.9" y2="233.8"/>
    <line class="st4" x1="349.3" x2="349.5" y1="270.1" y2="262.3"/>
   </g>
   <polygon class="st3" points="420 226 397.4 307.8 375 302.2 393 219.2" fill="#ffd42a" stroke="#000" stroke-width="1.1081"/>
   <polygon class="st3" points="393.2 219.3 389.3 212.3 390.9 206.3 398.2 208.1 396.7 214.2 404.6 216.1 406.1 210.1 413.9 212 412.4 218.1 419.3 219.8 420.8 213.7 427.7 215.4 426.2 221.5 420 226" fill="#ffd42a" stroke="#000" stroke-width="1.1081"/>
   <g fill="none" stroke="#000" stroke-width="1.1081">
    <line class="st4" x1="391.8" x2="418.4" y1="225.5" y2="232.2"/>
    <line class="st4" x1="416.7" x2="390.3" y1="238" y2="231.5"/>
    <line class="st4" x1="414.9" x2="389.1" y1="244.5" y2="238.1"/>
    <line class="st4" x1="413.6" x2="387.7" y1="249.6" y2="243.1"/>
    <line class="st4" x1="411.6" x2="386.2" y1="256.4" y2="250.1"/>
    <line class="st4" x1="385" x2="410.1" y1="256.1" y2="262.3"/>
    <line class="st4" x1="405.4" x2="381.2" y1="279.4" y2="273.4"/>
    <line class="st4" x1="379.9" x2="403.6" y1="279.5" y2="285.4"/>
    <line class="st4" x1="402.1" x2="378.5" y1="291.3" y2="285.4"/>
    <line class="st4" x1="377.7" x2="400.8" y1="290" y2="295.7"/>
    <line class="st4" x1="399.2" x2="376.3" y1="301.5" y2="295.8"/>
   </g>
   <g fill="#003d8f" stroke="#000" stroke-width="1.1081">
    <path class="st6" d="m392.4 266 5.9 1.5 4.8-17.2s-1.5-4.2-2.5-4.5c-1-0.2-4.4 2.7-4.4 2.7z"/>
    <path class="st6" d="m392.8 233.3 5.9 1.5 1.7-7s-1.3-3.3-2.2-3.5c-1-0.2-3.7 2.1-3.7 2.1z"/>
    <path class="st6" d="m407.4 236.9 5.9 1.5 1.7-7s-1.3-3.3-2.2-3.5c-1-0.2-3.7 2.1-3.7 2.1z"/>
   </g>
   <g fill="none" stroke="#000" stroke-width="1.1081">
    <line class="st4" x1="404.8" x2="406.3" y1="229" y2="222.6"/>
    <line class="st4" x1="401.7" x2="403.4" y1="241.1" y2="234.6"/>
    <line class="st4" x1="389.6" x2="387.9" y1="267.4" y2="275.1"/>
    <line class="st4" x1="395.7" x2="394.6" y1="239.7" y2="244.6"/>
    <line class="st4" x1="407.2" x2="408.5" y1="248" y2="243"/>
    <line class="st4" x1="398.9" x2="401" y1="278.1" y2="270.5"/>
   </g>
   <polygon class="st3" points="473.8 250.9 432.1 324.8 411.6 313.9 449.2 237.8" fill="#ffd42a" stroke="#000" stroke-width="1.1081"/>
   <polygon class="st3" points="449.3 237.9 447.3 230.2 450.2 224.7 456.9 228.2 454 233.7 461.1 237.5 464.1 232 471.2 235.8 468.3 241.3 474.5 244.7 477.5 239.1 483.7 242.5 480.8 248 473.7 250.8" fill="#ffd42a" stroke="#000" stroke-width="1.1081"/>
   <g fill="none" stroke="#000" stroke-width="1.1081">
    <line class="st4" x1="446.4" x2="470.7" y1="243.6" y2="256.5"/>
    <line class="st4" x1="467.7" x2="443.6" y1="261.8" y2="249"/>
    <line class="st4" x1="464.3" x2="440.9" y1="267.6" y2="255.1"/>
    <line class="st4" x1="461.8" x2="438.3" y1="272.2" y2="259.7"/>
    <line class="st4" x1="458.3" x2="435.1" y1="278.4" y2="266.1"/>
    <line class="st4" x1="432.5" x2="455.3" y1="271.6" y2="283.7"/>
    <line class="st4" x1="446.6" x2="424.6" y1="299.1" y2="287.4"/>
    <line class="st4" x1="421.8" x2="443.4" y1="293.1" y2="304.6"/>
    <line class="st4" x1="440.5" x2="419.1" y1="309.9" y2="298.5"/>
    <line class="st4" x1="417.2" x2="438.3" y1="302.7" y2="313.9"/>
    <line class="st4" x1="435.3" x2="414.5" y1="319.1" y2="308"/>
   </g>
   <g fill="#003d8f" stroke="#000">
    <g stroke-width="1.1081">
     <path class="st6" d="m437.3 283.1 5.4 2.9 8.8-15.5s-0.5-4.5-1.4-5-4.9 1.6-4.9 1.6z"/>
     <path class="st6" d="m445.6 251.4 5.4 2.9 3.4-6.3s-0.4-3.5-1.3-4-4.1 1.1-4.1 1.1z"/>
     <path class="st6" d="m458.8 258.4 5.4 2.9 3.4-6.3s-0.4-3.5-1.3-4-4.1 1.1-4.1 1.1z"/>
    </g>
    <path class="st5" d="m416.3 316.8 10 5.4 5.7-9.8 4.8-9.8s0.7-2.1 0.2-4.3c-0.4-2.2-1.1-2.8-1.9-3.2-0.9-0.5-3.2-1.5-5.3-0.6s-3.1 1.8-3.1 1.8l-5.7 10.2z" stroke-width=".25"/>
   </g>
   <g fill="none" stroke="#000" stroke-width="1.1081">
    <line class="st4" x1="458.2" x2="461.3" y1="250.1" y2="244.3"/>
    <line class="st4" x1="452.3" x2="455.5" y1="261.1" y2="255.2"/>
    <line class="st4" x1="434.2" x2="430.7" y1="283.6" y2="290.8"/>
    <line class="st4" x1="446.8" x2="444.6" y1="258.3" y2="262.8"/>
    <line class="st4" x1="455.9" x2="458.4" y1="269.1" y2="264.6"/>
    <line class="st4" x1="440.7" x2="444.5" y1="296.3" y2="289.5"/>
   </g>
   <polygon class="st3" points="296.7 218.8 315.1 301.6 292.7 307.2 269.7 225.5" fill="#ffd42a" stroke="#000" stroke-width="1.1081"/>
   <polygon class="st3" points="269.8 225.5 263.2 221.1 261.7 215.1 269 213.2 270.6 219.3 278.4 217.3 276.9 211.3 284.7 209.3 286.2 215.4 293.1 213.7 291.6 207.6 298.5 205.9 300 211.9 296.6 218.8" fill="#ffd42a" stroke="#000" stroke-width="1.1081"/>
   <g fill="none" stroke="#000" stroke-width="1.1081">
    <line class="st4" x1="271.5" x2="298.2" y1="231.7" y2="225"/>
    <line class="st4" x1="299.5" x2="273" y1="231" y2="237.6"/>
    <line class="st4" x1="300.8" x2="275.1" y1="237.5" y2="244"/>
    <line class="st4" x1="302.1" x2="276.2" y1="242.6" y2="249.1"/>
    <line class="st4" x1="303.6" x2="278.1" y1="249.6" y2="256"/>
    <line class="st4" x1="279.9" x2="304.9" y1="261.8" y2="255.5"/>
    <line class="st4" x1="308.8" x2="284.6" y1="272.8" y2="278.9"/>
    <line class="st4" x1="286.4" x2="310.1" y1="284.9" y2="279"/>
    <line class="st4" x1="311.5" x2="288" y1="284.9" y2="290.8"/>
    <line class="st4" x1="289.3" x2="312.5" y1="295.2" y2="289.4"/>
    <line class="st4" x1="313.8" x2="290.9" y1="295.2" y2="300.9"/>
   </g>
   <g fill="#003d8f" stroke="#000" stroke-width="1.1081">
    <path class="st6" d="m291.1 267.1 5.9-1.5-3.8-17.4s-3.3-3-4.3-2.8-2.6 4.5-2.6 4.5z"/>
    <path class="st6" d="m276.1 238 5.9-1.5-1.7-7s-2.6-2.3-3.6-2.1-2.3 3.6-2.3 3.6z"/>
    <path class="st6" d="m290.6 234.4 5.9-1.5-1.7-7s-2.6-2.3-3.6-2.1-2.3 3.6-2.3 3.6z"/>
   </g>
   <g fill="none" stroke="#000" stroke-width="1.1081">
    <line class="st4" x1="284.6" x2="283" y1="228.6" y2="222.3"/>
    <line class="st4" x1="287.7" x2="286" y1="240.7" y2="234.2"/>
    <line class="st4" x1="289.2" x2="291.4" y1="269.6" y2="277.2"/>
    <line class="st4" x1="281.6" x2="283" y1="242.3" y2="247.2"/>
    <line class="st4" x1="295.6" x2="294.5" y1="244.2" y2="239.2"/>
    <line class="st4" x1="302.5" x2="300.8" y1="274.7" y2="267"/>
   </g>
   <polygon class="st3" points="237.8 239.6 275.8 315.5 255.3 326.4 213.2 252.6" fill="#ffd42a" stroke="#000" stroke-width="1.1081"/>
   <polygon class="st3" points="213.4 252.6 205.9 250 202.9 244.5 209.6 240.9 212.6 246.4 219.7 242.6 216.8 237.1 223.9 233.3 226.9 238.8 233.1 235.5 230.2 230 236.5 226.6 239.4 232.1 237.8 239.6" fill="#ffd42a" stroke="#000" stroke-width="1.1081"/>
   <g fill="none" stroke="#000" stroke-width="1.1081">
    <line class="st4" x1="216.5" x2="240.8" y1="258.2" y2="245.3"/>
    <line class="st4" x1="243.5" x2="219.4" y1="250.7" y2="263.5"/>
    <line class="st4" x1="246.4" x2="223" y1="256.8" y2="269.2"/>
    <line class="st4" x1="248.8" x2="225.3" y1="261.4" y2="273.9"/>
    <line class="st4" x1="252" x2="228.8" y1="267.8" y2="280.2"/>
    <line class="st4" x1="231.9" x2="254.7" y1="285.4" y2="273.3"/>
    <line class="st4" x1="262.7" x2="240.6" y1="289.1" y2="300.8"/>
    <line class="st4" x1="243.8" x2="265.4" y1="306.2" y2="294.8"/>
    <line class="st4" x1="268.2" x2="246.8" y1="300.2" y2="311.5"/>
    <line class="st4" x1="249.1" x2="270.2" y1="315.5" y2="304.3"/>
    <line class="st4" x1="272.9" x2="252.1" y1="309.6" y2="320.7"/>
   </g>
   <g fill="#003d8f" stroke="#000" stroke-width="1.1081">
    <path class="st6" d="m244.1 287.8 5.4-2.9-7.9-16s-4-2.1-4.9-1.6-1.4 5-1.4 5z"/>
    <path class="st6" d="m222.5 263.2 5.4-2.9-3.4-6.3s-3.1-1.6-4-1.1-1.3 4-1.3 4z"/>
    <path class="st6" d="m235.7 256.2 5.4-2.9-3.4-6.3s-3.1-1.6-4-1.1-1.3 4-1.3 4z"/>
   </g>
   <g fill="none" stroke="#000" stroke-width="1.1081">
    <line class="st4" x1="228.5" x2="225.4" y1="252" y2="246.3"/>
    <line class="st4" x1="234.4" x2="231.2" y1="263.1" y2="257.2"/>
    <line class="st4" x1="242.9" x2="246.8" y1="290.7" y2="297.6"/>
    <line class="st4" x1="228.9" x2="231.4" y1="266.1" y2="270.5"/>
    <line class="st4" x1="243" x2="240.7" y1="264.5" y2="260"/>
    <line class="st4" x1="257" x2="253.5" y1="292.4" y2="285.4"/>
   </g>
   <path class="st3" d="m451.6 296.7s-0.1-0.1-0.4-0.3-0.8-0.6-1.4-1c-1.2-0.9-3.1-2.1-5.6-3.6-4.9-3-12.2-7-21.6-11.1-18.8-8.1-46.1-16.2-79.7-16.2-63.1 0-101.6 28.5-105.9 31.8-0.3 0.2-0.4 0.3-0.4 0.3-1.3 1.1-3.3 0.9-4.4-0.4s-0.9-3.3 0.4-4.4c0.3-0.3 40.9-33.5 110.2-33.5 69.4 0 112.2 33.3 112.5 33.5 1.4 1.1 1.6 3 0.6 4.4-0.6 0.8-1.5 1.2-2.5 1.2-0.5 0-1.2-0.2-1.8-0.7z" fill="#ffd42a" stroke="#000" stroke-width="1.1081"/>
   <path class="st3" d="m432.1 329.7s-0.1-0.1-0.4-0.3c-0.2-0.2-0.6-0.5-1.1-0.8-1-0.7-2.5-1.7-4.6-3-4-2.5-10-5.8-17.7-9.1-15.4-6.6-37.7-13.2-65.2-13.2-51.6 0-83.1 23.3-86.6 26l-0.3 0.3c-1.1 0.9-2.7 0.7-3.6-0.3-0.9-1.1-0.7-1.9 0.3-2.8 0.3-0.2 33.4-28.2 90.2-28.2 56.7 0 91.8 28.8 92.1 29 1.1 0.9 1.3 0.9 0.4 2-0.5 0.6-1.2 1-2 1-0.5-0.1-1.1-0.3-1.5-0.6z" fill="#ffd42a" stroke="#000" stroke-width="1.1081"/>
   <g fill="#003d8f" stroke="#000">
    <g stroke-width="1.1081">
     <path class="st6" d="m381.8 302.7 11 3.2 3.6-10.8 2.7-10.6s0.2-2.2-0.7-4.3-1.6-2.5-2.5-2.7c-0.9-0.3-3.4-0.8-5.3 0.5s-2.7 2.4-2.7 2.4l-3.5 11.2z"/>
     <path class="st6" d="m269.9 315.4-10 5.4-5.7-9.8-4.8-9.8s-0.7-2.1-0.2-4.3c0.4-2.2 1.1-2.8 1.9-3.2 0.8-0.5 3.2-1.5 5.3-0.6s3.1 1.8 3.1 1.8l5.7 10.2z"/>
     <path class="st6" d="m309.7 301.3-11 3.2-3.6-10.8-2.7-10.6s-0.2-2.2 0.7-4.3 1.6-2.5 2.5-2.7c0.9-0.3 3.4-0.8 5.3 0.5s2.7 2.4 2.7 2.4l3.5 11.2z"/>
     <path class="st6" d="m339.3 298.6h11.4l0.5-11.3-0.3-10.9s-0.4-2.2-1.8-3.9-2.2-1.9-3.2-1.9-3.5 0.2-4.9 1.9c-1.5 1.8-1.9 3.1-1.9 3.1l-0.3 11.7z"/>
    </g>
    <g stroke-width=".25">
     <polygon class="st5" points="294.2 419.6 311 398.1 327.3 420.2 311.1 441.9"/>
     <polygon class="st5" points="261.2 419.6 278 398.1 294.3 420.2 278.1 441.9"/>
     <polygon class="st5" points="327.3 419.6 344.1 398.1 360.4 420.2 344.2 441.9"/>
     <polygon class="st5" points="360.2 419.6 377 398.1 393.3 420.2 377.1 441.9"/>
     <polygon class="st5" points="393 419.6 409.8 398.1 426.1 420.2 409.9 441.9"/>
     <polygon class="st5" points="294.3 463.4 311.1 441.9 327.4 464 310.4 485.7"/>
     <polygon class="st5" points="261.3 463.1 278.1 441.6 294.4 463.7 276.6 485.4"/>
     <polygon class="st5" points="327.4 463.4 344.2 441.9 360.5 464 343.3 486.2"/>
     <polygon class="st5" points="360.3 463.4 377.1 441.9 393.4 464 376.2 486.2"/>
     <polygon class="st5" points="393.1 463.4 409.9 441.9 426.2 464 409 486.2"/>
     <polygon class="st5" points="293.4 506.9 310.2 485.4 326.5 507.5 308.7 529.2"/>
     <polygon class="st5" points="326.5 507.7 343.3 486.2 359.6 508.3 342.6 530"/>
     <polygon class="st5" points="359.4 507.7 376.2 486.2 392.5 508.3 375.5 530"/>
    </g>
   </g>
   <clipPath>
    <use xlink:href="#SVGID_1_-0"/>
   </clipPath>
   <polygon points="259.6 506.1 276.4 484.6 293.5 505.9 274.9 528.4" clip-path="url(#SVGID_00000158711920621286929850000013501623203470084754_)" fill="#003d8f" stroke="#000" stroke-width=".25"/>
   <clipPath>
    <use xlink:href="#SVGID_00000098200133519300708030000008931448955439866540_"/>
   </clipPath>
   <polygon points="392.2 507.7 409 486.2 425.3 508.3 407.5 530" clip-path="url(#SVGID_00000165923974807408707700000005753470356947135378_)" fill="#003d8f" stroke="#000" stroke-width=".25"/>
   <clipPath>
    <use xlink:href="#SVGID_00000001639269379379657230000009442001211160991156_"/>
   </clipPath>
   <polygon points="291.9 551.4 308.7 528.2 325 551.9 307.2 573.6" clip-path="url(#SVGID_00000134249694366545777240000009154023288759414148_)" fill="#003d8f" stroke="#000" stroke-width=".25"/>
   <clipPath>
    <use xlink:href="#SVGID_00000049943710314804357990000002409745629007399103_"/>
   </clipPath>
   <polygon points="325.8 550.6 342.6 529 358.9 551.1 341.1 572.8" clip-path="url(#SVGID_00000108273732375246811690000017807093202380787590_)" fill="#003d8f" stroke="#000" stroke-width=".25"/>
   <clipPath>
    <use xlink:href="#SVGID_00000129178867956572523600000016891245813531888806_"/>
   </clipPath>
   <g stroke="#000">
    <polygon points="360.3 551.4 375.4 529 392.6 551.9 375.6 573.6" clip-path="url(#SVGID_00000023263445233922704410000002585221658784767884_)" fill="#003d8f" stroke-width=".25"/>
    <path class="st2" d="m343.8 294.8c-79.4 0-143.7 63-143.7 140.6 0 77.7 64.3 140.6 143.7 140.6s143.7-63 143.7-140.6c-0.1-77.6-64.4-140.6-143.7-140.6zm0 253.1c-63.5 0-114.9-50.4-114.9-112.5s51.5-112.5 114.9-112.5c63.5 0 114.9 50.4 114.9 112.5 0 62.2-51.5 112.5-114.9 112.5z" fill="#ffd42a" stroke-width=".5"/>
    <path class="st12" d="m344.2 298.8c-77.2 0-139.8 61.3-139.8 136.9s62.6 136.9 139.8 136.9 139.8-61.3 139.8-136.9c0.1-75.6-62.5-136.9-139.8-136.9zm0 246.4c-61.8 0-111.9-49-111.9-109.5s50.1-109.5 111.9-109.5 111.9 49 111.9 109.5c0 60.4-50.1 109.5-111.9 109.5z" fill="#ffd42a"/>
   </g>
   <g fill="none" stroke="#000" stroke-width="1.28">
    <ellipse class="st13" cx="344.2" cy="435.4" rx="115.3" ry="113"/>
    <ellipse class="st13" cx="318.3" cy="558.8" rx="3.5" ry="3.8"/>
    <ellipse class="st13" cx="293.1" cy="550.6" rx="3.5" ry="3.8"/>
    <ellipse class="st13" cx="271.7" cy="538.9" rx="3.5" ry="3.8"/>
    <ellipse class="st13" cx="254.1" cy="525.5" rx="3.5" ry="3.8"/>
   </g>
   <g stroke="#000">
    <path class="st14" d="m359 595.1 0.8 7c0 1.2-0.2 2.3-0.7 3.3-0.4 1-1 3.3-1.8 4.1s-1.7 1.4-2.7 1.8-2.1-0.7-3.3-0.7h-4l-4 3.5-4-3.5h-4c-1.2 0-2.3 1.2-3.3 0.7-1-0.4-1.9-1-2.7-1.8s-1.4-1.7-1.8-2.7-0.7-2.1-0.7-3.3l0.4-4.9 0.8-7-2.5-3.5c0-1.2 0.2-2.3 0.7-3.3 0.4-1 1-1.9 1.8-2.7s1.7-1.4 2.7-1.8 3.5-0.7 4.7-0.7h16c1.2 0 3 0.2 4 0.7 1 0.4 1.9 1 2.7 1.8s1.4 1.7 1.8 2.7 0.7 2.1 0.7 3.3l-1.8 3.5zm3.8 0.5-0.4-4.4 2.2-4.4c0-1.5-0.3-2.9-0.8-4.1-0.5-1.3-1.3-2.4-2.3-3.4s-2.1-1.7-3.4-2.3c-1.3-0.5-3.5-0.8-5-0.8h-20c-1.5 0-4.6 0.3-5.9 0.8s-2.4 1.3-3.4 2.3-1.7 2.1-2.3 3.4c-0.5 1.3-0.8 2.7-0.8 4.1l3.1 4.4-0.8 8.8-0.4 6.2c0 1.5 0.3 2.9 0.8 4.1 0.5 1.3 1.3 2.4 2.3 3.4s2.1 1.7 3.4 2.3c1.3 0.5 2.7-0.9 4.1-0.9h5l5 4.4 5-4.4h5c1.5 0 2.8 1.5 4.1 0.9 1.3-0.5 2.4-1.3 3.4-2.3s1.7-3.9 2.3-5.1c0.5-1.3 0.8-2.7 0.8-4.1l-0.4-4.4z" fill="#b3b3b3" stroke-width=".25"/>
    <polygon class="st2" points="329.3 614.7 330.1 593.8 329.3 575.4 342.7 575.9 356.1 575.6 355.3 593.8 356.1 614.7 342.7 604" fill="#ffd42a" stroke-width=".5"/>
    <polygon class="st2" points="332.7 609.5 332.7 592.9 332.7 575.7 342.7 575.9 352.7 575.8 352.7 592.9 352.7 609.5 342.7 600.8" fill="#ffd42a" stroke-width=".5"/>
    <rect class="st5" x="261.4" y="344.8" width="164.2" height="52.8" fill="#003d8f" stroke-width=".25"/>
   </g>
   <path d="m218.3 440c-1.8 0.3-4 0.6-5.6 0.7 1.5 0.4 3.2 0.8 5.1 1.3 2.2 0.6 4.4 1.1 6.5 1.6 0.1 0.4 0.1 0.8 0.2 1.3-1.9 1-3.8 2.1-5.7 3.2-1.7 1-3.2 1.8-4.6 2.6 1.6-0.3 3.7-0.6 5.7-0.8 1.8-0.2 3.7-0.5 5.5-0.7 0.1 0.5 0.2 1.1 0.3 1.6-4.3 0.6-8.6 1.2-12.9 1.8-0.2-0.8-0.3-1.6-0.5-2.4 1.9-1.2 3.8-2.4 5.8-3.5 1.5-0.8 2.8-1.5 4.1-2-1.3-0.2-2.8-0.5-4.5-0.9-2.2-0.6-4.4-1.2-6.5-1.9-0.1-0.8-0.2-1.6-0.2-2.5 4.3-0.6 8.6-1.2 12.9-1.8 0 0.6 0.1 1.1 0.1 1.7-2 0.1-3.9 0.4-5.7 0.7z"/>
   <path d="m210.7 433.4c2.6 0 5.1-0.1 7.7-0.1 2.9 0 4.1-1.4 4.1-3.1 0-1.9-1.1-3.3-4-3.5-2.6-0.2-5.1-0.3-7.7-0.5 0-0.7 0.1-1.3 0.1-2l7.5 0.6c4 0.3 5.4 2.6 5.3 5.4-0.1 2.6-1.5 4.7-5.5 4.9-2.5 0.1-5.1 0.2-7.6 0.3 0.1-0.7 0.1-1.4 0.1-2z"/>
   <path d="m224.5 419.5c-1.8-0.3-3.6-0.5-5.4-0.8-2.7 1.1-5.3 2.3-8 3.6 0.1-0.7 0.2-1.5 0.2-2.2 1.3-0.6 2.5-1.1 3.8-1.6 1-0.4 1.9-0.7 2.9-1-0.8-0.5-1.5-1.1-2.4-1.9-1.1-0.9-2.1-1.8-3.1-2.8 0.1-0.7 0.3-1.4 0.5-2.2 2.1 2.2 4.2 4.3 6.4 6.2 1.8 0.3 3.6 0.6 5.4 0.9-0.1 0.7-0.2 1.2-0.3 1.8z"/>
   <path d="m476.2 414.8c0.1 0.6 0.3 1.3 0.4 1.9-3.8 0.8-7.5 1.5-11.3 2.3 0.4 1.9 0.7 3.7 0.9 5.6-0.5 0.1-0.9 0.1-1.4 0.2-0.3-2.4-0.8-4.8-1.3-7.2 4.2-0.9 8.4-1.9 12.7-2.8z"/>
   <path d="m471.6 433.1-0.3-5.4c-1.6 0.1-3.1 0.3-4.7 0.4 0.2 1.9 0.3 3.8 0.3 5.7h-1.4c-0.1-2.4-0.2-4.9-0.5-7.3 4.3-0.5 8.6-1 12.9-1.5 0.3 2.7 0.5 5.4 0.6 8.1h-1.4c-0.1-2-0.2-4-0.4-6.1-1.4 0.1-2.7 0.3-4.1 0.4 0.2 1.8 0.3 3.6 0.4 5.5-0.5 0.2-0.9 0.2-1.4 0.2z"/>
   <path d="m469.6 438.3c-1.3-0.5-2.7-1-4.1-1.4v-1.7c4.3 1.4 8.6 3.1 12.9 4.9 0 0.8-0.1 1.5-0.1 2.3-4.4 1.4-8.9 2.7-13.3 3.6 0.1-0.6 0.1-1.2 0.2-1.8 1.4-0.3 2.8-0.7 4.2-1.1 0.1-1.5 0.2-3.1 0.2-4.8zm1.1 4.6c1.3-0.4 2.5-0.8 3.8-1.2 0.9-0.3 1.6-0.5 2.4-0.6-0.7-0.3-1.5-0.5-2.3-0.8-1.2-0.5-2.5-1-3.7-1.5 0 1.3-0.1 2.7-0.2 4.1z"/>
   <path d="m477.6 449.7c-0.1 0.6-0.2 1.3-0.3 1.9-3.8-0.6-7.6-1.2-11.4-1.8-0.3 1.9-0.6 3.7-1.1 5.6-0.5-0.1-0.9-0.2-1.4-0.3 0.5-2.4 1-4.8 1.3-7.2 4.4 0.6 8.7 1.2 12.9 1.8z"/>
   <g fill="none">
    <path class="st15" d="m267.9 371.2c0-12.5 10.1-22.6 22.6-22.6s22.6 10.1 22.6 22.6-12.4 22.6-22.6 22.6c-12.5 0.1-22.6-10.1-22.6-22.6" stroke="#fff"/>
    <path class="st16" d="m267.9 371.2c0-12.5 10.1-22.6 22.6-22.6s22.6 10.1 22.6 22.6-12.4 22.6-22.6 22.6c-12.5 0.1-22.6-10.1-22.6-22.6" stroke="#ffd42a"/>
    <path class="st15" d="m373.9 371.2c0-12.5 10.1-22.6 22.6-22.6s22.6 10.1 22.6 22.6-12.4 22.6-22.6 22.6c-12.4 0-22.6-10.1-22.6-22.6" stroke="#fff"/>
    <path class="st16" d="m373.9 371.2c0-12.5 10.1-22.6 22.6-22.6s22.6 10.1 22.6 22.6-12.4 22.6-22.6 22.6c-12.4 0-22.6-10.1-22.6-22.6" stroke="#ffd42a"/>
   </g>
   <g fill="#ffd42a" stroke="#000" stroke-width=".75">
    <path class="st17" d="m293.4 362.6c0.9-0.1 1.3-0.8 2.2-0.8 1-0.1 2.3 1 3 1.6 0.8 0.7 1.7 1.3 2.2 2.2 0.6 0.9 1.1 1.8 1.6 2.8s0.9 1.9 1.1 2.9c0.1 0.5 0.1 1 0.2 1.5s-0.6 0.6-1 0.6c-0.7 0.1-0.9 0-1.2-0.6-0.3-0.5-0.6-0.9-0.9-1.4-0.4-0.5-0.6-0.6-1.2-0.8-0.5-0.1-0.7-0.4-1.1-0.9-1-1.3-2.4-2.1-3.7-3-0.6-0.4-1.1-1.3-1.5-1.9-0.5-0.3 0.1-1.7 0.3-2.2"/>
    <path class="st17" d="m287.1 361c-0.9 0-1.4-0.7-2.3-0.6-1 0-2.2 1.1-2.9 1.8-0.8 0.7-1.6 1.4-2 2.3-0.5 1-1 1.9-1.4 2.9s-0.8 1.9-0.9 3c0 0.5-0.1 1-0.1 1.6 0 0.5 0.6 0.5 1 0.5 0.7 0 0.9 0 1.2-0.7 0.3-0.5 0.5-1 0.8-1.4 0.4-0.5 0.5-0.6 1.2-0.9 0.5-0.2 0.7-0.5 1-0.9 0.9-1.3 2.3-2.2 3.5-3.3 0.6-0.5 1-1.4 1.4-2 0.4-0.5-0.2-1.9-0.5-2.3"/>
    <polygon class="st17" points="286 384.9 286.4 383.8 284.2 381.2 283.1 382.4 282.2 383.7 281.5 385 280.7 386.2 280.9 387.5 281 388.6 282 389 283.1 388.9 284.4 388.1 285 387 285.4 385.9"/>
    <polygon class="st17" points="291.1 386.1 290.4 385 291.9 382 293.3 382.9 294.5 383.9 295.4 385 296.5 386 296.7 387.3 296.8 388.4 295.9 389 294.8 389.2 293.4 388.8 292.6 387.8 291.9 386.8"/>
    <path class="st17" d="m293.5 363.7c0-0.3-0.1-0.5-0.1-0.8 0-0.2 0-0.3-0.1-0.5v-0.2l1-1c0.2-0.2 0.5-0.4 0.7-0.6 0.1-0.1 0.3-0.2 0.4-0.4 0.4-0.5 0.7-1 1.1-1.4 0.5-0.6 1.1-2.1 0.9-2.9-0.2-0.5-0.3-1.2-0.5-1.7-0.3-0.8-0.8-1-1.5-1.1-1.3-0.2-2.4 0.9-3.3 1.7-1.2 1.1-1.7 2.3-2.2 3.8l-0.6 1.5v0.6c-0.2 0.2-0.3 0.4-0.5 0.7-0.1 0.1-0.2 0.2-0.3 0.4 0 0.1-0.1 0-0.2 0.1-0.3 0-0.6 0.1-0.9 0.1 0.4 0.4 0.8 0.7 1.2 1.1l0.6 0.6c0.1 0.1 0.2 0.1 0.3 0.1 0.6 0.2 1.2 0.3 1.9 0.5h0.1c0.1 0 0.2-0.1 0.2-0.1 0.3-0.1 0.7-0.2 1-0.4 0.4 0.1 0.6 0 0.8-0.1"/>
    <path class="st17" d="m290.8 380.8c-0.1 1.8-1.1 7.8-1.8 7.8s-1.4-6.1-1.3-8"/>
    <path class="st17" d="m298.6 373.2c-0.1 1.6-0.4 3.1-0.9 4.5-0.1 0.2-0.1 0.4-0.2 0.6-1.7 3.1-4.4 7-8.2 7.8-0.2 0 0 0.1-0.1 0.1-0.2 0 0.2 0 0 0-0.8-0.1-1.5-0.4-2.1-0.9l-0.3-0.3c-1.2-1-2.5-2.1-3.4-3.5-0.1-0.2-0.2-0.3-0.3-0.5-1.5-2.3-2.3-5.4-2.1-8.7 0.2-3.5 1.4-6.6 3.2-8.7 0.1-0.2 0.3-0.3 0.4-0.4 1.3-1.3 2.4-2.8 4.2-3.4 0.1-0.1 0.3-0.1 0.4-0.2s0.3-0.1 0.4-0.1c0.2 0 0.4-0.1 0.6-0.1h0.6c0.2 0 0.4 0.1 0.6 0.1 1.8 1 3 2.7 4.5 4.2 0.1 0.1 0.2 0.3 0.3 0.5 1.6 2.1 2.6 5.4 2.4 9z"/>
    <polygon class="st17" points="287.9 368 292 368.2 293.9 371.9 291.7 375.3 287.6 375.1 285.7 371.5"/>
    <polygon class="st17" points="288.3 361.3 292.4 361.5 294.3 364.8 292.1 368.3 288 368 286.1 364.4"/>
    <polygon class="st17" points="287.5 375.2 291.9 375.2 293.7 378.9 291.5 382.3 287.4 382.1 285.2 378.6"/>
   </g>
   <g fill="none" stroke="#000" stroke-width=".525">
    <line class="st18" x1="294.3" x2="298" y1="364.8" y2="368.3"/>
    <line class="st18" x1="293.9" x2="298.4" y1="372" y2="373.2"/>
    <line class="st18" x1="285.7" x2="281" y1="371.6" y2="372.4"/>
    <line class="st18" x1="286.1" x2="282.3" y1="364.4" y2="366.6"/>
    <line class="st18" x1="293.8" x2="297.4" y1="378.9" y2="378.3"/>
    <line class="st18" x1="285.5" x2="282.4" y1="378.5" y2="379.9"/>
    <line class="st18" x1="287.5" x2="286.4" y1="382.1" y2="384.5"/>
    <line class="st18" x1="291.5" x2="292.2" y1="382.4" y2="384.5"/>
   </g>
   <g stroke="#000">
    <ellipse class="st19" transform="matrix(.1735 -.9848 .9848 .1735 -105.75 584.57)" cx="295.4" cy="355.3" rx=".6" ry=".3" fill="#ffd42a" stroke-miterlimit="3.9999" stroke-width=".75"/>
    <line class="st18" x1="293" x2="292.4" y1="360.6" y2="361.5" fill="none" stroke-width=".525"/>
    <line class="st18" x1="288.4" x2="288.2" y1="359.7" y2="361.4" fill="none" stroke-width=".525"/>
   </g>
   <g fill="#ffd42a" stroke="#000" stroke-width=".75">
    <path class="st17" d="m392.8 362c-0.9-0.1-1.3-0.8-2.2-0.8-1-0.1-2.3 1-3 1.6-0.8 0.7-1.7 1.3-2.2 2.2-0.6 0.9-1.1 1.8-1.6 2.8s-0.9 1.9-1.1 2.9c-0.1 0.5-0.1 1-0.2 1.5s0.6 0.6 1 0.6c0.7 0.1 0.9 0 1.2-0.6 0.3-0.5 0.6-0.9 0.9-1.4 0.4-0.5 0.6-0.6 1.2-0.8 0.5-0.1 0.7-0.4 1.1-0.9 1-1.3 2.4-2.1 3.7-3 0.6-0.4 1.1-1.3 1.5-1.9 0.5-0.3 0-1.7-0.3-2.2"/>
    <path class="st17" d="m399.1 360.3c0.9 0 1.4-0.7 2.3-0.6 1 0 2.2 1.1 2.9 1.8 0.8 0.7 1.6 1.4 2 2.3 0.5 1 1 1.9 1.4 2.9s0.8 1.9 0.9 3c0 0.5 0.1 1 0.1 1.6 0 0.5-0.6 0.5-1 0.5-0.7 0-0.9 0-1.2-0.7-0.3-0.5-0.5-1-0.8-1.4-0.4-0.5-0.5-0.6-1.2-0.9-0.5-0.2-0.7-0.5-1-0.9-0.9-1.3-2.3-2.2-3.5-3.3-0.6-0.5-1-1.4-1.4-2-0.4-0.4 0.3-1.8 0.5-2.3"/>
    <polygon class="st17" points="400.2 384.3 399.8 383.2 402 380.6 403.1 381.8 404 383.1 404.7 384.3 405.5 385.6 405.3 386.9 405.2 387.9 404.2 388.4 403.1 388.3 401.8 387.5 401.3 386.4 400.8 385.3"/>
    <polygon class="st17" points="394.3 384.6 395 383.6 393.5 380.6 392.1 381.5 390.9 382.5 390 383.6 388.9 384.6 388.8 385.9 388.6 386.9 389.5 387.6 390.6 387.8 392.1 387.4 392.8 386.4 393.5 385.4"/>
    <path class="st17" d="m393.6 363.1c0-0.3 0.1-0.5 0.1-0.8 0-0.2 0-0.3 0.1-0.5v-0.2l-1-1c-0.2-0.2-0.5-0.4-0.7-0.6-0.1-0.1-0.3-0.2-0.4-0.4-0.4-0.5-0.7-1-1.1-1.4-0.5-0.6-1.1-2.1-0.9-2.9 0.2-0.5 0.3-1.2 0.5-1.7 0.3-0.8 0.8-1 1.5-1.1 1.3-0.2 2.4 0.9 3.3 1.7 1.2 1.1 1.7 2.3 2.2 3.8l0.6 1.5v0.6c0.2 0.2 0.3 0.4 0.5 0.7 0.1 0.1 0.2 0.2 0.3 0.4 0 0.1 0.1 0 0.2 0.1 0.3 0 0.6 0.1 0.9 0.1-0.4 0.4-0.8 0.7-1.2 1.1l-0.6 0.6c-0.1 0.1-0.2 0.1-0.3 0.1-0.6 0.2-1.2 0.3-1.9 0.5h-0.1c-0.1 0-0.2-0.1-0.2-0.1-0.3-0.1-0.7-0.2-1-0.4-0.5 0-0.7 0-0.8-0.1"/>
    <path class="st17" d="m398.5 380c0.1 1.8-0.6 7.9-1.3 8-0.7 0-1.7-6-1.8-7.8"/>
    <path class="st17" d="m390.1 363.4c0.1-0.2 0.2-0.3 0.3-0.5 1.5-1.4 2.7-3.2 4.5-4.2 0.2-0.1 0.4-0.1 0.6-0.1h0.6c0.2 0 0.4 0 0.6 0.1 0.1 0 0.3 0.1 0.4 0.1s0.3 0.1 0.4 0.2c1.7 0.7 2.9 2.2 4.2 3.4l0.4 0.4c1.8 2.1 3.1 5.2 3.2 8.7 0.2 3.4-0.6 6.4-2.1 8.7-0.1 0.2-0.2 0.3-0.3 0.5-0.9 1.4-2.1 2.4-3.4 3.5l-0.3 0.3c-0.6 0.5-1.3 0.8-2.1 0.9-0.2 0 0.2 0 0 0s0 0-0.1-0.1c-3.8-0.8-6.5-4.7-8.2-7.8-0.1-0.2-0.1-0.4-0.2-0.6-0.5-1.4-0.8-2.9-0.9-4.5-0.2-3.4 0.7-6.7 2.4-9z"/>
    <polygon class="st17" points="394.2 367.6 398.3 367.4 400.5 370.8 398.7 374.5 394.6 374.7 392.3 371.3"/>
    <polygon class="st17" points="393.8 360.9 397.9 360.7 400.1 363.8 398.3 367.4 394.2 367.6 392 364.2"/>
    <polygon class="st17" points="394.3 374.6 398.8 374.6 401 378 398.8 381.5 394.7 381.7 392.5 378.3"/>
   </g>
   <g fill="none" stroke="#000" stroke-width=".525">
    <line class="st18" x1="388.2" x2="392" y1="367.7" y2="364.2"/>
    <line class="st18" x1="387.8" x2="392.3" y1="372.6" y2="371.4"/>
    <line class="st18" x1="405.2" x2="400.5" y1="371.7" y2="371"/>
    <line class="st18" x1="403.9" x2="400.1" y1="365.9" y2="363.8"/>
    <line class="st18" x1="388.9" x2="392.5" y1="377.7" y2="378.3"/>
    <line class="st18" x1="403.8" x2="400.8" y1="379.3" y2="377.8"/>
    <line class="st18" x1="399.8" x2="398.8" y1="383.9" y2="381.5"/>
    <line class="st18" x1="394" x2="394.7" y1="383.9" y2="381.8"/>
   </g>
   <g stroke="#000">
    <ellipse class="st19" transform="matrix(.9848 -.1735 .1735 .9848 -55.599 73.328)" cx="391.6" cy="354.7" rx=".3" ry=".6" fill="#ffd42a" stroke-miterlimit="3.9999" stroke-width=".75"/>
    <line class="st18" x1="393.8" x2="393.3" y1="360.9" y2="360" fill="none" stroke-width=".525"/>
    <line class="st18" x1="398" x2="397.8" y1="360.8" y2="359.1" fill="none" stroke-width=".525"/>
   </g>
   <path class="st20" d="m328 590.7-2.4-3.5c0-1.2 0.2-2.3 0.7-3.3 0.4-1 1-1.9 1.8-2.7s1.7-1.4 2.7-1.8 3.5-0.7 4.7-0.7h16c1.2 0 3 0.2 4 0.7 1 0.4 1.9 1 2.7 1.8s1.4 1.7 1.8 2.7 0.7 2.1 0.7 3.3l-1.7 3.5 3.7-0.4 2.2-4.4c0-1.4-0.3-2.8-0.8-4.1s-1.3-2.4-2.2-3.3-2.1-1.7-3.3-2.2c-1.3-0.5-3.5-0.8-4.9-0.8h-19.8c-1.4 0-4.6 0.3-5.8 0.8-1.3 0.5-2.4 1.3-3.3 2.2s-1.7 2.1-2.2 3.3c-0.5 1.3-0.8 2.6-0.8 4.1l3.1 4.4z" fill="#b3b3b3"/>
   <g stroke="#000">
    <polygon class="st17" points="251.4 496.9 225.7 513 230.4 490.9" fill="#ffd42a" stroke-width=".75"/>
    <ellipse class="st21" transform="matrix(.866 -.5 .5 .866 -222.14 188.75)" cx="241.1" cy="508.9" rx="3.5" ry="3.8" fill="none" stroke-miterlimit="3.9999" stroke-width="1.28"/>
    <polygon class="st22" points="237.4 507.1 237.5 501.9 241.5 504.8 243.8 509.5 240.2 511.6" fill="#b3b3b3" stroke-width=".75"/>
    <polygon class="st12" points="343.7 351.1 348.9 365.9 357 352.6 359.1 366.9 368 356.1 362.8 376.8 323.9 376.6 318.1 355.5 327.9 366.9 330.9 352.6 337.6 365.9" fill="#ffd42a"/>
    <polygon class="st23" points="324 380.6 323.3 376 322.6 372.1 343.5 370.4 364.3 371.9 363.7 375.8 363.2 380.6 343.6 380.6" fill="#ffc800" stroke-width=".75"/>
    <path class="st24" d="m363.9 381.7c0 2-9.1 3.1-20.2 3.1-11.2 0-20.2-1.1-20.2-3.1s9.1-3.7 20.2-3.7 20.2 1.7 20.2 3.7z" fill="#ffc800"/>
    <path class="st12" d="m362 382.3c0 1.4-8.4 2.6-18.7 2.6s-18.7-1.2-18.7-2.6 8.4-2.5 18.7-2.5 18.7 1.1 18.7 2.5z" fill="#ffd42a"/>
    <g stroke-width="1.0746">
     <path class="st25" d="m343.6 369.1c-12.3 0-22.2 1.8-22.2 4 0 0.5 0.6 1 1.6 1.5v-0.1c0-1.5 9.2-3.4 20.6-3.4s20.6 1.8 20.6 3.4c0 0.1 0 0.1-0.1 0.2 1.2-0.5 1.8-1 1.8-1.6 0-2.2-10-4-22.3-4z" fill="#ffc800"/>
     <path class="st26" d="m363.7 378.9c-3.5 0 1.2-4.8-3.1-4.8s-0.7 3.6-4.3 3.6c-3.5 0 0-5.4-4.3-5.4s-0.8 4.8-4.3 4.8 0-4.8-4.3-4.8-0.7 4.8-4.3 4.8 0.1-4.2-4.2-4.2-0.6 4.8-4.2 4.8c-2.8 0-1.1-2.2-3.5-3.6h-1.7c-2.4 1.4 1.1 5.4-1.7 5.4" fill="none"/>
     <ellipse class="st27" cx="326.8" cy="376.3" rx=".4" ry=".2"/>
     <ellipse class="st27" cx="335" cy="375.2" rx=".4" ry=".2"/>
     <ellipse class="st27" cx="343.5" cy="374.4" rx=".4" ry=".2"/>
     <ellipse class="st27" cx="352.1" cy="374.4" rx=".4" ry=".2"/>
     <ellipse class="st27" cx="360.4" cy="376.4" rx=".4" ry=".2"/>
    </g>
   </g>
  </g>
  <g transform="matrix(.73185 0 0 .73647 .14637 0)" fill="#0039a5">
   <polygon class="st1" transform="matrix(1.0003 0 0 1.0092 -.2 0)" points="750.9 0 683 135.7 750.9 269.1 819.6 134.5"/>
   <polygon class="st1" transform="matrix(1.0003 0 0 1.0092 -.2 0)" points="887.5 0 819.6 135.7 887.5 269.1 956.2 134.5"/>
   <polygon class="st1" transform="matrix(1.0003 0 0 1.0092 -.2 0)" points="1024.1 0 956.2 135.7 1024.1 269.1 1092.8 134.5"/>
   <polygon class="st1" transform="matrix(1.0003 0 0 1.0092 -.2 0)" points="1160.7 0 1092.8 135.7 1160.7 269.1 1229.4 134.5"/>
   <polygon class="st1" transform="matrix(1.0003 0 0 1.0092 -.2 0)" points="1297.3 0 1229.4 135.7 1297.3 269.1 1366 134.5"/>
   <polygon class="st1" transform="matrix(1.0003 0 0 1.0092 -.40006 -3.7339)" points="819.8 407.4 751.1 272.8 683.2 408.5 751.1 541.9"/>
   <polygon class="st1" transform="matrix(1.0003 0 0 1.0092 -.40006 -3.7339)" points="956.4 407.4 887.7 272.8 819.8 408.5 887.7 541.9"/>
   <polygon class="st1" transform="matrix(1.0003 0 0 1.0092 -.40006 -3.7339)" points="1093 407.4 1024.3 272.8 956.4 408.5 1024.3 541.9"/>
   <polygon class="st1" transform="matrix(1.0003 0 0 1.0092 -.40006 -3.7339)" points="1229.6 407.4 1160.9 272.8 1093 408.5 1160.9 541.9"/>
   <polygon class="st1" transform="matrix(1.0003 0 0 1.0092 -.40006 -3.7339)" points="1366.2 407.4 1297.5 272.8 1229.6 408.5 1297.5 541.9"/>
   <polygon class="st1" transform="matrix(1.0003 0 0 1.0092 -.40006 -7.4678)" points="751.1 814.7 819.8 680.2 751.1 545.6 683.2 681.3"/>
   <polygon class="st1" transform="matrix(1.0003 0 0 1.0092 -.40006 -7.4678)" points="887.7 814.7 956.4 680.2 887.7 545.6 819.8 681.3"/>
   <polygon class="st1" transform="matrix(1.0003 0 0 1.0092 -.40006 -7.4678)" points="1024.3 814.7 1093 680.2 1024.3 545.6 956.4 681.3"/>
   <polygon class="st1" transform="matrix(1.0003 0 0 1.0092 -.40006 -7.4678)" points="1160.9 814.7 1229.6 680.2 1160.9 545.6 1093 681.3"/>
   <polygon class="st1" transform="matrix(1.0003 0 0 1.0092 -.40006 -7.4678)" points="1297.5 814.7 1366.2 680.2 1297.5 545.6 1229.6 681.3"/>
  </g>
 </g>
 <path class="st0" d="M5,17h62v38H5V17Z"/>
</svg>
