<svg data-name="レイヤー_1" version="1.1" viewBox="0 0 72 72" xmlns="http://www.w3.org/2000/svg">
 <!-- Generator: Adobe Illustrator 29.4.0, SVG Export Plug-In . SVG Version: 2.1.0 Build 152)  -->
 <defs>
  <style>.st0 {
        fill: none;
        stroke: #000;
        stroke-linecap: round;
        stroke-linejoin: round;
        stroke-width: 2px;
      }</style>
  <clipPath id="clipPath119">
   <path class="st0" d="m-81.184-78.31h1198.3v734.45h-1198.3z" fill="none"/>
  </clipPath>
 </defs>
 <path class="st0" d="M5,17h62v38H5V17Z"/>
 <g transform="matrix(1.1017 0 0 1.0226 -2.6568 -53.752)">
  <rect transform="translate(-20.351 99.697)" x="27.301" y="-30.506" width="56.212" height="37.132" fill="#fff" stroke-width="0"/>
  <rect transform="translate(-20.351 99.697)" x="46.779" y="-30.506" width="17.607" height="37.132" fill="#f00" stroke-opacity="null" stroke-width=".25609"/>
  <g transform="matrix(.05174 0 0 .05174 7.8148 72.896)" clip-path="url(#clipPath119)">
   <title>Layer 1</title>
   <g transform="matrix(5.9363,0,0,6.6412,-948.25,-919.68)">
    <ellipse cx="234.12" cy="204.36" rx="3.2855" ry="3.1741" fill="#fff" stroke="null" stroke-width="null"/>
    <g fill="#ffd400" stroke="null" stroke-width="null">
     <path d="m241.03 172.12v2.9891l-3.161-2.9891z"/>
     <path d="m264.11 172.01-1.9367-0.034 1.8816 3.2094 0.0552-3.1754z"/>
     <path d="m234.27 171.91 2.0452 0.0359-2.1003 3.1396z"/>
    </g>
    <path d="m252.06 205.38h-5.9239l0.85819-53.841 2.1037-4.6543 2.1037 4.6543 0.85819 53.841z" fill="#ccc" stroke="#000" stroke-width="0"/>
    <g stroke="null" stroke-width="null">
     <g fill="#ff7f00">
      <rect transform="matrix(-.044096 0 0 -.13954 327.47 644.18)" x="1696.4" y="3026" width="161.87" height="21.378"/>
      <rect transform="matrix(-.044096 0 0 -.13954 327.47 644.18)" x="1696.4" y="3111.3" width="161.87" height="21.378"/>
      <rect transform="matrix(-.044096 0 0 -.13954 327.47 644.18)" x="1696.4" y="3082.8" width="161.87" height="21.378"/>
      <rect transform="matrix(-.044096 0 0 -.13954 327.47 644.18)" x="1696.4" y="3054.4" width="161.87" height="21.378"/>
      <ellipse cx="249.1" cy="204.45" rx="11.982" ry="1.8846"/>
     </g>
     <ellipse cx="249.1" cy="204.55" rx="3.8653" ry="1.3887" fill="#f00"/>
     <ellipse cx="263.88" cy="204.55" rx="3.2855" ry="3.1741" fill="#fff"/>
    </g>
    <path d="m250.03 202.61h-1.8654l0.27023-51.102 0.66244-4.4175 0.66244 4.4175 0.27023 51.102z" fill="#fff" stroke="#000" stroke-width="0"/>
    <g fill="#ffd400" stroke="null" stroke-width="null">
     <path d="m235.58 190.28 7.6236-2.0551h11.9l7.9025 2.1484-0.18594-5.4178 2.3242-13.731-1.9524 2.4287-1.3946 3.7364-1.4875 0.0934-1.3016-1.2143-1.3016-5.4178-0.74376 0.37364-0.65079 2.4287-0.65079 2.9891-1.6735 0.65387-1.4875-0.28022-1.5805-1.8682-1.4875-5.6046-1.8594 2.7089-0.46485 3.5496-1.4875 1.588-2.3242-0.74728-0.55782-0.9341-0.74376-3.2694-1.0227-1.588-0.65079 1.6814-0.74376 3.1759-1.3016 1.7748h-0.9297l-0.9297-0.56046-0.65079-1.6814-1.7664-4.0166h-0.74376l1.5805 8.8739 0.74376 4.9507v5.231z"/>
     <path d="m257.29 173.21v2.9891l-3.161-2.9891z"/>
     <path d="m257.67 173.21h2.975l-2.975 3.1759z"/>
     <path d="m241.3 173.21h2.975l-2.975 3.1759z"/>
     <path d="m250.14 172.37h2.975l-2.975 3.1759z"/>
     <path d="m248.55 172.28v2.9891l-3.161-2.9891z"/>
    </g>
    <g stroke="null">
     <g stroke-width="null">
      <ellipse cx="249.34" cy="180.75" rx="4.6485" ry="2.5221" fill="#007f00"/>
      <ellipse cx="258.73" cy="181.92" rx="4.1836" ry="2.2885" fill="#ff7f00"/>
      <ellipse cx="239.67" cy="181.73" rx="4.1836" ry="2.2885" fill="#ff7f00"/>
     </g>
     <path d="m235.38 186.54 7.7869-2.1485 11.965-0.0934 7.692 1.9616 0.18992 3.2694-7.692-2.6155-12.06 0.18682-7.692 2.4287-0.18992-2.9891z" fill="#fff" stroke-width="NaN"/>
     <path d="m263.2 190.28-9.0434 1.6752h-2.3591v-3.7692h3.5387z" fill="#ff7f00" stroke-width="null"/>
     <path d="m234.99 190.08 9.0434 1.6752h2.3591v-3.7693h-3.5387z" fill="#ff7f00" stroke-width="null"/>
    </g>
   </g>
   <g transform="matrix(1.3754 0 0 1.166 -18180 -10275)">
    <title transform="translate(13721 8806.7)">Layer 1</title>
    <!-- Created with Method Draw - http://github.com/duopixel/Method-Draw/ -->
    <g stroke="null">
     <g transform="matrix(3.091,0,0,2.491,339.37,-17.09)">
      <title transform="translate(4439 3535.5)">background</title>
      <rect x="4348.6" y="3555" width="30" height="61" fill="none"/>
      <g display="none">
       <rect x="4349.6" y="3556" width="800" height="600" fill="url(#gridpattern)" stroke="null" stroke-width="0"/>
      </g>
     </g>
     <g transform="matrix(3.091,0,0,2.491,339.37,-17.09)">
      <title transform="translate(4439 3535.5)" stroke="null">Layer 1</title>
      <g stroke="#fff" stroke-width="0">
       <path d="m4360.2 3600.4 3.333-23.664 3.333 23.664z"/>
       <rect x="4362.2" y="3598.6" width="2.6664" height="7.9992"/>
       <g fill-opacity="null" stroke-opacity="null">
        <ellipse cx="4360" cy="3572.9" rx="1.6665" ry="1.9998"/>
        <ellipse cx="4363.6" cy="3567.9" rx="1.6665" ry="1.9998"/>
        <ellipse cx="4367.2" cy="3572.9" rx="1.6665" ry="1.9998"/>
       </g>
      </g>
     </g>
     <g transform="matrix(3.091,0,0,2.491,339.37,-17.09)">
      <title transform="translate(4439 3535.5)">background</title>
      <rect x="4329.2" y="3591.9" width="30" height="61" fill="none"/>
      <g display="none">
       <rect x="4330.2" y="3592.9" width="800" height="600" fill="url(#gridpattern)" stroke="null" stroke-width="0"/>
      </g>
     </g>
     <g transform="matrix(3.091,0,0,2.491,339.37,-17.09)">
      <title transform="translate(4439 3535.5)" stroke="null">Layer 1</title>
      <g stroke="#fff" stroke-width="0">
       <path d="m4340.8 3637.3 3.333-23.664 3.333 23.664z"/>
       <rect x="4342.8" y="3635.5" width="2.6664" height="7.9992"/>
       <g fill-opacity="null" stroke-opacity="null">
        <ellipse cx="4340.5" cy="3609.9" rx="1.6665" ry="1.9998"/>
        <ellipse cx="4344.2" cy="3604.9" rx="1.6665" ry="1.9998"/>
        <ellipse cx="4347.8" cy="3609.9" rx="1.6665" ry="1.9998"/>
       </g>
      </g>
     </g>
     <g transform="matrix(3.091,0,0,2.491,339.37,-17.09)">
      <title transform="translate(4439 3535.5)">background</title>
      <rect x="4368.7" y="3592.3" width="30" height="61" fill="none"/>
      <g display="none">
       <rect x="4369.7" y="3593.3" width="800" height="600" fill="url(#gridpattern)" stroke="null" stroke-width="0"/>
      </g>
     </g>
     <g transform="matrix(3.091,0,0,2.491,339.37,-17.09)">
      <title transform="translate(4439 3535.5)" stroke="null">Layer 1</title>
      <g stroke="#fff" stroke-width="0">
       <path d="m4380.3 3637.7 3.333-23.664 3.333 23.664z"/>
       <rect x="4382.3" y="3635.9" width="2.6664" height="7.9992"/>
       <g fill-opacity="null" stroke-opacity="null">
        <ellipse cx="4380" cy="3610.3" rx="1.6665" ry="1.9998"/>
        <ellipse cx="4383.6" cy="3605.3" rx="1.6665" ry="1.9998"/>
        <ellipse cx="4387.3" cy="3610.3" rx="1.6665" ry="1.9998"/>
       </g>
      </g>
     </g>
     <g transform="matrix(3.091,0,0,2.491,339.37,-17.09)">
      <title transform="translate(4439 3535.5)">background</title>
      <rect x="4388.4" y="3629.2" width="30" height="61" fill="none"/>
      <g display="none">
       <rect x="4389.4" y="3630.2" width="800" height="600" fill="url(#gridpattern)" stroke="null" stroke-width="0"/>
      </g>
     </g>
     <g transform="matrix(3.091,0,0,2.491,339.37,-17.09)">
      <title transform="translate(4439 3535.5)" stroke="null">Layer 1</title>
      <g stroke="#fff" stroke-width="0">
       <path d="m4400 3674.7 3.3329-23.664 3.333 23.664z"/>
       <rect x="4402" y="3672.9" width="2.6664" height="7.9992"/>
       <g fill-opacity="null" stroke-opacity="null">
        <ellipse cx="4399.7" cy="3647.2" rx="1.6665" ry="1.9998"/>
        <ellipse cx="4403.4" cy="3642.2" rx="1.6665" ry="1.9998"/>
        <ellipse cx="4407" cy="3647.2" rx="1.6665" ry="1.9998"/>
       </g>
      </g>
     </g>
     <g transform="matrix(3.091,0,0,2.491,339.37,-17.09)">
      <title transform="translate(4439 3535.5)">background</title>
      <rect x="4348.6" y="3629.2" width="30" height="61" fill="none"/>
      <g display="none">
       <rect x="4349.6" y="3630.2" width="800" height="600" fill="url(#gridpattern)" stroke="null" stroke-width="0"/>
      </g>
     </g>
     <g transform="matrix(3.091,0,0,2.491,339.37,-17.09)">
      <title transform="translate(4439 3535.5)" stroke="null">Layer 1</title>
      <g stroke="#fff" stroke-width="0">
       <path d="m4360.2 3674.7 3.333-23.664 3.333 23.664z"/>
       <rect x="4362.2" y="3672.9" width="2.6664" height="7.9992"/>
       <g fill-opacity="null" stroke-opacity="null">
        <ellipse cx="4360" cy="3647.2" rx="1.6665" ry="1.9998"/>
        <ellipse cx="4363.6" cy="3642.2" rx="1.6665" ry="1.9998"/>
        <ellipse cx="4367.2" cy="3647.2" rx="1.6665" ry="1.9998"/>
       </g>
      </g>
     </g>
     <g transform="matrix(3.091,0,0,2.491,339.37,-17.09)">
      <title transform="translate(4439 3535.5)">background</title>
      <rect x="4368.7" y="3669" width="30" height="61" fill="none"/>
      <g display="none">
       <rect x="4369.7" y="3670" width="800" height="600" fill="url(#gridpattern)" stroke="null" stroke-width="0"/>
      </g>
     </g>
     <g transform="matrix(3.091,0,0,2.491,339.37,-17.09)">
      <title transform="translate(4439 3535.5)" stroke="null">Layer 1</title>
      <g stroke="#fff" stroke-width="0">
       <path d="m4380.3 3714.4 3.333-23.664 3.333 23.664z"/>
       <rect x="4382.3" y="3712.6" width="2.6664" height="7.9992"/>
       <g fill-opacity="null" stroke-opacity="null">
        <ellipse cx="4380" cy="3687" rx="1.6665" ry="1.9998"/>
        <ellipse cx="4383.6" cy="3682" rx="1.6665" ry="1.9998"/>
        <ellipse cx="4387.3" cy="3687" rx="1.6665" ry="1.9998"/>
       </g>
      </g>
     </g>
     <g transform="matrix(3.091,0,0,2.491,339.37,-17.09)">
      <title transform="translate(4439 3535.5)">background</title>
      <rect x="4329.2" y="3669.4" width="30" height="61" fill="none"/>
      <g display="none">
       <rect x="4330.2" y="3670.4" width="800" height="600" fill="url(#gridpattern)" stroke="null" stroke-width="0"/>
      </g>
     </g>
     <g transform="matrix(3.091,0,0,2.491,339.37,-17.09)">
      <title transform="translate(4439 3535.5)" stroke="null">Layer 1</title>
      <g stroke="#fff" stroke-width="0">
       <path d="m4340.8 3714.8 3.333-23.664 3.333 23.664z"/>
       <rect x="4342.8" y="3713" width="2.6664" height="7.9992"/>
       <g fill-opacity="null" stroke-opacity="null">
        <ellipse cx="4340.5" cy="3687.4" rx="1.6665" ry="1.9998"/>
        <ellipse cx="4344.2" cy="3682.4" rx="1.6665" ry="1.9998"/>
        <ellipse cx="4347.8" cy="3687.4" rx="1.6665" ry="1.9998"/>
       </g>
      </g>
     </g>
     <g transform="matrix(3.091,0,0,2.491,339.37,-17.09)">
      <title transform="translate(4439 3535.5)">background</title>
      <rect x="4347.7" y="3705.9" width="30" height="61" fill="none"/>
      <g display="none">
       <rect x="4348.7" y="3706.9" width="800" height="600" fill="url(#gridpattern)" stroke="null" stroke-width="0"/>
      </g>
     </g>
     <g transform="matrix(3.091,0,0,2.491,339.37,-17.09)">
      <title transform="translate(4439 3535.5)" stroke="null">Layer 1</title>
      <g stroke="#fff" stroke-width="0">
       <path d="m4359.3 3751.4 3.333-23.664 3.333 23.664z"/>
       <rect x="4361.3" y="3749.6" width="2.6664" height="7.9992"/>
       <g fill-opacity="null" stroke-opacity="null">
        <ellipse cx="4359" cy="3723.9" rx="1.6665" ry="1.9998"/>
        <ellipse cx="4362.6" cy="3718.9" rx="1.6665" ry="1.9998"/>
        <ellipse cx="4366.3" cy="3723.9" rx="1.6665" ry="1.9998"/>
       </g>
      </g>
     </g>
     <g transform="matrix(3.091,0,0,2.491,339.37,-17.09)">
      <title transform="translate(4439 3535.5)">background</title>
      <rect x="4388.1" y="3706.3" width="30" height="61" fill="none"/>
      <g display="none">
       <rect x="4389.1" y="3707.3" width="800" height="600" fill="url(#gridpattern)" stroke="null" stroke-width="0"/>
      </g>
     </g>
     <g transform="matrix(3.091,0,0,2.491,339.37,-17.09)">
      <title transform="translate(4439 3535.5)" stroke="null">Layer 1</title>
      <g stroke="#fff" stroke-width="0">
       <path d="m4399.7 3751.8 3.333-23.664 3.333 23.664z"/>
       <rect x="4401.7" y="3750" width="2.6664" height="7.9992"/>
       <g fill-opacity="null" stroke-opacity="null">
        <ellipse cx="4399.4" cy="3724.3" rx="1.6665" ry="1.9998"/>
        <ellipse cx="4403" cy="3719.3" rx="1.6665" ry="1.9998"/>
        <ellipse cx="4406.7" cy="3724.3" rx="1.6665" ry="1.9998"/>
       </g>
      </g>
     </g>
     <g transform="matrix(3.091,0,0,2.491,339.37,-17.09)">
      <title transform="translate(4439 3535.5)">background</title>
      <rect x="4329.5" y="3519.6" width="30" height="61" fill="none"/>
      <g display="none">
       <rect x="4330.5" y="3520.6" width="800" height="600" fill="url(#gridpattern)" stroke="null" stroke-width="0"/>
      </g>
     </g>
     <g transform="matrix(3.091,0,0,2.491,339.37,-17.09)">
      <title transform="translate(4439 3535.5)" stroke="null">Layer 1</title>
      <g stroke="#fff" stroke-width="0">
       <path d="m4341.1 3565.1 3.333-23.664 3.333 23.664z"/>
       <rect x="4343.2" y="3563.3" width="2.6664" height="7.9992"/>
       <g fill-opacity="null" stroke-opacity="null">
        <ellipse cx="4340.9" cy="3537.6" rx="1.6665" ry="1.9998"/>
        <ellipse cx="4344.5" cy="3532.6" rx="1.6665" ry="1.9998"/>
        <ellipse cx="4348.2" cy="3537.6" rx="1.6665" ry="1.9998"/>
       </g>
      </g>
     </g>
     <g transform="matrix(3.091,0,0,2.491,339.37,-17.09)">
      <title transform="translate(4439 3535.5)">background</title>
      <rect x="4388.1" y="3555" width="30" height="61" fill="none"/>
      <g display="none">
       <rect x="4389.1" y="3556" width="800" height="600" fill="url(#gridpattern)" stroke="null" stroke-width="0"/>
      </g>
     </g>
     <g transform="matrix(3.091,0,0,2.491,339.37,-17.09)">
      <title transform="translate(4439 3535.5)" stroke="null">Layer 1</title>
      <g stroke="#fff" stroke-width="0">
       <path d="m4399.7 3600.4 3.333-23.664 3.333 23.664z"/>
       <rect x="4401.7" y="3598.6" width="2.6664" height="7.9992"/>
       <g fill-opacity="null" stroke-opacity="null">
        <ellipse cx="4399.4" cy="3572.9" rx="1.6665" ry="1.9998"/>
        <ellipse cx="4403" cy="3567.9" rx="1.6665" ry="1.9998"/>
        <ellipse cx="4406.7" cy="3572.9" rx="1.6665" ry="1.9998"/>
       </g>
      </g>
     </g>
     <g transform="matrix(3.091,0,0,2.491,339.37,-17.09)">
      <title transform="translate(4439 3535.5)">background</title>
      <rect x="4370.3" y="3519.6" width="30" height="61" fill="none"/>
      <g display="none">
       <rect x="4371.3" y="3520.6" width="800" height="600" fill="url(#gridpattern)" stroke="null" stroke-width="0"/>
      </g>
     </g>
     <g transform="matrix(3.091,0,0,2.491,339.37,-17.09)">
      <title transform="translate(4439 3535.5)" stroke="null">Layer 1</title>
      <g stroke="#fff" stroke-width="0">
       <path d="m4381.9 3565.1 3.333-23.664 3.3329 23.664z"/>
       <rect x="4383.9" y="3563.3" width="2.6664" height="7.9992"/>
       <g fill-opacity="null" stroke-opacity="null">
        <ellipse cx="4381.6" cy="3537.6" rx="1.6665" ry="1.9998"/>
        <ellipse cx="4385.3" cy="3532.6" rx="1.6665" ry="1.9998"/>
        <ellipse cx="4388.9" cy="3537.6" rx="1.6665" ry="1.9998"/>
       </g>
      </g>
     </g>
    </g>
   </g>
   <g transform="matrix(-1.3989 0 0 1.166 19765 -10275)">
    <title transform="translate(13864 8806.7)">Layer 1</title>
    <g stroke="null">
     <g transform="matrix(3.091,0,0,2.491,339.37,-17.09)">
      <title transform="translate(4485.5 3535.5)">background</title>
      <rect x="4395.1" y="3555" width="30" height="61" fill="none"/>
      <g display="none">
       <rect x="4396.1" y="3556" width="800" height="600" fill="url(#gridpattern)" stroke="null" stroke-width="0"/>
      </g>
     </g>
     <g transform="matrix(3.091,0,0,2.491,339.37,-17.09)">
      <title transform="translate(4485.5 3535.5)" stroke="null">Layer 1</title>
      <g stroke="#fff" stroke-width="0">
       <path d="m4406.7 3600.4 3.333-23.664 3.333 23.664z"/>
       <rect x="4408.7" y="3598.6" width="2.6664" height="7.9992"/>
       <g fill-opacity="null" stroke-opacity="null">
        <ellipse cx="4406.4" cy="3572.9" rx="1.6665" ry="1.9998"/>
        <ellipse cx="4410.1" cy="3567.9" rx="1.6665" ry="1.9998"/>
        <ellipse cx="4413.7" cy="3572.9" rx="1.6665" ry="1.9998"/>
       </g>
      </g>
     </g>
     <g transform="matrix(3.091,0,0,2.491,339.37,-17.09)">
      <title transform="translate(4485.5 3535.5)">background</title>
      <rect x="4375.7" y="3591.9" width="30" height="61" fill="none"/>
      <g display="none">
       <rect x="4376.7" y="3592.9" width="800" height="600" fill="url(#gridpattern)" stroke="null" stroke-width="0"/>
      </g>
     </g>
     <g transform="matrix(3.091,0,0,2.491,339.37,-17.09)">
      <title transform="translate(4485.5 3535.5)" stroke="null">Layer 1</title>
      <g stroke="#fff" stroke-width="0">
       <path d="m4387.3 3637.3 3.333-23.664 3.333 23.664z"/>
       <rect x="4389.3" y="3635.5" width="2.6664" height="7.9992"/>
       <g fill-opacity="null" stroke-opacity="null">
        <ellipse cx="4387" cy="3609.9" rx="1.6665" ry="1.9998"/>
        <ellipse cx="4390.6" cy="3604.9" rx="1.6665" ry="1.9998"/>
        <ellipse cx="4394.3" cy="3609.9" rx="1.6665" ry="1.9998"/>
       </g>
      </g>
     </g>
     <g transform="matrix(3.091,0,0,2.491,339.37,-17.09)">
      <title transform="translate(4485.5 3535.5)">background</title>
      <rect x="4415.2" y="3592.3" width="30" height="61" fill="none"/>
      <g display="none">
       <rect x="4416.2" y="3593.3" width="800" height="600" fill="url(#gridpattern)" stroke="null" stroke-width="0"/>
      </g>
     </g>
     <g transform="matrix(3.091,0,0,2.491,339.37,-17.09)">
      <title transform="translate(4485.5 3535.5)" stroke="null">Layer 1</title>
      <g stroke="#fff" stroke-width="0">
       <path d="m4426.8 3637.7 3.333-23.664 3.333 23.664z"/>
       <rect x="4428.8" y="3635.9" width="2.6664" height="7.9992"/>
       <g fill-opacity="null" stroke-opacity="null">
        <ellipse cx="4426.5" cy="3610.3" rx="1.6665" ry="1.9998"/>
        <ellipse cx="4430.1" cy="3605.3" rx="1.6665" ry="1.9998"/>
        <ellipse cx="4433.8" cy="3610.3" rx="1.6665" ry="1.9998"/>
       </g>
      </g>
     </g>
     <g transform="matrix(3.091,0,0,2.491,339.37,-17.09)">
      <title transform="translate(4485.5 3535.5)">background</title>
      <rect x="4434.9" y="3629.2" width="30" height="61" fill="none"/>
      <g display="none">
       <rect x="4435.9" y="3630.2" width="800" height="600" fill="url(#gridpattern)" stroke="null" stroke-width="0"/>
      </g>
     </g>
     <g transform="matrix(3.091,0,0,2.491,339.37,-17.09)">
      <title transform="translate(4485.5 3535.5)" stroke="null">Layer 1</title>
      <g stroke="#fff" stroke-width="0">
       <path d="m4446.5 3674.7 3.333-23.664 3.333 23.664z"/>
       <rect x="4448.5" y="3672.9" width="2.6664" height="7.9992"/>
       <g fill-opacity="null" stroke-opacity="null">
        <ellipse cx="4446.2" cy="3647.2" rx="1.6665" ry="1.9998"/>
        <ellipse cx="4449.9" cy="3642.2" rx="1.6665" ry="1.9998"/>
        <ellipse cx="4453.5" cy="3647.2" rx="1.6665" ry="1.9998"/>
       </g>
      </g>
     </g>
     <g transform="matrix(3.091,0,0,2.491,339.37,-17.09)">
      <title transform="translate(4485.5 3535.5)">background</title>
      <rect x="4395.1" y="3629.2" width="30" height="61" fill="none"/>
      <g display="none">
       <rect x="4396.1" y="3630.2" width="800" height="600" fill="url(#gridpattern)" stroke="null" stroke-width="0"/>
      </g>
     </g>
     <g transform="matrix(3.091,0,0,2.491,339.37,-17.09)">
      <title transform="translate(4485.5 3535.5)" stroke="null">Layer 1</title>
      <g stroke="#fff" stroke-width="0">
       <path d="m4406.7 3674.7 3.333-23.664 3.333 23.664z"/>
       <rect x="4408.7" y="3672.9" width="2.6664" height="7.9992"/>
       <g fill-opacity="null" stroke-opacity="null">
        <ellipse cx="4406.4" cy="3647.2" rx="1.6665" ry="1.9998"/>
        <ellipse cx="4410.1" cy="3642.2" rx="1.6665" ry="1.9998"/>
        <ellipse cx="4413.7" cy="3647.2" rx="1.6665" ry="1.9998"/>
       </g>
      </g>
     </g>
     <g transform="matrix(3.091,0,0,2.491,339.37,-17.09)">
      <title transform="translate(4485.5 3535.5)">background</title>
      <rect x="4415.2" y="3669" width="30" height="61" fill="none"/>
      <g display="none">
       <rect x="4416.2" y="3670" width="800" height="600" fill="url(#gridpattern)" stroke="null" stroke-width="0"/>
      </g>
     </g>
     <g transform="matrix(3.091,0,0,2.491,339.37,-17.09)">
      <title transform="translate(4485.5 3535.5)" stroke="null">Layer 1</title>
      <g stroke="#fff" stroke-width="0">
       <path d="m4426.8 3714.4 3.333-23.664 3.333 23.664z"/>
       <rect x="4428.8" y="3712.6" width="2.6664" height="7.9992"/>
       <g fill-opacity="null" stroke-opacity="null">
        <ellipse cx="4426.5" cy="3687" rx="1.6665" ry="1.9998"/>
        <ellipse cx="4430.1" cy="3682" rx="1.6665" ry="1.9998"/>
        <ellipse cx="4433.8" cy="3687" rx="1.6665" ry="1.9998"/>
       </g>
      </g>
     </g>
     <g transform="matrix(3.091,0,0,2.491,339.37,-17.09)">
      <title transform="translate(4485.5 3535.5)">background</title>
      <rect x="4375.7" y="3669.4" width="30" height="61" fill="none"/>
      <g display="none">
       <rect x="4376.7" y="3670.4" width="800" height="600" fill="url(#gridpattern)" stroke="null" stroke-width="0"/>
      </g>
     </g>
     <g transform="matrix(3.091,0,0,2.491,339.37,-17.09)">
      <title transform="translate(4485.5 3535.5)" stroke="null">Layer 1</title>
      <g stroke="#fff" stroke-width="0">
       <path d="m4387.3 3714.8 3.333-23.664 3.333 23.664z"/>
       <rect x="4389.3" y="3713" width="2.6664" height="7.9992"/>
       <g fill-opacity="null" stroke-opacity="null">
        <ellipse cx="4387" cy="3687.4" rx="1.6665" ry="1.9998"/>
        <ellipse cx="4390.6" cy="3682.4" rx="1.6665" ry="1.9998"/>
        <ellipse cx="4394.3" cy="3687.4" rx="1.6665" ry="1.9998"/>
       </g>
      </g>
     </g>
     <g transform="matrix(3.091,0,0,2.491,339.37,-17.09)">
      <title transform="translate(4485.5 3535.5)">background</title>
      <rect x="4394.1" y="3705.9" width="30" height="61" fill="none"/>
      <g display="none">
       <rect x="4395.1" y="3706.9" width="800" height="600" fill="url(#gridpattern)" stroke="null" stroke-width="0"/>
      </g>
     </g>
     <g transform="matrix(3.091,0,0,2.491,339.37,-17.09)">
      <title transform="translate(4485.5 3535.5)" stroke="null">Layer 1</title>
      <g stroke="#fff" stroke-width="0">
       <path d="m4405.7 3751.4 3.333-23.664 3.333 23.664z"/>
       <rect x="4407.8" y="3749.6" width="2.6664" height="7.9992"/>
       <g fill-opacity="null" stroke-opacity="null">
        <ellipse cx="4405.5" cy="3723.9" rx="1.6665" ry="1.9998"/>
        <ellipse cx="4409.1" cy="3718.9" rx="1.6665" ry="1.9998"/>
        <ellipse cx="4412.8" cy="3723.9" rx="1.6665" ry="1.9998"/>
       </g>
      </g>
     </g>
     <g transform="matrix(3.091,0,0,2.491,339.37,-17.09)">
      <title transform="translate(4485.5 3535.5)">background</title>
      <rect x="4434.6" y="3706.3" width="30" height="61" fill="none"/>
      <g display="none">
       <rect x="4435.6" y="3707.3" width="800" height="600" fill="url(#gridpattern)" stroke="null" stroke-width="0"/>
      </g>
     </g>
     <g transform="matrix(3.091,0,0,2.491,339.37,-17.09)">
      <title transform="translate(4485.5 3535.5)" stroke="null">Layer 1</title>
      <g stroke="#fff" stroke-width="0">
       <path d="m4446.2 3751.8 3.333-23.664 3.333 23.664z"/>
       <rect x="4448.2" y="3750" width="2.6664" height="7.9992"/>
       <g fill-opacity="null" stroke-opacity="null">
        <ellipse cx="4445.9" cy="3724.3" rx="1.6665" ry="1.9998"/>
        <ellipse cx="4449.5" cy="3719.3" rx="1.6665" ry="1.9998"/>
        <ellipse cx="4453.2" cy="3724.3" rx="1.6665" ry="1.9998"/>
       </g>
      </g>
     </g>
     <g transform="matrix(3.091,0,0,2.491,339.37,-17.09)">
      <title transform="translate(4485.5 3535.5)">background</title>
      <rect x="4376" y="3519.6" width="30" height="61" fill="none"/>
      <g display="none">
       <rect x="4377" y="3520.6" width="800" height="600" fill="url(#gridpattern)" stroke="null" stroke-width="0"/>
      </g>
     </g>
     <g transform="matrix(3.091,0,0,2.491,339.37,-17.09)">
      <title transform="translate(4485.5 3535.5)" stroke="null">Layer 1</title>
      <g stroke="#fff" stroke-width="0">
       <path d="m4387.6 3565.1 3.333-23.664 3.333 23.664z"/>
       <rect x="4389.6" y="3563.3" width="2.6664" height="7.9992"/>
       <g fill-opacity="null" stroke-opacity="null">
        <ellipse cx="4387.3" cy="3537.6" rx="1.6665" ry="1.9998"/>
        <ellipse cx="4391" cy="3532.6" rx="1.6665" ry="1.9998"/>
        <ellipse cx="4394.6" cy="3537.6" rx="1.6665" ry="1.9998"/>
       </g>
      </g>
     </g>
     <g transform="matrix(3.091,0,0,2.491,339.37,-17.09)">
      <title transform="translate(4485.5 3535.5)">background</title>
      <rect x="4434.6" y="3555" width="30" height="61" fill="none"/>
      <g display="none">
       <rect x="4435.6" y="3556" width="800" height="600" fill="url(#gridpattern)" stroke="null" stroke-width="0"/>
      </g>
     </g>
     <g transform="matrix(3.091,0,0,2.491,339.37,-17.09)">
      <title transform="translate(4485.5 3535.5)" stroke="null">Layer 1</title>
      <g stroke="#fff" stroke-width="0">
       <path d="m4446.2 3600.4 3.333-23.664 3.333 23.664z"/>
       <rect x="4448.2" y="3598.6" width="2.6664" height="7.9992"/>
       <g fill-opacity="null" stroke-opacity="null">
        <ellipse cx="4445.9" cy="3572.9" rx="1.6665" ry="1.9998"/>
        <ellipse cx="4449.5" cy="3567.9" rx="1.6665" ry="1.9998"/>
        <ellipse cx="4453.2" cy="3572.9" rx="1.6665" ry="1.9998"/>
       </g>
      </g>
     </g>
     <g transform="matrix(3.091,0,0,2.491,339.37,-17.09)">
      <title transform="translate(4485.5 3535.5)">background</title>
      <rect x="4416.8" y="3519.6" width="30" height="61" fill="none"/>
      <g display="none">
       <rect x="4417.8" y="3520.6" width="800" height="600" fill="url(#gridpattern)" stroke="null" stroke-width="0"/>
      </g>
     </g>
     <g transform="matrix(3.091,0,0,2.491,339.37,-17.09)">
      <title transform="translate(4485.5 3535.5)" stroke="null">Layer 1</title>
      <g stroke="#fff" stroke-width="0">
       <path d="m4428.4 3565.1 3.3329-23.664 3.333 23.664z"/>
       <rect x="4430.4" y="3563.3" width="2.6664" height="7.9992"/>
       <g fill-opacity="null" stroke-opacity="null">
        <ellipse cx="4428.1" cy="3537.6" rx="1.6665" ry="1.9998"/>
        <ellipse cx="4431.7" cy="3532.6" rx="1.6665" ry="1.9998"/>
        <ellipse cx="4435.4" cy="3537.6" rx="1.6665" ry="1.9998"/>
       </g>
      </g>
     </g>
    </g>
   </g>
  </g>
 </g>
 <path class="st0" d="M5,17h62v38H5V17Z" fill="none"/>
</svg>
