<svg data-name="レイヤー_1" version="1.1" viewBox="0 0 72 72" xmlns="http://www.w3.org/2000/svg" xmlns:xlink="http://www.w3.org/1999/xlink">
 <!-- Generator: Adobe Illustrator 29.4.0, SVG Export Plug-In . SVG Version: 2.1.0 Build 152)  -->
 <defs>
  <style>.st0 {
        fill: none;
        stroke: #000;
        stroke-linecap: round;
        stroke-linejoin: round;
        stroke-width: 2px;
      }</style>
  <clipPath id="clipPath120">
   <path class="st0" d="m0 24.237h500.67v306.86h-500.67z" fill="none"/>
  </clipPath>
 </defs>
 <g transform="matrix(.12383 0 0 .12383 5 13.999)" clip-path="url(#clipPath120)">
  <rect width="500.67" height="355.33" fill="#ff3"/>
  <g fill="#068e1d">
   <rect x="365" width="62" height="355.33"/>
   <rect x="73.667" width="62" height="355.33"/>
  </g>
  <g id="Culebra_1_" fill="#068e1d">
   <path id="_x36_067_1_" d="m264.73 156.16 1.838 0.368 4.777-3.922 0.613-0.612h0.612l4.782 2.572 1.225 0.613 11.887 6.495 0.611 0.735 7.229 5.759 7.107 1.96 8.456 11.028 1.717 9.681-2.942 0.735-4.779-1.961-3.677-2.694-5.39-3.186-1.105 0.612-2.451 1.348 6.496 19.36-1.101 0.613-6.008 3.922-1.839 1.226-1.837-0.612-1.226-1.348 1.226-1.839-0.613-5.271-2.326-1.225-3.063-1.347-1.716 0.611-1.839 1.349-3.554 1.225h-1.226l-2.939-1.225-1.838-1.96 1.226-1.349v-1.225l1.226-3.311v-1.226h-0.613l-0.612 0.613-2.451 3.186-1.838-0.612-1.719-3.187 1.226-0.734 2.943-1.226 0.613-0.612-0.613-2.573-2.943-0.734h-0.613l-4.776 1.347h-2.451l-0.613-0.734-1.226-0.612-2.328-1.963-1.226-2.572-1.104-1.347-5.514 3.919-8.946-1.961 0.612 6.496 2.332 1.839 0.613 1.96-1.839 2.573-1.106-0.613-4.777-0.612-1.226 0.612-1.225-0.612-2.451-1.348-0.491-0.612-7.843-8.457-1.225-8.455 0.124-1.96-1.225-1.838-2.451-1.347-4.169-1.961-6.002-3.309-2.329-3.187-6.618-11.029-2.207-3.921-2.571-4.534-7.233-9.681-1.101-1.961 1.226-0.612 5.883-0.613 1.226-0.612 3.063 5.76 1.101 0.734v1.226l1.226 3.31 3.554 4.533 3.064 1.839 6.005 1.96 2.326 1.349 1.838 4.533 1.838 3.187 1.718 1.348h4.165l1.226-0.612 1.838-1.348 0.981-3.677 2.083-7.843 1.716 0.613 4.167 5.392 1.839 2.328 6.003 1.103 5.395 0.858 1.225-0.612 1.226-1.226v-1.348l1.102-2.574 0.612-0.612 1.225-0.613 6.005 7.107 2.329 0.612z"/>
   <path id="_x36_088_1_" d="m243.66 193.29h4.777l6.005 1.226 6.005 3.923 0.612 0.735v1.225l-1.226 4.533-2.45 1.226-0.612 1.96h1.837l3.064-1.226 2.326-1.348 1.839-1.226 2.331 7.722-1.106 0.613h-1.838l-0.612 1.347 2.943 3.921-0.612 0.612-4.17-0.612-0.612 0.612-0.613 1.226 1.839 1.963 1.838 1.348-0.612 0.612-3.064 3.186h-1.226l-0.612-0.612-2.938-6.496-4.169-5.76-1.226-2.572-1.103-3.311-7.84-3.186-0.613-0.735-2.944-5.146 4.17-4.535z"/>
  </g>
 </g>
 <path class="st0" d="M5,17h62v38H5V17Z" fill="none"/>
</svg>
