<svg data-name="レイヤー_1" version="1.1" viewBox="0 0 72 72" xmlns="http://www.w3.org/2000/svg" xmlns:xlink="http://www.w3.org/1999/xlink">
 <!-- Generator: Adobe Illustrator 29.4.0, SVG Export Plug-In . SVG Version: 2.1.0 Build 152)  -->
 <defs>
  <style>.st0 {
        fill: none;
        stroke: #000;
        stroke-linecap: round;
        stroke-linejoin: round;
        stroke-width: 2px;
      }</style>
  <clipPath id="clipPath118">
   <path class="st0" d="m-0.5-0.5h600v400h-600z"/>
  </clipPath>
 </defs>
 <g transform="matrix(.10333 0 0 .095 5.0517 17.048)" clip-path="url(#clipPath118)">
  <rect x="-.5" y="-.5" width="600" height="400" fill="#ff0"/>
  <g fill="#960">
   <polygon points="345.91 199.5 -0.5 399.5 -0.5 -0.5"/>
   <rect x="-.5" y="133" width="600" height="133"/>
  </g>
  <g fill="#fff">
   <path d="m162.85 171.04c0.16 8.692 9.292 18.999 35.736 22.759v1.685c-7.256 0.314-13.625-1.612-19.794-4.052-20.668-10.876-37.169-5.607-51.495 8.078 14.326 13.687 30.827 18.954 51.495 8.079 6.169-2.44 12.538-4.368 19.794-4.053v1.672c-26.986 3.838-35.944 14.499-35.736 23.298 0.326 13.802 23.177 23.002 34.322-5.961-18.311 9.48-11.764-7.843 1.414-10.452v6.408h6.13v-10.292c7.872 3.474 11.136 7.734 15.08 11.871 0.021-4.715-0.872-9.414-4.9-14.284 12.43-0.082 16.678-1.899 20.854-6.279-4.045-4.33-8.411-6.33-20.854-6.316 4.028-4.87 4.921-9.557 4.9-14.271-3.944 4.138-7.208 8.386-15.08 11.859v-10.28h-6.13v6.418c-13.178-2.61-19.725-19.945-1.414-10.465-11.287-29.334-34.582-19.514-34.322-5.422z"/>
   <path d="m279.3 171.04c0.16 8.692 9.292 18.999 35.735 22.759v1.685c-7.256 0.314-13.624-1.612-19.793-4.052-20.668-10.876-37.169-5.607-51.495 8.078 14.326 13.687 30.827 18.955 51.495 8.08 6.169-2.441 12.537-4.369 19.793-4.053v1.672c-26.985 3.838-35.943 14.498-35.735 23.297 0.326 13.803 23.176 23.002 34.321-5.961-18.31 9.48-11.764-7.842 1.414-10.451v6.408h6.131v-10.293c7.873 3.475 11.137 7.734 15.08 11.871 0.021-4.715-0.871-9.414-4.9-14.283 12.43-0.082 16.678-1.9 20.854-6.279-4.045-4.33-8.41-6.33-20.854-6.316 4.029-4.87 4.922-9.557 4.9-14.271-3.943 4.138-7.209 8.386-15.08 11.859v-10.28h-6.131v6.418c-13.178-2.61-19.724-19.945-1.414-10.465-11.285-29.335-34.581-19.514-34.321-5.423z"/>
   <path d="m46.396 171.03c0.16 8.692 9.292 18.999 35.735 22.759v1.685c-7.256 0.314-13.625-1.612-19.793-4.052-20.668-10.876-37.169-5.607-51.495 8.078 14.326 13.686 30.827 18.954 51.495 8.079 6.169-2.439 12.538-4.367 19.793-4.053v1.672c-26.986 3.838-35.943 14.5-35.735 23.299 0.326 13.801 23.177 23.002 34.321-5.961-18.31 9.48-11.764-7.844 1.414-10.453v6.408h6.131v-10.291c7.872 3.473 11.136 7.734 15.08 11.871 0.021-4.715-0.872-9.414-4.9-14.285 12.43-0.082 16.678-1.898 20.854-6.278-4.045-4.33-8.41-6.33-20.854-6.316 4.028-4.87 4.921-9.557 4.9-14.271-3.944 4.138-7.209 8.386-15.08 11.859v-10.28h-6.131v6.418c-13.178-2.61-19.724-19.945-1.414-10.465-11.285-29.335-34.581-19.515-34.321-5.423z"/>
   <path d="m46.396 71.456c0.16 8.692 9.292 18.999 35.735 22.759v1.685c-7.256 0.314-13.625-1.612-19.793-4.052-20.668-10.876-37.169-5.608-51.495 8.078 14.326 13.686 30.827 18.954 51.495 8.079 6.169-2.439 12.538-4.367 19.793-4.053v1.672c-26.986 3.838-35.943 14.5-35.735 23.299 0.326 13.801 23.177 23.002 34.321-5.961-18.31 9.48-11.764-7.844 1.414-10.453v6.408h6.131v-10.291c7.872 3.473 11.136 7.734 15.08 11.871 0.021-4.715-0.872-9.414-4.9-14.285 12.43-0.082 16.678-1.898 20.854-6.278-4.045-4.33-8.41-6.33-20.854-6.316 4.028-4.87 4.921-9.557 4.9-14.271-3.944 4.138-7.209 8.386-15.08 11.859v-10.28h-6.131v6.418c-13.178-2.61-19.724-19.945-1.414-10.465-11.285-29.335-34.581-19.515-34.321-5.423z"/>
   <path d="m46.396 270.59c0.16 8.691 9.292 18.998 35.735 22.759v1.685c-7.256 0.314-13.625-1.611-19.793-4.053-20.668-10.875-37.169-5.607-51.495 8.078 14.326 13.687 30.827 18.954 51.495 8.079 6.169-2.439 12.538-4.367 19.793-4.053v1.672c-26.986 3.838-35.943 14.5-35.735 23.299 0.326 13.801 23.177 23.002 34.321-5.961-18.31 9.48-11.764-7.844 1.414-10.453v6.408h6.131v-10.291c7.872 3.473 11.136 7.734 15.08 11.871 0.021-4.715-0.872-9.414-4.9-14.285 12.43-0.082 16.678-1.898 20.854-6.278-4.045-4.33-8.41-6.33-20.854-6.316 4.028-4.869 4.921-9.557 4.9-14.271-3.944 4.139-7.209 8.387-15.08 11.859v-10.279h-6.131v6.418c-13.178-2.61-19.724-19.945-1.414-10.465-11.285-29.335-34.581-19.515-34.321-5.423z"/>
  </g>
 </g>
 <path class="st0" d="M5,17h62v38H5V17Z"/>
</svg>
