<svg data-name="レイヤー_1" version="1.1" viewBox="0 0 72 72" xmlns="http://www.w3.org/2000/svg">
 <!-- Generator: Adobe Illustrator 29.4.0, SVG Export Plug-In . SVG Version: 2.1.0 Build 152)  -->
 <defs>
  <style>.st0 {
        fill: none;
        stroke: #000;
        stroke-linecap: round;
        stroke-linejoin: round;
        stroke-width: 2px;
      }</style>
 </defs>
 <path class="st0" d="M5,17h62v38H5V17Z"/>
 <g transform="matrix(.10333 0 0 .095 5 17)">
  <rect width="600" height="400" fill="#fff"/>
  <polygon points="271.93 145.46 271.93 109.09 328.07 109.09 328.07 72.728 271.93 72.728 271.93 36.364 328.07 36.364 328.07 0 0 0 0 400 328.07 400 328.07 363.64 271.93 363.64 271.93 327.27 328.07 327.27 328.07 290.91 271.93 290.91 271.93 254.55 328.07 254.55 328.07 218.18 271.93 218.18 271.93 181.82 328.07 181.82 328.07 145.46" fill="#026e02"/>
  <path d="m118.95 255.17c0 8.626-1.745 11.683-5.242 11.651-9.794-0.085-1.513-20.109-15.56-20.232-4.394-0.038-7.615 2.025-8.877 5.982 4.683 0.999 9.223 3.202 9.155 10.927-0.044 5.104-3.938 12.654-4.013 21.23-0.063 7.124 4.158 12.371 11.375 12.434 5.699 0.05 10.095-2.071 13.709-4.841 2.556 13.749 13.388 17.628 16.465 23.149v-115.47l-17.012 17.013z" fill="#1f1a17"/>
  <path d="m43.642 216.46c-2.768 3.613-4.89 8.011-4.841 13.709 0.063 7.218 5.311 11.438 12.435 11.376 8.576-0.075 16.127-3.969 21.23-4.014 7.726-0.066 9.928 4.474 10.926 9.155 3.958-1.263 6.021-4.484 5.983-8.878-0.123-14.047-20.146-5.766-20.232-15.561-0.031-3.495 3.026-5.241 11.65-5.241h38.16l17.012-17.013h-115.47c5.52 3.078 9.399 13.91 23.147 16.467z" fill="#fff"/>
  <path d="m228.29 183.54c2.769-3.615 4.891-8.011 4.841-13.71-0.063-7.217-5.31-11.438-12.434-11.375-8.577 0.075-16.127 3.968-21.231 4.013-7.726 0.068-9.928-4.473-10.926-9.155-3.957 1.263-6.021 4.484-5.983 8.878 0.123 14.046 20.147 5.766 20.232 15.56 0.031 3.497-3.026 5.242-11.651 5.242h-38.16l-17.012 17.012h115.47c-5.519-3.077-9.399-13.909-23.147-16.465z" fill="#fff"/>
  <path d="m152.98 144.83c0-8.624 1.745-11.681 5.242-11.65 9.794 0.085 1.514 20.109 15.56 20.232 4.395 0.038 7.615-2.025 8.877-5.983-4.682-0.998-9.222-3.2-9.155-10.926 0.044-5.103 3.938-12.655 4.013-21.23 0.062-7.124-4.159-12.372-11.375-12.435-5.698-0.049-10.095 2.073-13.709 4.841-2.556-13.749-13.388-17.627-16.465-23.147v115.47l17.012-17.012z" fill="#1f1a17"/>
  <path d="m119.5 107.68c-3.614-2.768-8.011-4.89-13.709-4.841-7.217 0.063-11.438 5.311-11.375 12.435 0.075 8.576 3.969 16.127 4.013 21.23 0.068 7.726-4.472 9.928-9.155 10.926 1.263 3.958 4.483 6.021 8.877 5.983 14.047-0.123 5.767-20.146 15.56-20.232 3.497-0.031 5.242 3.026 5.242 11.65v38.16l17.012 17.012v-115.47c-3.077 5.521-13.909 9.399-16.465 23.148z" fill="#fff"/>
  <path d="m80.793 182.99c-8.624 0-11.681-1.745-11.65-5.242 0.085-9.794 20.109-1.514 20.232-15.56 0.038-4.394-2.025-7.615-5.983-8.878-0.998 4.683-3.2 9.223-10.926 9.155-5.103-0.044-12.655-3.938-21.23-4.013-7.124-0.063-12.372 4.158-12.435 11.375-0.049 5.699 2.073 10.095 4.841 13.71-13.749 2.556-17.627 13.388-23.147 16.464h115.47l-17.012-17.012h-38.16z" fill="#1f1a17"/>
  <path d="m135.96 315.47c3.077-5.521 13.909-9.4 16.465-23.149 3.614 2.77 8.011 4.891 13.709 4.841 7.217-0.063 11.438-5.31 11.375-12.434-0.075-8.576-3.969-16.127-4.013-21.23-0.067-7.725 4.473-9.928 9.155-10.927-1.263-3.957-4.483-6.021-8.877-5.982-14.046 0.123-5.766 20.147-15.56 20.232-3.497 0.031-5.242-3.025-5.242-11.651v-38.159l-17.012-17.013z" fill="#fff"/>
  <path d="m135.96 200 17.012 17.013h38.16c8.625 0 11.682 1.746 11.651 5.241-0.085 9.795-20.11 1.514-20.232 15.561-0.039 4.394 2.026 7.615 5.983 8.878 0.999-4.682 3.201-9.222 10.926-9.155 5.104 0.045 12.654 3.938 21.231 4.014 7.124 0.062 12.371-4.158 12.434-11.376 0.05-5.698-2.072-10.096-4.841-13.709 13.749-2.557 17.628-13.389 23.148-16.466h-115.47z" fill="#1f1a17"/>
 </g>
 <path class="st0" d="M5,17h62v38H5V17Z" fill="none"/>
</svg>
