<svg data-name="レイヤー_1" version="1.1" viewBox="0 0 72 72" xmlns="http://www.w3.org/2000/svg">
 <!-- Generator: Adobe Illustrator 29.4.0, SVG Export Plug-In . SVG Version: 2.1.0 Build 152)  -->
 <defs>
  <style>.st0 {
        fill: none;
        stroke: #000;
        stroke-linecap: round;
        stroke-linejoin: round;
        stroke-width: 2px;
      }</style>
 </defs>
 <path class="st0" d="m5 17h62v38h-62z"/>
 <g transform="matrix(.071429 0 0 .071429 30.643 30.786)">
  <g transform="matrix(1.3583 0 0 1.3583 -359 -193)">
   <rect x="294.16" width="344.88" height="391.67" fill="#fff" stroke-width="1.0843"/>
   <g fill="#224194">
    <g stroke-width="1.0843">
     <path d="m294.16 115s15.682-8.5 32.73-8.5c17.048 0 33.508 11.5 47.617 11.5s30.569-12 47.029-12 27.629 12 45.265 12c17.636 0 34.684-12 48.204-12s34.096 13 48.204 13 32.332-12.5 44.089-12.5c11.757 0 31.744 9 31.744 9v51.5s-11.169-11.5-28.805-11.5c-17.636 0-25.866 14.5-45.853 14.5-19.987 0-34.096-14.5-49.38-14.5s-28.217 15-45.853 15c-17.636 0-28.805-16-44.677-16s-36.447 15-49.968 15-30.569-14.5-45.265-14.5c-14.696 0-35.082 13.5-35.082 13.5z"/>
     <path d="m294.16 9s15.682-8.5 32.73-8.5c17.048 0 33.508 11.5 47.617 11.5s30.569-12 47.029-12c16.46 0 27.629 12 45.265 12 17.636 0 34.684-12 48.204-12s34.096 13 48.204 13 32.332-12.5 44.089-12.5 31.744 9 31.744 9v51.5s-11.169-11.5-28.805-11.5c-17.636 0-25.866 14.5-45.853 14.5-19.987 0-34.096-14.5-49.38-14.5s-28.217 15-45.853 15-28.805-16-44.677-16c-15.872 0-36.447 15-49.968 15s-30.569-14.5-45.265-14.5c-14.696 0-35.082 13.5-35.082 13.5z"/>
     <path d="m294.16 228s15.682-8.5 32.73-8.5c17.048 0 33.508 11.5 47.617 11.5s30.569-12 47.029-12 27.629 12 45.265 12c17.636 0 34.684-12 48.204-12s34.096 13 48.204 13 32.332-12.5 44.089-12.5c11.757 0 31.744 9 31.744 9v51.5s-11.169-11.5-28.805-11.5c-17.636 0-25.866 14.5-45.853 14.5-19.987 0-34.096-14.5-49.38-14.5s-28.217 15-45.853 15c-17.636 0-28.805-16-44.677-16s-36.447 15-49.968 15-30.569-14.5-45.265-14.5c-14.696 0-35.082 13.5-35.082 13.5z"/>
     <path d="m294.16 335s15.682-8.5 32.73-8.5c17.048 0 33.508 11.5 47.617 11.5s30.569-12 47.029-12c16.46 0 27.629 12 45.265 12 17.636 0 34.684-12 48.204-12s34.096 13 48.204 13 32.332-12.5 44.089-12.5 31.744 9 31.744 9v51.5s-11.169-11.5-28.805-11.5c-17.636 0-25.866 14.5-45.853 14.5-19.987 0-34.096-14.5-49.38-14.5s-28.217 15-45.853 15-28.805-16-44.677-16c-15.872 0-36.447 15-49.968 15s-30.569-14.5-45.265-14.5c-14.696 0-35.082 13.5-35.082 13.5z"/>
    </g>
    <rect x="294.16" y="347.33" width="344.88" height="44.34" stroke-width="1.0843"/>
    <rect x="294.16" width="344.88" height="38.666" stroke-width="1.0843"/>
   </g>
   <rect width="296.5" height="391.67" fill="#016a42"/>
   <g id="flama">
    <path d="m91 129.5c-4.9936-0.20459-6.7134-5.9814-5-9.9443 3.041-7.0347 11.5-11.489 11.498-19.818-9.8e-4 -7.1465-5.6768-13.271-9.5107-18.787-2.502-3.5991-6.9873-6.6592-3.0801-13.981-9.3438 4.7935 1.0718 17.627-6.6133 23.504 1.103-5.4092 1.5244-9.418-0.29395-12.474-1.9399-3.2602-4.2026-6.6699-6.4868-9.5137-2.4268-3.0215-4.5742-5.4756-3.8188-9.7363 0.65137-3.6733 3.7715-8.0107 6.7051-10.274-2.9336 2.2632-6.5098 3.1152-9.4004 5.7681-2.8906 2.6533-5.6982 5.8745-5.2549 10.012 0.35107 3.2759 2.9565 4.7822 4.0674 7.7383 1.6411 4.3686-0.48682 8.8931-2.5737 12.68 0.01172-4.1919 0.83887-7.0342-2.4194-10.224-2.1509-2.106-6.7227-4.0361-9.355-2.2012 6.6294-0.54346-0.02393 7.1865-1.4585 8.7461-3.625 3.9409-6.7632 8.314-8.2549 13.505-2.5142 8.7485-3.4165 26.166 36.396 33.964 3.3882 0.66357 10.722 2.8022 14.104 1.5361z" fill="#fff"/>
    <path d="m86.362 127.34c-3.1094-0.82568-5.7246-5.3857-4.0967-9.1504 2.8887-6.6831 10.354-8.3799 11.873-18.827 0.83252-5.7241-3.8467-11.671-7.4888-16.91-2.377-3.419-3.4199-4.0376-4.0967-7.4814-0.71289 5.7002 2.6812 15.913-7.0566 19.416 1.0478-5.1387 1.1338-12.534-0.59375-15.438-1.8428-3.0977-3.2798-5.624-5.4497-8.3257-2.3057-2.8706-4.3457-6.1519-3.6279-10.2 0.61865-3.4893 0.61865-3.1836 0.61865-3.1836s-3.8433 4.4819-3.4214 8.4146c0.3335 3.1118 2.8086 6.4429 3.8643 9.251 1.5586 4.1504-5.5913 11.494-7.5737 15.091 0.01123-3.9824 1.8408-9.4116-1.9199-13.708-1.1934-1.728-2.3159-1.728-2.3159-1.728 2.2671 1.2964-3.352 7.2808-4.7153 8.7622-3.4434 3.7436-5.5415 6.2373-7.2837 11.063-1.0288 2.8496-4.8291 22.483 32.676 30.366 3.21 0.67432 10.608 2.5874 10.608 2.5874z" fill="#f00002"/>
   </g>
   <g id="flama_2_">
    <path d="m240 129.5c-4.9936-0.20459-6.7134-5.9814-5-9.9443 3.041-7.0347 11.5-11.489 11.498-19.818-9.8e-4 -7.1465-5.6768-13.271-9.5107-18.787-2.502-3.5991-6.9873-6.6592-3.0801-13.981-9.3438 4.7935 1.0718 17.627-6.6133 23.504 1.103-5.4092 1.5244-9.418-0.29395-12.474-1.9399-3.2602-4.2026-6.6699-6.4868-9.5137-2.4268-3.0215-4.5742-5.4756-3.8188-9.7363 0.65137-3.6733 3.7715-8.0107 6.7051-10.274-2.9336 2.2632-6.5098 3.1152-9.4004 5.7681-2.8906 2.6533-5.6982 5.8745-5.2549 10.012 0.35107 3.2759 2.9565 4.7822 4.0674 7.7383 1.6411 4.3686-0.48682 8.8931-2.5737 12.68 0.0117-4.1919 0.83887-7.0342-2.4194-10.224-2.1509-2.106-6.7227-4.0361-9.355-2.2012 6.6294-0.54346-0.0239 7.1865-1.4585 8.7461-3.625 3.9409-6.7632 8.314-8.2549 13.505-2.5142 8.7485-3.4165 26.166 36.396 33.964 3.3882 0.66357 10.722 2.8022 14.104 1.5361z" fill="#fff"/>
    <path d="m235.36 127.34c-3.1094-0.82568-5.7246-5.3857-4.0967-9.1504 2.8887-6.6831 10.354-8.3799 11.873-18.827 0.83252-5.7241-3.8467-11.671-7.4888-16.91-2.377-3.419-3.4199-4.0376-4.0967-7.4814-0.71289 5.7002 2.6812 15.913-7.0566 19.416 1.0478-5.1387 1.1338-12.534-0.59375-15.438-1.8428-3.0977-3.2798-5.624-5.4497-8.3257-2.3057-2.8706-4.3457-6.1519-3.6279-10.2 0.61865-3.4893 0.61865-3.1836 0.61865-3.1836s-3.8433 4.4819-3.4214 8.4146c0.3335 3.1118 2.8086 6.4429 3.8643 9.251 1.5586 4.1504-5.5913 11.494-7.5737 15.091 0.0112-3.9824 1.8408-9.4116-1.9199-13.708-1.1934-1.728-2.3159-1.728-2.3159-1.728 2.2671 1.2964-3.352 7.2808-4.7153 8.7622-3.4434 3.7436-5.5415 6.2373-7.2837 11.063-1.0288 2.8496-4.8291 22.483 32.676 30.366 3.21 0.67432 10.608 2.5874 10.608 2.5874z" fill="#f00002"/>
   </g>
   <g id="flama_5_">
    <path d="m91 319.5c-4.9936-0.20508-6.7134-5.9814-5-9.9443 3.041-7.0342 11.5-11.489 11.498-19.817-9.8e-4 -7.1465-5.6768-13.271-9.5107-18.787-2.502-3.5996-6.9873-6.6592-3.0801-13.98-9.3438 4.793 1.0718 17.627-6.6133 23.504 1.103-5.4102 1.5244-9.418-0.29395-12.475-1.9399-3.2598-4.2026-6.6699-6.4868-9.5137-2.4268-3.0215-4.5742-5.4756-3.8188-9.7363 0.65137-3.6738 3.7715-8.0107 6.7051-10.273-2.9336 2.2627-6.5098 3.1152-9.4004 5.7676-2.8906 2.6533-5.6982 5.875-5.2549 10.012 0.35107 3.2754 2.9565 4.7822 4.0674 7.7383 1.6411 4.3691-0.48682 8.8926-2.5737 12.68 0.01172-4.1914 0.83887-7.0332-2.4194-10.224-2.1509-2.1064-6.7227-4.0361-9.355-2.2012 6.6294-0.54395-0.02393 7.1865-1.4585 8.7461-3.625 3.9404-6.7632 8.3135-8.2549 13.505-2.5142 8.748-3.4165 26.166 36.396 33.964 3.3882 0.66309 10.722 2.8018 14.104 1.5361z" fill="#fff"/>
    <path d="m86.362 317.34c-3.1094-0.8252-5.7246-5.3857-4.0967-9.1504 2.8887-6.6826 10.354-8.3799 11.873-18.827 0.83252-5.7246-3.8467-11.671-7.4888-16.91-2.377-3.419-3.4199-4.0371-4.0967-7.4814-0.71289 5.7002 2.6812 15.913-7.0566 19.416 1.0478-5.1387 1.1338-12.534-0.59375-15.438-1.8428-3.0977-3.2798-5.624-5.4497-8.3252-2.3057-2.8711-4.3457-6.1523-3.6279-10.2 0.61865-3.4893 0.61865-3.1836 0.61865-3.1836s-3.8433 4.4814-3.4214 8.415c0.3335 3.1113 2.8086 6.4424 3.8643 9.25 1.5586 4.1504-5.5913 11.494-7.5737 15.092 0.01123-3.9824 1.8408-9.4121-1.9199-13.708-1.1934-1.7275-2.3159-1.7275-2.3159-1.7275 2.2671 1.2959-3.352 7.2803-4.7153 8.7617-3.4434 3.7441-5.5415 6.2373-7.2837 11.063-1.0288 2.8496-4.8291 22.483 32.676 30.366 3.21 0.67384 10.608 2.5869 10.608 2.5869z" fill="#f00002"/>
   </g>
   <g id="flama_4_">
    <path d="m240 319.5c-4.9936-0.20508-6.7134-5.9814-5-9.9443 3.041-7.0342 11.5-11.489 11.498-19.817-9.8e-4 -7.1465-5.6768-13.271-9.5107-18.787-2.502-3.5996-6.9873-6.6592-3.0801-13.98-9.3438 4.793 1.0718 17.627-6.6133 23.504 1.103-5.4102 1.5244-9.418-0.29395-12.475-1.9399-3.2598-4.2026-6.6699-6.4868-9.5137-2.4268-3.0215-4.5742-5.4756-3.8188-9.7363 0.65137-3.6738 3.7715-8.0107 6.7051-10.273-2.9336 2.2627-6.5098 3.1152-9.4004 5.7676-2.8906 2.6533-5.6982 5.875-5.2549 10.012 0.35107 3.2754 2.9565 4.7822 4.0674 7.7383 1.6411 4.3691-0.48682 8.8926-2.5737 12.68 0.0117-4.1914 0.83887-7.0332-2.4194-10.224-2.1509-2.1064-6.7227-4.0361-9.355-2.2012 6.6294-0.54395-0.0239 7.1865-1.4585 8.7461-3.625 3.9404-6.7632 8.3135-8.2549 13.505-2.5142 8.748-3.4165 26.166 36.396 33.964 3.3882 0.66309 10.722 2.8018 14.104 1.5361z" fill="#fff"/>
    <path d="m235.36 317.34c-3.1094-0.8252-5.7246-5.3857-4.0967-9.1504 2.8887-6.6826 10.354-8.3799 11.873-18.827 0.83252-5.7246-3.8467-11.671-7.4888-16.91-2.377-3.419-3.4199-4.0371-4.0967-7.4814-0.71289 5.7002 2.6812 15.913-7.0566 19.416 1.0478-5.1387 1.1338-12.534-0.59375-15.438-1.8428-3.0977-3.2798-5.624-5.4497-8.3252-2.3057-2.8711-4.3457-6.1523-3.6279-10.2 0.61865-3.4893 0.61865-3.1836 0.61865-3.1836s-3.8433 4.4814-3.4214 8.415c0.3335 3.1113 2.8086 6.4424 3.8643 9.25 1.5586 4.1504-5.5913 11.494-7.5737 15.092 0.0112-3.9824 1.8408-9.4121-1.9199-13.708-1.1934-1.7275-2.3159-1.7275-2.3159-1.7275 2.2671 1.2959-3.352 7.2803-4.7153 8.7617-3.4434 3.7441-5.5415 6.2373-7.2837 11.063-1.0288 2.8496-4.8291 22.483 32.676 30.366 3.21 0.67384 10.608 2.5869 10.608 2.5869z" fill="#f00002"/>
   </g>
  </g>
  <g id="cruz" transform="matrix(1.3583 0 0 1.3583 -359 -193)">
   <path d="m147.5 22v345h-34.5s18.5-10.125 18.5-23v-134h-78c-15 0-30 19-30 19v-71s13.875 20 30 20h78v-129c0-20.375-18.5-27-18.5-27z" fill="#fff"/>
   <path d="m147.5 22v345h34.5s-18.5-10.125-18.5-23v-134h78c15 0 30 19 30 19v-71s-13.875 20-30 20h-78v-129c0-20.375 18.5-27 18.5-27z" fill="#fff"/>
   <path d="m241.5 189h-88v-140c0-18.213 10-23.5 10-23.5h-32s10 5.2871 10 23.5v140h-88c-17.954 0-24.5-11-24.5-11v32s8.9995-10 24.5-10h88v144c0 15.5-10 18-10 18h32s-10-2.5-10-18v-144h88c15.5 0 24.5 10 24.5 10v-32s-6.5464 11-24.5 11z" fill="#f00002"/>
  </g>
 </g>
 <path class="st0" d="m5 17h62v38h-62z"/>
</svg>
