<svg data-name="レイヤー_1" version="1.1" viewBox="0 0 72 72" xmlns="http://www.w3.org/2000/svg">
 <!-- Generator: Adobe Illustrator 29.4.0, SVG Export Plug-In . SVG Version: 2.1.0 Build 152)  -->
 <defs>
  <style>.st0 {
        fill: none;
        stroke: #000;
        stroke-linecap: round;
        stroke-linejoin: round;
        stroke-width: 2px;
      }</style>
 </defs>
 <path class="st0" d="m5 17h62v38h-62z"/>
 <g transform="matrix(.21491 0 0 .19792 30.359 27.688)">
  <rect x="-118" y="-54" width="288" height="192" fill="#fff"/>
  <path d="m109.3 121.8c-9.6-6.6-17.8 5.2-27.399-1.399-9.601-6.601-1.4-18.5-11-25.101-9.601-6.6-17.801 5.2-27.4-1.399-9.6-6.601-1.4-18.5-11-25.101-9.6-6.6-17.8 5.2-27.4-1.399-9.6-6.601-1.4-18.5-11-25.101-9.6-6.6-17.8 5.2-27.4-1.4s-1.4-18.5-11-25.1-17.8 5.2-27.4-1.4-1.4-18.5-11-25.1-17.8 5.2-27.3-1.4c-8.201-5.9-2.701-15.9-8.001-22.7v172.8h233.1c-0.8-5.7 0.2-12-5.8-16.2z" fill="#008001"/>
  <path d="m-90.1-54c0.6 0.7 1.3 1.3 2.2 1.9 9.6 6.6 17.8-5.2 27.4 1.4s1.4 18.5 11 25.1 17.8-5.2 27.3 1.4c9.6 6.6 1.4 18.5 11 25.1s17.8-5.2 27.4 1.4 1.4 18.5 11 25.1 17.8-5.2 27.399 1.4c9.601 6.6 1.4 18.5 11 25.101 9.601 6.6 17.801-5.2 27.4 1.399 9.6 6.601 1.4 18.5 11 25.101 9.6 6.6 17.8-5.2 27.4 1.399 9.6 6.601 1.399 18.5 11 25.101 9.6 6.6 17.8-5.2 27.399 1.399 0.2 0.2 0.4 0.3 0.7 0.5v-162.8z" fill="#fe0000"/>
 </g>
 <path class="st0" d="M5,17h62v38H5V17Z" fill="none"/>
</svg>
