<svg data-name="レイヤー_1" version="1.1" viewBox="0 0 72 72" xmlns="http://www.w3.org/2000/svg">
 <!-- Generator: Adobe Illustrator 29.4.0, SVG Export Plug-In . SVG Version: 2.1.0 Build 152)  -->
 <defs>
  <style>.st0 {
        fill: none;
        stroke: #000;
        stroke-linecap: round;
        stroke-linejoin: round;
        stroke-width: 2px;
      }</style>
 </defs>
 <path class="st0" d="m5 17h62v38h-62z"/>
 <g transform="matrix(.10333 0 0 .095 5.0517 17.048)">
  <g id="BG">
   <rect x="-.5" y="-.5" width="600" height="133.33" fill="#089948"/>
   <rect x="-.5" y="132.83" width="600" height="133.33" fill="#653614"/>
   <rect x="-.5" y="266.17" width="600" height="133.33" fill="#3299cc"/>
  </g>
  <path d="m387.51 227.21c5.979-2.617 10.171-8.583 10.171-15.517 0-6.937-4.194-12.9-10.176-15.52 4.726-4.505 6.625-11.546 4.254-18.062-2.311-6.333-8.196-10.684-14.86-11.104 0.931-1.873 1.522-3.917 1.711-6.063 0.396-4.507-0.99-8.897-3.896-12.36-3.229-3.845-7.957-6.052-12.981-6.052-1.63 0-3.237 0.25-4.782 0.706 0.235-2.081 0.094-4.206-0.467-6.289-1.17-4.371-3.973-8.023-7.891-10.282-2.572-1.487-5.497-2.273-8.457-2.273-5.99 0-11.573 3.199-14.605 8.354l-0.619 0.026c1.376-2.315 2.449-4.83 3.165-7.502 2.045-7.632 0.996-15.605-2.955-22.448-5.267-9.125-15.093-14.793-25.64-14.793-5.166 0-10.273 1.373-14.769 3.968-14.125 8.153-18.979 26.279-10.827 40.406 0.063 0.113 0.141 0.22 0.206 0.332l-0.588 0.056c-3.022-5.182-8.624-8.399-14.635-8.399-2.96 0-5.885 0.784-8.456 2.271-3.917 2.261-6.721 5.911-7.891 10.282-0.561 2.083-0.702 4.208-0.467 6.29-1.544-0.457-3.153-0.707-4.783-0.707-5.024 0-9.755 2.206-12.979 6.051-2.905 3.463-4.295 7.853-3.897 12.361 0.188 2.146 0.776 4.189 1.71 6.063-6.664 0.419-12.558 4.77-14.861 11.104-2.371 6.516-0.472 13.558 4.252 18.063-5.979 2.617-10.172 8.583-10.172 15.521 0 6.931 4.19 12.896 10.168 15.514-1.516 1.441-2.771 3.16-3.683 5.113-1.91 4.101-2.111 8.701-0.564 12.953 2.31 6.334 8.199 10.687 14.866 11.104-2.897 5.85-2.274 13.111 2.183 18.421 3.229 3.847 7.957 6.052 12.981 6.052 1.629 0 3.237-0.248 4.781-0.705-0.235 2.08-0.095 4.207 0.466 6.289 1.172 4.368 3.974 8.021 7.892 10.283 2.572 1.484 5.496 2.271 8.456 2.271 3.673 0 7.189-1.207 10.063-3.323 0.488 2.034 1.352 3.981 2.588 5.749 2.596 3.705 6.479 6.18 10.934 6.965 0.979 0.173 1.971 0.259 2.954 0.259 5.832 0 11.041-2.967 14.098-7.579 3.054 4.612 8.262 7.579 14.094 7.579 0.982 0 1.979-0.086 2.955-0.259 4.454-0.785 8.338-3.26 10.932-6.965 1.237-1.768 2.103-3.715 2.59-5.75 2.873 2.117 6.393 3.324 10.063 3.324 2.959 0 5.884-0.787 8.456-2.271 3.918-2.262 6.72-5.915 7.892-10.283 0.562-2.084 0.701-4.209 0.467-6.289 1.544 0.457 3.152 0.705 4.782 0.705 5.021 0 9.752-2.205 12.979-6.052 4.457-5.31 5.081-12.573 2.184-18.421 6.667-0.418 12.56-4.771 14.864-11.105 1.548-4.25 1.348-8.851-0.565-12.949-0.922-1.952-2.178-3.673-3.691-5.113z" fill="#f6eb14"/>
  <circle cx="299.5" cy="211.52" r="64.685" fill="#f6eb14" stroke="#000" stroke-width="2"/>
  <g fill="#f6eb14" stroke="#000" stroke-width="2">
   <path d="m364.18 211.52c0-24.117-13.209-45.137-32.777-56.259-18.837 9.273-31.907 29.502-31.907 52.979 0 25.969 15.986 47.967 38.089 55.553 16.115-11.766 26.595-30.791 26.595-52.273z"/>
   <path d="m299.5 208.24c0-23.479-13.067-43.708-31.907-52.98-19.565 11.123-32.774 32.143-32.774 56.26 0 21.481 10.479 40.508 26.599 52.271 22.095-7.585 38.082-29.583 38.082-55.551z"/>
  </g>
  <g fill="#f6eb14" stroke="#000" stroke-width="2">
   <circle cx="380.74" cy="211.69" r="11.936"/>
   <circle cx="218.26" cy="211.69" r="11.937"/>
   <circle cx="375.84" cy="183.9" r="11.936"/>
   <circle cx="223.16" cy="239.48" r="11.937"/>
   <circle cx="361.73" cy="159.47" r="11.936"/>
   <circle cx="237.27" cy="263.91" r="11.936"/>
   <circle cx="340.12" cy="141.33" r="11.936"/>
   <circle cx="258.88" cy="282.05" r="11.937"/>
   <circle cx="285.39" cy="291.7" r="11.937"/>
   <circle cx="313.61" cy="291.7" r="11.937"/>
   <circle cx="258.88" cy="141.33" r="11.936"/>
   <circle cx="299.5" cy="117.62" r="24.58"/>
   <circle cx="340.12" cy="282.05" r="11.937"/>
   <circle cx="237.26" cy="159.47" r="11.936"/>
   <circle cx="361.73" cy="263.91" r="11.937"/>
   <circle cx="223.16" cy="183.9" r="11.936"/>
   <circle cx="375.84" cy="239.48" r="11.936"/>
  </g>
  <circle cx="260.61" cy="190.77" r="8.085"/>
  <circle cx="338.39" cy="190.77" r="8.085"/>
  <ellipse cx="299.5" cy="260.85" rx="19.64" ry="8.471"/>
 </g>
 <path class="st0" d="m5 17h62v38h-62z"/>
</svg>
