<svg data-name="レイヤー_1" version="1.1" viewBox="0 0 72 72" xmlns="http://www.w3.org/2000/svg">
 <!-- Generator: Adobe Illustrator 29.4.0, SVG Export Plug-In . SVG Version: 2.1.0 Build 152)  -->
 <defs>
  <style>.st0 {
        fill: none;
        stroke: #000;
        stroke-linecap: round;
        stroke-linejoin: round;
        stroke-width: 2px;
      }</style>
  <clipPath id="clipPath364">
   <path class="st0" d="m-113.61-45h292.66v179.38h-292.66z" fill="none"/>
  </clipPath>
 </defs>
 <g transform="matrix(.21185 0 0 .21185 29.069 26.533)" clip-path="url(#clipPath364)">
  <rect x="-118.22" y="-45" width="301.88" height="179.38" fill="#fff"/>
  <g transform="matrix(1 0 0 1.0097 -117.8 -50.449)" fill="#00f">
   <rect x="-.26" y="30.006" width="301.87" height="26.25"/>
   <rect x="-.572" y="81.256" width="301.88" height="26.25"/>
   <rect x="-1.197" y="132.51" width="301.88" height="26.249"/>
  </g>
  <polygon transform="translate(-117.59 -45)" points="215.89 87.417 152.81 153.86 86.873 90.307 149.95 23.861" fill="#008000"/>
  <rect x="11.728" y="57.516" width="45.991" height="20.219" fill="#c8a30d"/>
  <path d="m11.619 57.451c0.094-0.037 0.648-0.094 1.232-0.127 1.323-0.072 1.396-0.113 1.525-0.865 0.264-1.527 2.898-23.178 2.898-23.82 0-0.298 0.013-0.313 0.285-0.313 0.458 0 0.795-0.158 0.904-0.426 0.055-0.133 0.101-0.584 0.103-1.001 3e-3 -0.941 0.146-0.584-2.535-6.287l-2.116-4.5-0.026-5.014c-0.014-2.758-2e-3 -5.216 0.027-5.465l0.054-0.45h4.833l0.044 6.642h2.977l0.044-6.814h5.612v6.684h3.743v-7.028h6.888v6.685h2.976v-6.17h6.04v6.685h2.379v-6.685h5.103l-0.043 3.279c-0.077 5.992-0.117 7.82-0.179 8.035-0.031 0.119-0.785 1.796-1.674 3.729-2.635 5.739-2.668 5.836-2.592 6.923 0.032 0.437 0.073 0.534 0.365 0.834 0.182 0.188 0.396 0.362 0.479 0.389 0.082 0.026 0.188 0.17 0.232 0.322 0.133 0.411 0.577 3.706 1.668 12.36 1.557 12.371 1.498 11.924 1.727 12.104 0.098 0.075 0.541 0.106 1.522 0.106 1.177 0 1.388 0.021 1.388 0.127 0 0.114-2.613 0.131-23.027 0.125-12.663 6e-3 -22.949-0.025-22.856-0.064z" fill="#c8a30d"/>
  <path d="m20.286 43.301c0.279-5.183 1.832-9.695 3.677-10.688 0.646-0.347 0.815-0.359 1.431-0.105 0.918 0.38 2.168 2.318 2.882 4.467 0.607 1.83 1.415 6.218 1.415 7.688v0.945h-9.528z"/>
  <path d="m40.729 42.982c0.278-5.279 1.831-9.875 3.677-10.885 0.646-0.354 0.814-0.366 1.432-0.107 0.918 0.387 2.168 2.361 2.881 4.55 0.607 1.864 1.414 6.333 1.414 7.831v0.962h-9.528z"/>
  <g transform="translate(339.36 -5.3969)" fill="none" stroke="#000">
   <path d="m-310.91 82.436c0-5.215-0.037-14.847 0.12-14.827"/>
   <path d="m-297.47 82.373v-15.645"/>
   <path d="m-310.79 67.991c0.297-7.169 12.027-6.668 13.314-1.262 0.186 0.779-0.143 0.88-0.143 0.88" stroke-width=".9781"/>
  </g>
  <g fill="none" stroke="#000">
   <path d="m28.12 76.879h14.19" stroke-width="1.1844"/>
   <path d="m13.969 20.17v-10.662h4.184v6.601h4.009v-6.77h4.882v6.601h4.707v-6.94h6.103v6.601h4.01v-6.093h5.229v6.601l3.383-0.034v-6.566h4.287v10.154"/>
   <path d="m10.756 77.382h47.198"/>
  </g>
  <g transform="translate(-226.04 -369.62)" fill="none" stroke="#000">
   <path d="m283.5 426.66v20.346"/>
   <path d="m280.54 426.76-3.045-24.424-1.354-1.286" stroke-width=".9744"/>
   <path d="m280.07 426.59h3.897" stroke-width=".9476"/>
   <path d="m276.18 401.53v-2.663" stroke-width=".8914"/>
   <path d="m276.06 399.28c0.303-0.014 4.738-9.715 4.737-10.089" stroke-width="1.0507"/>
  </g>
  <g fill="none" stroke="#000">
   <path d="m11.266 57.037v20.344"/>
   <path d="m14.223 57.137 3.046-24.421 1.354-1.286" stroke-width=".9744"/>
   <path d="m14.694 56.967h-3.898" stroke-width=".9476"/>
   <path d="m18.588 31.912v-2.663" stroke-width=".8914"/>
   <path d="m18.588 29.905c0.408-0.626-4.783-9.394-4.619-9.968" stroke-width="1.0507"/>
   <path d="m14.92 51.454h38.671" stroke-width="1.0512"/>
   <path d="m16.557 38.426h35.596" stroke-width="1.0248"/>
   <path d="m17.559 32.333h33.578" stroke-width="1.0256"/>
   <path d="m10.796 57.043h46.667" stroke-width="1.0076"/>
   <path d="m11.266 70.094h17.001" stroke-width=".7448"/>
   <path d="m11.477 64.207h17.503" stroke-width=".8088"/>
   <path d="m17.335 26.241h34.29" stroke-width="1.065"/>
   <path d="m34.877 45.427v6.093"/>
   <path d="m34.867 31.992v6.033" stroke-width="1.0109"/>
   <path d="m15.146 22.071h38.414" stroke-width=".9613"/>
   <path d="m44.015 26.163v6.033" stroke-width="1.0109"/>
   <path d="m25.398 25.825v6.033" stroke-width="1.0109"/>
   <path d="m25.06 26.133-4.062-4.223" stroke-width=".9797"/>
   <path d="m43.676 26.133 4.062-4.062"/>
   <g stroke-width=".9439">
    <path d="m28.106 51.475v5.428"/>
    <path d="m41.984 51.514v5.428"/>
    <path d="m47.4 45.42v6.094"/>
   </g>
   <path d="m22.352 45.42v6.055" stroke-width=".9969"/>
   <path d="m47.569 57.1v6.571" stroke-width=".8317"/>
   <path d="m22.352 56.73v7.273" stroke-width=".8617"/>
   <path d="m22.352 69.844v7.527" stroke-width=".8901"/>
   <path d="m47.738 70.609v6.57" stroke-width=".8317"/>
   <path d="m18.29 64.152v5.617" stroke-width=".769"/>
   <path d="m51.123 63.941v6.553" stroke-width=".8305"/>
  </g>
  <g transform="matrix(1 0 0 1.5607 282.99 -555.28)" fill="#f00">
   <path d="m-261.87 384.68c-0.137-4.31 1.51-7.863 3.679-7.938 2.17-0.074 4.039 3.358 4.176 7.667 2e-3 0.068 4e-3 0.136 5e-3 0.204l-3.933-0.068z"/>
   <path d="m-261.87 384.39h7.613" stroke="#f00" stroke-width="1.0969"/>
  </g>
  <g transform="matrix(1 0 0 1.6045 303.47 -571.74)">
   <path d="m-262.22 384.5c-0.143-4.251 1.587-7.756 3.865-7.83 2.277-0.074 4.242 3.312 4.386 7.563 2e-3 0.067 4e-3 0.135 7e-3 0.201l-4.131-0.067z" fill="#f00"/>
   <path d="m-262.22 384.22h7.993" fill="none" stroke="#f00" stroke-width="1.0969"/>
  </g>
  <g transform="matrix(.69081 0 0 .82934 -25.125 -284.65)" fill="none" stroke="#000">
   <g transform="translate(456.96 39.603)">
    <path d="m-376.4 396.46v-16.062"/>
    <path d="m-362.96 396.39v-16.584"/>
    <path d="m-376.4 381.22c-0.057-6.505 10.976-7.123 13.432-1.89v2.813" stroke-width=".9781"/>
   </g>
   <path d="m80.222 435.89h14.19" stroke-width="1.1844"/>
  </g>
  <path d="m31.094 67.127v-2.37h8.123v4.739h-8.123z" fill="#f00"/>
  <g transform="matrix(1 0 0 .96635 -217.64 -356.43)" fill="#f00" stroke="#f00">
   <path d="m248.74 443.65v-3.551h8.124v7.1h-8.124z" stroke-width="1.145"/>
   <path d="m249.14 433.48c1.098-2.411 4.958-2.902 6.778-0.867 0.518 0.58 0.938 1.205 0.938 1.389 0 0.2-1.615 0.331-4.053 0.331h-4.056z"/>
   <path d="m248.74 437.41v-3.02h8.124v6.038h-8.124z" stroke-width="1.1283"/>
  </g>
  <g fill="none" stroke="#000">
   <path d="m42.362 64.004h14.985" stroke-width=".7934"/>
   <path d="m41.556 70.475h15.605" stroke-width=".7295"/>
   <path d="m15.959 45.29h37.071" stroke-width="1.0141"/>
   <line x1="18.804" x2="18.804" y1="9" y2="15.825"/>
   <line x1="41.156" x2="41.156" y1="9.183" y2="15.825"/>
   <line x1="49.927" x2="49.927" y1="9" y2="16.08"/>
   <line x1="31.281" x2="31.281" y1="8.531" y2="15.696"/>
   <line x1="40.642" x2="47.573" y1="9.312" y2="9.312"/>
   <path d="m31.094 61.625c-0.658 0.382-0.94 2.846-0.687 2.936" stroke-width=".5"/>
   <path d="m29.12 60.385c-0.271 0.661-0.14 2.146-0.542 1.827" stroke-width=".5"/>
  </g>
 </g>
 <path class="st0" d="m5 17h62v38h-62z"/>
</svg>
