<svg version="1.1" id="Layer_1" xmlns="http://www.w3.org/2000/svg" xmlns:xlink="http://www.w3.org/1999/xlink" x="0px" y="0px"
	 width="100%" viewBox="0 0 1598 998" enable-background="new 0 0 1598 998" xml:space="preserve">
<path fill="#010101" opacity="1.000000" stroke="none" 
	d="
M36.400917,998.705322 
	C25.235453,999.000000 14.469259,998.899841 3.707623,999.076843 
	C1.286468,999.116638 0.895893,998.516235 0.935154,996.240173 
	C1.092216,987.134399 1.000000,978.024353 1.000000,968.457947 
	C1.923669,966.447205 1.478566,964.739075 1.478680,963.109436 
	C1.500780,648.704346 1.500048,334.299255 1.499799,19.894144 
	C1.499798,18.893866 1.513878,17.893301 1.224452,16.447052 
	C1.000000,11.667771 1.109076,7.331440 0.946358,3.005333 
	C0.881196,1.272926 1.242504,0.650829 3.000321,0.974732 
	C3.806083,1.123206 4.661907,1.000000 5.495028,1.000000 
	C535.026611,1.000000 1064.558228,1.007659 1594.089844,0.871292 
	C1598.558594,0.870141 1599.435059,2.066163 1599.084351,6.094645 
	C1598.709961,10.394311 1599.000000,14.751822 1599.000000,19.542042 
	C1598.076294,21.552811 1598.521484,23.260977 1598.521362,24.890631 
	C1598.499023,342.297638 1598.499634,659.704651 1598.500488,977.111694 
	C1598.500488,978.111267 1598.482666,979.111267 1598.775513,980.554871 
	C1599.000000,985.632935 1598.629639,990.304810 1599.112305,994.886902 
	C1599.530151,998.852966 1597.924438,999.129395 1594.661499,999.075073 
	C1583.082397,998.882507 1571.498169,999.000000 1559.458008,999.000000 
	C1558.082397,998.120544 1556.933594,998.018616 1555.746338,998.010864 
	C1554.080200,997.999939 1552.414185,998.000549 1550.748169,998.000549 
	C1048.578247,998.000061 546.408325,997.999573 44.238384,998.018616 
	C41.760387,998.018677 39.245647,997.639709 36.400917,998.705322 
z"/>
<path fill="#2F2F2F" opacity="1.000000" stroke="none" 
	d="
M36.468658,999.000000 
	C36.910549,997.122559 38.699112,997.294312 40.329731,997.209045 
	C41.991844,997.122070 43.661076,997.161987 45.327190,997.161987 
	C546.855042,997.160645 1048.382935,997.159302 1549.910767,997.198181 
	C1552.831055,997.198425 1555.935791,996.389526 1558.817871,998.665955 
	C1051.645752,999.000000 544.291565,999.000000 36.468658,999.000000 
z"/>
<path fill="#1C1C1C" opacity="1.000000" stroke="none" 
	d="
M1599.000000,980.531372 
	C1597.591064,979.273743 1597.960815,977.206543 1597.960815,975.241333 
	C1597.953613,659.210266 1597.959717,343.179199 1597.974609,27.148111 
	C1597.974609,24.993912 1597.758057,22.805166 1598.803223,20.364376 
	C1599.000000,340.020905 1599.000000,660.041809 1599.000000,980.531372 
z"/>
<path fill="#1E1E1E" opacity="1.000000" stroke="none" 
	d="
M1.000000,16.468658 
	C2.400840,17.318506 2.108483,19.047182 2.108371,20.688967 
	C2.087203,334.074341 2.061215,647.459717 2.026560,960.845093 
	C2.026321,963.000488 2.221568,965.188354 1.189507,967.632202 
	C1.000000,650.979126 1.000000,333.958221 1.000000,16.468658 
z"/>
<path fill="#951109" opacity="1.000000" stroke="none" 
	d="
M1552.360229,491.457458 
	C1552.145874,495.303284 1552.130127,498.708618 1552.140015,502.576294 
	C1552.804688,504.823486 1552.482910,506.674011 1552.483643,508.490265 
	C1552.504150,555.320129 1552.499878,602.150024 1552.499878,649.477173 
	C1552.479736,742.941162 1552.540039,835.907837 1552.316650,929.348450 
	C1552.106689,935.653870 1551.826050,941.494812 1552.072144,947.313477 
	C1552.234253,951.145386 1550.799683,952.078186 1547.172241,952.065186 
	C1525.009277,951.985535 1502.845459,952.175598 1480.682007,952.175659 
	C1257.205933,952.176636 1033.729736,952.154114 810.253662,952.146423 
	C584.445740,952.138611 358.637787,952.144653 132.829849,952.131348 
	C106.166862,952.129761 79.503876,952.043335 52.840885,951.996521 
	C46.017380,951.984558 46.005817,951.985046 46.005489,945.330566 
	C45.998299,799.179504 45.989941,653.028442 45.989967,506.877350 
	C45.989998,356.726715 45.993671,206.576111 46.017204,56.425491 
	C46.018505,48.128048 45.137566,49.019150 53.584698,49.017132 
	C297.558319,48.958923 541.531982,48.907490 785.505615,48.883080 
	C1015.980042,48.860023 1246.454468,48.864655 1476.928955,48.869759 
	C1500.426147,48.870281 1523.923950,49.058380 1547.419922,48.912708 
	C1551.696899,48.886192 1553.456543,49.882225 1553.084839,54.438381 
	C1552.707153,59.070774 1553.052856,63.762169 1553.112061,68.921463 
	C1553.957031,75.879967 1553.422729,82.371132 1553.471069,88.848114 
	C1553.584106,103.986244 1553.684937,119.128853 1553.461060,134.263718 
	C1552.419312,204.689697 1553.309937,275.118591 1552.996826,345.545227 
	C1552.991577,346.710052 1553.023682,347.875793 1552.744385,349.510498 
	C1552.350708,395.713867 1552.573364,441.442627 1552.505737,487.659180 
	C1552.548950,489.103424 1552.971436,490.053162 1552.360229,491.457458 
z"/>
<path fill="#363636" opacity="1.000000" stroke="none" 
	d="
M1552.272461,350.159119 
	C1552.092407,322.186432 1552.030396,294.721893 1552.008789,267.257355 
	C1551.986694,238.959274 1552.032959,210.661133 1551.996826,182.363083 
	C1551.948975,144.989655 1553.556519,107.632217 1553.095337,69.835007 
	C1553.343506,71.393059 1553.720581,73.370872 1553.721069,75.348785 
	C1553.746216,165.154129 1553.739258,254.959473 1553.723877,344.764832 
	C1553.723633,346.258942 1553.570190,347.753082 1553.366211,349.638062 
	C1552.965576,350.241791 1552.686768,350.454407 1552.272461,350.159119 
z"/>
<path fill="#494F45" opacity="1.000000" stroke="none" 
	d="
M1552.363037,929.474121 
	C1552.109009,925.491699 1552.006470,921.161011 1552.007080,916.830322 
	C1552.020142,828.187622 1552.044922,739.544922 1552.118896,650.433838 
	C1552.338745,649.687622 1552.506958,649.409668 1552.874756,649.576355 
	C1553.162842,651.846252 1553.328491,653.671570 1553.328979,655.496887 
	C1553.351562,744.410950 1553.360840,833.325012 1553.363403,922.239075 
	C1553.363403,924.560364 1553.562256,926.915833 1552.363037,929.474121 
z"/>
<path fill="#595959" opacity="1.000000" stroke="none" 
	d="
M1553.145874,649.555298 
	C1553.074219,650.020935 1552.622803,649.985535 1552.396729,649.975525 
	C1552.113647,619.570374 1552.033203,589.175232 1552.008667,558.780090 
	C1551.993896,540.509460 1552.066284,522.238770 1552.132568,503.503357 
	C1553.333130,504.411377 1553.414795,506.073303 1553.412476,507.753632 
	C1553.348389,554.865662 1553.282837,601.977722 1553.145874,649.555298 
z"/>
<path fill="#595959" opacity="1.000000" stroke="none" 
	d="
M1552.098999,350.153809 
	C1552.320068,349.717529 1552.503418,349.784119 1552.965576,349.939819 
	C1553.284790,396.046967 1553.325439,442.064972 1553.314697,488.550659 
	C1553.104492,489.162323 1552.945312,489.306305 1552.471680,489.382568 
	C1552.104614,460.719421 1552.033813,432.123932 1552.006836,403.528412 
	C1551.990356,385.904510 1552.040894,368.280579 1552.098999,350.153809 
z"/>
<path fill="#363636" opacity="1.000000" stroke="none" 
	d="
M1552.116455,489.634216 
	C1552.339844,489.260132 1552.522949,489.205383 1552.984741,489.084473 
	C1553.610596,490.046021 1553.241089,490.869965 1552.346069,491.747498 
	C1552.133179,491.249817 1552.104736,490.601654 1552.116455,489.634216 
z"/>
<path fill="#D2991E" opacity="1.000000" stroke="none" 
	d="
M937.285645,269.441284 
	C925.425232,267.959991 916.056702,261.359497 905.547791,257.038483 
	C917.016968,253.463043 928.314514,250.189758 940.090515,249.027237 
	C952.002258,247.851334 963.611816,249.708344 975.025085,253.319565 
	C975.183044,252.937805 975.341003,252.556046 975.498962,252.174301 
	C970.026611,248.512894 964.756226,244.493668 959.038879,241.266312 
	C947.932434,234.996948 935.020325,232.950745 923.854004,226.783844 
	C918.660339,223.915466 913.573730,220.779129 908.752014,217.326614 
	C898.897339,210.270142 890.728149,201.349228 882.394470,192.633957 
	C879.192505,189.285400 877.337585,184.901703 873.079102,181.384308 
	C878.405334,180.254745 882.670105,181.753128 886.880249,182.536987 
	C898.780762,184.752762 910.637634,187.482147 921.239258,193.541534 
	C931.446167,199.375351 940.313354,206.918732 947.460266,216.445419 
	C951.438049,221.747711 955.054077,227.127014 957.848022,233.194901 
	C961.627930,241.404434 970.602417,243.375473 977.430115,247.800964 
	C980.957031,250.087067 984.339233,252.713806 988.469482,254.574417 
	C974.122864,237.197144 969.319763,216.496887 966.030762,193.637817 
	C969.977661,196.263931 972.838806,198.076843 975.605286,200.024277 
	C986.661133,207.807251 996.697205,216.842880 1004.104675,228.112839 
	C1012.084106,240.253113 1016.323730,254.212234 1015.416321,268.663300 
	C1014.817383,278.202606 1020.104431,283.245392 1025.657104,288.526367 
	C1032.137573,294.689850 1038.400146,300.978241 1043.907104,308.028839 
	C1045.378052,309.912048 1047.190186,311.528870 1049.313110,312.962524 
	C1043.488892,303.619598 1042.063477,293.115784 1040.225952,282.333954 
	C1040.192505,275.556885 1040.614014,269.189331 1040.302246,262.407318 
	C1040.285889,254.853317 1041.687500,247.913330 1043.417358,240.540497 
	C1047.160645,243.252975 1049.598511,246.719742 1051.826538,249.987518 
	C1058.523804,259.810303 1064.847290,269.919800 1068.917480,281.212860 
	C1072.907837,292.284271 1074.731445,303.680847 1073.334717,315.411346 
	C1072.375610,323.467346 1071.295288,331.543793 1067.343262,338.883820 
	C1066.587646,340.287231 1065.972900,341.912262 1067.255859,343.554443 
	C1072.590332,350.383148 1076.555786,358.129059 1080.523926,365.708374 
	C1083.940430,372.233948 1087.247192,378.944641 1090.289307,386.078369 
	C1090.799194,386.571594 1091.069458,386.813721 1091.164307,386.540466 
	C1089.714355,373.948334 1088.212524,361.958588 1089.876709,349.700012 
	C1091.842773,335.216858 1097.829346,322.536255 1105.432373,309.095886 
	C1107.109253,313.382477 1108.823730,316.585419 1109.616821,320.002228 
	C1112.618652,332.935669 1117.316528,345.465881 1118.459473,358.850708 
	C1119.442749,370.367920 1117.737549,381.395508 1113.862671,392.207397 
	C1110.991455,400.218903 1107.519775,407.824493 1102.074585,414.521118 
	C1099.590454,417.576172 1100.482788,421.824036 1101.265381,425.184418 
	C1104.506226,439.100342 1106.831665,453.142761 1108.661865,467.514069 
	C1111.596313,439.939178 1124.934326,418.186310 1145.694458,400.199554 
	C1147.662109,401.448273 1146.937378,403.410126 1146.980591,405.128784 
	C1147.283691,417.165375 1146.677490,429.169220 1145.235107,441.578522 
	C1144.882202,448.245239 1142.498291,454.037201 1141.472900,460.075348 
	C1139.780029,470.043030 1134.430908,478.292206 1128.971069,486.226776 
	C1124.811401,492.272003 1119.533325,497.846375 1113.113770,501.862518 
	C1111.258789,503.023010 1109.879517,504.248138 1109.763916,506.397644 
	C1108.906128,522.334961 1106.898193,538.113770 1103.660034,553.854248 
	C1105.821533,550.560120 1108.122803,547.348389 1110.119019,543.956970 
	C1117.109985,532.079529 1126.786621,522.960205 1137.836182,514.811890 
	C1143.723145,510.470703 1150.099243,507.094574 1156.098267,503.045624 
	C1157.033936,502.414062 1158.261963,501.586578 1159.338501,502.291168 
	C1160.507812,503.056671 1159.746826,504.388489 1159.585938,505.500519 
	C1156.683350,525.573669 1148.984741,543.909973 1137.839478,560.571838 
	C1127.641113,575.818298 1114.262939,587.813416 1096.409424,593.914734 
	C1094.556641,594.547913 1092.295288,594.891357 1091.320190,596.822815 
	C1084.200562,610.924744 1077.177246,625.075195 1070.462280,639.587769 
	C1090.420410,620.979065 1115.164062,612.968689 1140.960693,606.537231 
	C1140.572754,610.644714 1138.328247,613.709656 1136.355347,616.837097 
	C1128.492798,629.300903 1120.007690,641.377319 1109.204102,651.442383 
	C1092.363403,667.131775 1072.557739,676.797241 1049.246704,677.814636 
	C1044.617676,678.016724 1041.325073,679.515076 1038.556763,682.781982 
	C1029.677734,693.260315 1019.461365,702.387939 1009.260376,712.018738 
	C1009.446533,712.304016 1009.632996,712.513306 1009.631104,713.173340 
	C1009.657349,713.431519 1010.030762,713.166260 1010.213806,713.303894 
	C1028.863403,703.957581 1048.828613,701.104065 1069.666748,700.194031 
	C1076.785278,700.884521 1083.439819,700.428040 1090.495850,699.776123 
	C1093.192993,700.146545 1092.028564,701.400635 1091.257202,702.099487 
	C1085.887207,706.965027 1080.992554,712.351440 1074.724243,716.224426 
	C1070.970215,718.543884 1067.573853,721.445618 1063.932373,723.976929 
	C1053.602051,731.157898 1042.360840,736.416138 1030.625610,740.287842 
	C1016.294067,745.016174 1001.359497,746.268127 986.322449,743.609924 
	C981.771484,742.805420 977.011597,743.156555 972.681335,741.043396 
	C971.143311,740.292786 969.806763,741.441833 968.501038,742.135132 
	C955.644104,748.961670 942.695984,755.598694 929.265015,761.249084 
	C928.228027,761.685303 927.063965,762.065002 926.096130,764.243042 
	C956.273926,762.027588 985.026001,768.016235 1013.722168,774.414368 
	C1013.824768,774.906372 1013.927429,775.398315 1014.030029,775.890259 
	C1008.535339,778.518127 1003.136841,781.379395 997.514099,783.696411 
	C993.388855,785.396240 988.985046,786.436523 984.678406,787.676819 
	C968.792419,792.252136 952.615967,792.512146 936.226501,791.572327 
	C920.596497,790.676086 907.260925,783.885742 893.875916,776.901001 
	C892.855286,776.368469 891.973450,775.588074 890.663208,775.842407 
	C877.050232,778.484924 863.432678,781.103455 848.357727,784.009827 
	C873.712402,793.980957 897.717896,803.882690 919.867065,818.085327 
	C911.787415,819.225952 903.784363,819.367920 895.808350,818.707458 
	C883.359741,817.676453 871.148254,815.421021 858.912842,812.674377 
	C850.487183,810.782959 842.754211,807.669861 835.263550,804.055969 
	C827.866638,800.487183 821.920288,794.484802 816.295288,787.932190 
	C803.617859,787.186646 791.238770,787.620605 778.421021,787.677185 
	C776.118225,788.139343 775.181030,789.752747 774.297668,791.010437 
	C768.235168,799.642395 759.505920,804.541809 750.000977,808.023926 
	C726.446716,816.652954 702.045959,820.034241 677.002075,818.788452 
	C676.224182,818.749817 675.461121,818.411926 673.235657,817.838562 
	C696.473145,803.844360 720.028076,793.552856 744.380859,784.965027 
	C743.432312,782.588257 741.865356,783.113220 740.664978,782.887390 
	C728.746155,780.644226 716.787842,778.596680 704.912598,776.145447 
	C701.071106,775.352539 698.292908,777.492981 695.768555,779.067261 
	C682.912781,787.085388 669.057190,791.635742 653.972595,792.061584 
	C636.103943,792.566101 618.519470,791.283020 601.336670,785.264343 
	C593.661621,782.575989 586.734680,778.572815 579.107910,775.416870 
	C607.862793,767.626038 636.738586,761.794739 666.807739,763.802368 
	C664.360962,760.667603 660.951599,759.611267 657.849854,758.375916 
	C646.462219,753.840698 635.825195,747.837158 625.038147,742.125671 
	C623.103394,741.101318 621.431946,741.077576 619.353271,741.571960 
	C601.614319,745.791138 583.706299,746.386536 566.146484,741.396851 
	C556.824524,738.747986 547.981140,734.485107 539.268433,729.814453 
	C525.285889,722.318909 513.175476,712.769165 501.880249,701.403931 
	C504.288605,698.914673 507.386993,699.930969 510.160400,700.147339 
	C514.103699,700.455139 518.028076,700.427124 522.424438,700.389038 
	C544.661865,700.600647 553.874573,702.775757 588.808594,716.010376 
	C584.379395,710.873291 579.721008,707.341614 575.596008,703.379639 
	C569.166748,697.204590 562.602783,691.189392 556.844971,684.372253 
	C553.398438,680.291687 549.591064,678.148193 543.828064,677.711060 
	C531.924744,676.808167 520.455444,674.080261 509.476654,668.470520 
	C493.840332,660.480774 481.335449,649.380127 470.536041,635.789856 
	C463.405853,626.817017 457.060394,617.481689 451.650208,606.047485 
	C465.350525,610.355774 478.195343,613.330139 490.432892,618.664246 
	C502.595978,623.966064 513.455383,631.019958 523.646423,639.521301 
	C521.770935,634.550598 519.226807,630.040710 516.638428,625.490417 
	C512.557556,618.316345 508.569305,610.997559 505.544891,603.343689 
	C503.142426,597.263672 499.034760,594.301514 493.261780,592.251160 
	C480.805267,587.826965 471.056458,579.628235 462.539337,569.667542 
	C455.777069,561.759094 450.278687,552.978943 446.156158,543.623108 
	C441.150299,532.262512 436.852173,520.505249 434.096344,508.313232 
	C433.671112,506.432068 434.036957,504.372070 434.036957,501.549561 
	C446.260925,507.490204 456.909149,514.676758 466.738373,523.200439 
	C476.711975,531.849304 483.780212,542.712402 490.539154,553.941040 
	C487.723511,541.335388 484.968750,528.763123 484.705048,516.004517 
	C484.530701,507.568176 481.373291,502.236481 474.857483,497.189453 
	C465.577087,490.001160 458.904175,480.238495 454.882202,469.227142 
	C450.426025,457.026978 448.066620,444.229248 447.014771,431.236938 
	C446.301575,422.427521 445.855103,413.610535 446.180481,404.771942 
	C446.233673,403.326599 445.600037,401.246277 446.969238,400.600739 
	C448.712616,399.778748 449.716156,401.925964 450.897736,402.914551 
	C459.616302,410.208801 467.080078,418.837128 472.469574,428.657440 
	C478.825104,440.237854 483.943909,452.584625 484.624908,466.182343 
	C484.655273,466.788940 484.998016,467.379883 485.477448,467.970978 
	C486.218811,451.491302 490.926788,435.680878 492.995819,419.456177 
	C493.293243,417.123505 492.537170,414.892822 491.303131,413.385803 
	C484.600525,405.200775 481.526825,395.363281 478.032898,385.300659 
	C475.513916,374.491760 475.615692,363.948151 476.775940,352.908508 
	C476.991669,350.974335 476.800171,349.437378 477.139618,348.028381 
	C480.197449,335.336121 482.817810,322.512268 488.209900,308.763855 
	C494.163818,322.136597 501.165253,333.283112 503.401764,346.865753 
	C505.602692,360.232300 504.894165,373.324097 503.770660,386.744965 
	C506.432770,381.466370 509.530151,376.356781 511.660339,370.871613 
	C515.340210,361.396149 520.786804,352.927551 526.026123,344.356934 
	C527.536438,341.886444 527.939026,340.141876 526.830933,337.579010 
	C517.460876,315.907654 517.853271,294.570557 528.247803,273.162872 
	C532.546204,264.310364 538.428284,256.596069 543.782104,248.161224 
	C544.446716,247.484146 545.079712,247.525925 545.777954,247.099319 
	C545.970825,246.888840 545.973145,246.975388 545.929810,246.976471 
	C546.435486,246.599213 546.485901,245.975922 546.810242,245.153351 
	C546.964600,244.895279 546.916748,244.989044 546.869873,244.965057 
	C550.506287,242.206711 550.623108,242.372787 551.549805,246.528000 
	C554.639160,260.380188 554.761658,274.264343 552.247803,288.643646 
	C552.044556,289.070343 551.994934,289.012878 552.023560,288.988007 
	C551.166077,289.744049 551.717285,290.916199 551.164856,292.182983 
	C550.666016,298.275452 549.003723,303.671204 546.695190,309.277618 
	C547.054321,309.728607 546.122498,310.753998 547.383911,310.647400 
	C553.112976,304.688080 558.333679,298.255676 564.216675,292.500214 
	C568.075012,288.725464 571.166138,284.090088 576.009827,281.321686 
	C578.292053,280.017303 577.824829,277.638763 577.991150,275.503998 
	C578.712524,266.245605 577.781494,256.767029 580.821228,247.807373 
	C584.506226,236.946060 589.607910,226.979416 597.481384,218.233566 
	C606.124695,208.632645 616.049805,200.878494 627.519653,192.901154 
	C627.286072,205.023773 624.011780,215.517197 621.071655,226.117432 
	C618.114136,236.780594 611.717102,245.487885 605.676086,254.545364 
	C613.906799,248.837784 622.623352,244.233841 631.119019,239.262070 
	C633.843689,237.667511 635.374573,234.898834 636.507568,232.221115 
	C640.779053,222.126221 647.959167,214.400024 655.380798,206.566956 
	C664.082764,197.382553 674.578491,191.275375 686.156616,187.468964 
	C697.073059,183.880112 708.450623,181.252441 720.874207,180.752106 
	C715.969727,188.546570 709.985596,194.396378 704.227600,200.418396 
	C695.074280,209.991364 684.820190,218.305679 673.382751,224.903717 
	C664.234985,230.180817 654.328369,233.957016 644.138733,236.954254 
	C637.916138,238.784637 632.253784,241.822113 627.364624,246.267090 
	C624.731995,248.660522 620.606873,248.997726 618.458435,252.901031 
	C642.112427,244.449951 664.955444,250.203873 687.792725,256.062317 
	C682.771606,261.934082 653.396606,272.108978 633.356323,274.743683 
	C624.600159,274.436066 616.248108,275.558716 607.472717,274.611420 
	C595.997070,270.798584 589.082764,277.726288 582.195007,284.347260 
	C577.934937,288.442291 574.043213,292.920441 569.908813,297.562531 
	C569.723999,298.215668 569.544373,298.484772 569.103516,298.861145 
	C568.914368,299.016571 568.967896,298.972443 568.944702,298.946686 
	C569.159607,299.782532 566.265076,301.470551 569.929382,301.403107 
	C588.891907,291.217407 608.698364,286.894745 630.144592,289.479767 
	C629.089539,291.691650 627.662354,293.743530 625.554443,295.259735 
	C616.353455,301.877930 607.556702,309.198212 597.804626,314.874542 
	C585.698120,321.921326 573.201660,328.524017 559.105835,331.167023 
	C553.721802,332.176544 548.469910,333.875336 543.126221,335.124969 
	C541.639648,335.472626 540.835754,336.475983 540.075012,337.507568 
	C532.955017,347.162354 527.898499,358.044159 521.841248,368.332367 
	C521.246399,369.342682 520.733093,370.420349 521.963684,372.267883 
	C538.187073,354.653351 558.644958,344.586548 582.169617,338.310944 
	C580.422974,341.331696 579.225525,343.982056 577.521362,346.252014 
	C569.010742,357.588593 560.880066,369.149048 551.156738,379.630157 
	C541.830444,389.683228 530.947754,397.439819 519.868835,405.071289 
	C516.970642,407.067657 513.575623,408.889191 510.318054,410.121246 
	C504.192902,412.437866 502.697510,417.281708 502.277130,422.524780 
	C501.422363,433.185303 498.679047,443.495087 497.168701,454.021301 
	C497.033417,454.964355 497.063507,455.931091 497.435638,457.173798 
	C507.786896,434.277924 525.779846,419.149445 547.089905,406.671021 
	C547.513550,410.381317 545.655396,412.924835 544.855469,415.723206 
	C541.066772,428.977600 536.113708,441.842346 530.312134,454.297760 
	C524.179932,467.462952 515.138428,478.709106 504.231201,488.307648 
	C501.161041,491.009460 498.659027,494.416534 494.795990,496.247833 
	C492.943909,497.125824 493.468933,499.156738 493.482056,500.737610 
	C493.608307,515.946655 496.336639,530.806274 499.985138,545.870239 
	C501.812744,518.162842 515.588623,496.992096 535.624207,478.680817 
	C536.931519,481.144287 536.471802,483.466309 536.402893,485.660034 
	C535.743042,506.668488 533.461975,527.507446 526.927490,547.540833 
	C523.446472,558.212891 519.548950,568.898804 513.035095,578.303528 
	C508.569122,584.751404 510.429718,591.430664 513.430725,597.456787 
	C518.511658,607.659607 522.294250,618.597900 529.633301,627.615173 
	C530.522583,628.707703 530.747131,630.341309 531.514709,631.993835 
	C532.006042,632.307312 532.262512,632.351013 532.595764,632.012207 
	C529.570374,617.091309 527.842346,602.651794 530.501587,587.646362 
	C532.089172,578.688354 535.401062,570.885437 539.726440,563.191772 
	C541.376465,560.256958 541.772644,556.577820 545.162048,554.413635 
	C547.448730,557.836853 548.579102,561.768921 549.240356,565.511963 
	C551.846497,580.263977 557.176086,594.364807 559.235474,609.243286 
	C561.615540,626.438293 559.141235,643.095642 554.225281,659.498901 
	C553.287354,662.628479 554.095520,664.517212 555.859497,667.099304 
	C560.259338,673.539978 565.684753,679.056335 570.940308,684.678711 
	C576.254822,690.364075 582.338379,695.330505 588.960449,701.416443 
	C587.895020,697.340149 585.528076,695.557495 584.253479,693.132935 
	C573.418945,672.523499 571.799622,650.678894 575.636658,628.123718 
	C575.783630,627.260010 575.609741,625.830688 577.059937,626.019897 
	C577.704163,626.103943 578.350891,626.953552 578.804688,627.592041 
	C584.819336,636.053467 590.887146,644.479187 596.768677,653.032715 
	C605.993835,666.448669 613.980286,680.554077 617.451904,696.627380 
	C619.104309,704.277954 618.152832,712.247864 617.884094,720.044128 
	C617.737122,724.304871 619.691101,726.496094 622.758240,728.452637 
	C633.346680,735.207214 644.232117,741.415894 655.777710,746.412720 
	C656.227356,746.607300 656.606445,746.964783 657.303528,747.462036 
	C657.653381,746.815735 658.610046,747.680237 658.614624,746.799316 
	C656.596619,744.444580 654.778381,742.328186 652.920837,740.246948 
	C646.696289,733.272644 641.669800,725.400757 638.400269,716.765625 
	C634.506409,706.481445 631.786560,695.752869 628.284058,684.322571 
	C638.880981,689.824890 647.792542,696.101746 656.510986,702.464172 
	C665.798340,709.241760 674.629639,716.796570 681.902405,725.876038 
	C689.443726,735.290894 695.345459,745.577271 697.181702,757.686218 
	C697.845154,762.060852 699.833313,763.830933 704.141602,764.940430 
	C715.419556,767.844849 726.544983,771.277222 738.799133,770.543884 
	C719.995850,759.494995 707.279175,743.437683 698.874451,723.777222 
	C699.908691,722.587952 700.814758,723.548950 701.627502,723.849548 
	C713.137451,728.106995 724.710266,732.211670 736.097046,736.779175 
	C745.018066,740.357544 753.483215,745.155151 760.617981,751.507690 
	C767.232666,757.397156 773.071594,764.370911 774.899048,773.573669 
	C775.470398,776.450806 777.015625,777.126282 779.717896,777.361755 
	C791.215881,778.363647 802.684875,777.778259 814.172119,777.300476 
	C817.037903,777.181274 818.243286,776.040894 818.899658,773.373840 
	C822.356384,759.327637 832.569580,750.490112 844.099670,743.661621 
	C856.915894,736.071472 871.043762,730.975769 885.343079,726.630676 
	C888.459656,725.683594 891.084045,723.319824 895.202087,723.280945 
	C886.558716,743.713501 873.855103,759.959778 854.265869,770.770813 
	C854.093201,771.065063 853.681396,771.343933 853.855347,771.166199 
	C865.742432,771.804626 876.604370,767.560974 887.861633,765.622314 
	C895.656677,764.279968 896.791443,759.110229 897.575562,753.664856 
	C898.419250,747.805969 900.966003,742.904419 903.869690,738.097351 
	C909.246948,729.195374 916.165710,721.621948 923.654175,714.348694 
	C933.815613,704.479309 946.025696,697.490295 957.039368,688.852600 
	C959.180725,687.173157 961.984741,686.338623 965.221008,684.752747 
	C959.126160,706.884094 953.658569,728.527405 936.575989,745.136841 
	C936.399292,745.430481 936.746887,745.782654 936.650635,746.147095 
	C936.554443,746.511475 937.004456,746.421082 937.233032,746.441223 
	C949.551819,741.488342 960.640381,734.676575 971.734253,727.863525 
	C974.886658,725.927551 975.932068,723.455078 975.924316,719.637817 
	C975.900391,707.903564 974.800476,696.096619 979.397461,684.684326 
	C985.000916,670.773438 992.537903,658.107605 1001.560364,646.195801 
	C1006.029175,640.296082 1010.001831,634.018799 1014.147339,627.877502 
	C1014.819885,626.881165 1015.457336,625.684509 1016.676880,625.712769 
	C1018.336731,625.751221 1017.939270,627.374512 1018.121582,628.414124 
	C1021.156189,645.720947 1020.850647,662.748901 1015.096619,679.631775 
	C1012.988586,685.816833 1010.552612,691.647705 1006.750610,697.319092 
	C1007.022461,697.736023 1006.091309,698.809998 1007.384033,698.677795 
	C1019.445129,689.158875 1029.920654,678.086060 1039.119995,665.779114 
	C1040.613159,663.781677 1040.531738,661.978699 1039.902222,659.757385 
	C1035.987427,645.944397 1033.047485,631.961243 1034.092651,617.482910 
	C1035.042725,604.323120 1038.375122,591.615784 1041.611572,578.874756 
	C1043.725708,570.551331 1044.910156,561.987549 1048.950439,553.078430 
	C1054.686890,564.488281 1061.131958,574.682251 1063.119019,587.075378 
	C1065.309204,600.734375 1064.301025,614.205200 1062.328369,628.153137 
	C1062.382202,628.984253 1062.573608,629.336243 1062.964478,629.356689 
	C1072.011108,616.413757 1078.556152,602.586853 1083.427368,587.906311 
	C1084.679565,584.132690 1082.450073,581.129700 1080.848999,578.777893 
	C1073.255493,567.622864 1068.072876,555.274780 1064.919678,542.490723 
	C1059.826538,521.841187 1056.704346,500.741547 1057.280273,477.730042 
	C1067.571045,487.631927 1075.938599,497.336456 1082.465332,508.805023 
	C1089.167847,520.582703 1092.996704,533.012817 1094.278076,546.630432 
	C1095.472534,540.035461 1096.879028,533.470154 1097.807739,526.837952 
	C1098.984131,518.436157 1099.785522,509.981445 1100.720093,501.546417 
	C1101.026611,498.780701 1100.311279,496.883118 1097.800903,494.863342 
	C1084.273438,483.979523 1072.288330,471.582245 1064.554565,455.808929 
	C1057.242798,440.896118 1052.085938,425.115631 1047.188599,409.269348 
	C1047.057007,408.843414 1047.213379,408.328491 1047.268311,407.148987 
	C1068.335327,419.927582 1086.759033,434.511597 1096.905151,457.671600 
	C1096.252563,453.371155 1095.642090,449.063812 1094.938965,444.771637 
	C1093.382690,435.272736 1091.763794,425.784119 1090.210571,416.284729 
	C1089.927002,414.551025 1089.293945,413.423828 1087.550415,412.514282 
	C1075.989868,406.483643 1064.615112,399.966064 1054.759033,391.454376 
	C1046.835938,384.611938 1039.606445,376.934448 1032.979248,368.664001 
	C1027.058105,361.274780 1021.804932,353.431335 1016.000854,345.983826 
	C1014.347961,343.862885 1013.380615,341.452332 1012.117493,338.559418 
	C1034.797852,344.509155 1054.702515,354.542053 1071.467896,371.054749 
	C1071.974487,371.669495 1072.208984,371.649384 1072.420166,370.954895 
	C1072.493408,367.248535 1070.328003,364.777405 1068.732056,362.105469 
	C1063.972412,354.137024 1059.813477,345.799927 1054.184448,338.360352 
	C1053.274536,337.157837 1052.557495,335.798279 1050.879883,335.570190 
	C1044.113037,334.650024 1037.675293,332.319427 1031.031860,330.840790 
	C1021.976379,328.825287 1013.499146,324.813873 1005.255554,320.524231 
	C995.603760,315.501862 986.389160,309.664185 977.977905,302.824066 
	C972.923706,298.713989 967.011230,295.432404 962.668640,288.968750 
	C973.699646,289.290009 984.114136,288.263123 994.578186,290.671753 
	C1000.912781,292.129852 1006.679626,295.389923 1013.606323,296.096985 
	C1014.493896,296.494720 1015.110901,296.475189 1015.816284,296.956360 
	C1016.004761,297.176575 1015.911377,297.094147 1015.870239,297.140839 
	C1017.125977,297.498230 1018.435608,297.776978 1019.696777,298.925293 
	C1019.883118,299.202911 1019.982788,299.092743 1019.923706,299.137421 
	C1021.094360,299.478271 1022.266174,299.956635 1023.468201,300.332306 
	C1026.343994,301.230988 1024.177002,299.212158 1024.249756,298.309937 
	C1019.910522,292.099274 1014.467773,287.323273 1009.113220,282.629974 
	C1006.767395,280.573853 1005.000916,277.944427 1002.081909,276.048187 
	C997.563293,270.505829 991.979065,273.775787 987.369751,274.285339 
	C971.949646,275.990082 956.918518,274.781403 942.051147,270.654144 
	C940.608459,270.253662 939.111572,270.076599 937.285645,269.441284 
z"/>
<path fill="#D3991F" opacity="1.000000" stroke="none" 
	d="
M766.435669,462.589294 
	C769.318665,449.651855 774.766296,438.275452 784.125305,429.534088 
	C794.794006,419.569336 807.830688,414.093597 822.567932,412.957001 
	C835.875610,411.930725 848.688477,414.337494 860.262634,420.547485 
	C875.769043,428.867279 886.654907,441.117188 889.179749,459.580688 
	C890.945862,472.495911 890.795715,485.171295 886.033020,497.334747 
	C881.361633,509.265259 873.870728,519.137085 862.651245,525.954651 
	C856.254639,529.841553 856.212219,530.826172 862.098755,535.138550 
	C871.768066,542.222168 881.453796,549.323669 891.527771,555.803101 
	C901.174377,562.007690 911.749451,565.686523 923.579102,564.026489 
	C925.077942,563.816223 926.471497,563.460144 927.905457,563.034180 
	C928.908203,562.736389 930.395264,560.922668 931.162292,563.114136 
	C931.652588,564.514832 931.310303,565.980652 929.652771,566.917603 
	C925.028809,569.531250 919.907227,570.375122 914.798401,570.844177 
	C905.515503,571.696472 896.776428,569.591187 888.065063,566.144409 
	C870.221985,559.084656 855.147583,547.653870 839.713257,536.756714 
	C837.367737,535.100708 835.159302,534.434387 832.361450,534.552979 
	C819.836487,535.083801 807.871094,532.483398 796.555359,527.235962 
	C787.370178,522.976562 779.584229,516.516724 774.336853,508.014160 
	C771.042053,502.675446 767.831177,496.820770 766.838379,489.908844 
	C765.078918,480.724091 765.003235,471.888153 766.435669,462.589294 
z"/>
<path fill="#D2981D" opacity="1.000000" stroke="none" 
	d="
M981.474548,530.326538 
	C974.399353,529.531433 970.166138,524.543457 966.498474,520.068665 
	C958.171143,509.908844 951.481323,498.503235 944.916870,487.115814 
	C942.516113,482.951141 939.628052,481.185150 934.902588,481.825714 
	C932.286804,482.180298 929.588745,481.928162 926.465210,482.014343 
	C924.904297,489.314178 925.679993,496.592743 925.532959,503.849274 
	C925.408813,509.980225 925.427246,516.117432 925.801025,522.651001 
	C926.045471,523.050598 925.960327,523.003845 925.983643,522.961182 
	C926.388428,523.389282 926.493774,523.964966 926.783203,524.774536 
	C929.977600,526.559937 933.250061,527.006836 936.545776,526.605957 
	C939.118774,526.292969 939.961121,527.069397 939.145264,529.807556 
	C925.957275,531.024597 912.923645,530.248230 899.900696,530.491089 
	C898.647888,530.514465 897.614624,530.271545 897.530396,528.692078 
	C897.433350,526.874146 898.486084,526.489807 900.010620,526.493652 
	C902.322510,526.499451 904.635742,526.562439 907.345459,526.163574 
	C908.048340,525.099487 908.352722,524.314514 908.708435,523.217285 
	C908.297363,521.416199 908.551819,519.893005 908.713379,517.954773 
	C909.712402,515.983337 909.500305,514.293335 909.498718,512.656067 
	C909.471741,484.788208 909.542786,456.920288 909.447937,428.607788 
	C909.366516,427.876678 909.311218,427.590240 909.076294,426.911377 
	C908.267700,425.502014 908.673584,424.299988 908.189331,422.838623 
	C905.511841,419.503601 901.957886,420.461700 898.329956,420.022675 
	C896.831604,417.373932 897.754150,416.410858 900.511292,416.467285 
	C905.948608,416.578613 911.389893,416.500244 916.829529,416.504639 
	C910.482361,416.453705 904.134766,416.573456 897.551147,416.193909 
	C914.775085,416.049347 932.257019,413.756165 949.684814,415.918945 
	C958.848572,417.056152 967.254822,420.310486 974.364380,426.699860 
	C982.503113,434.014221 984.558533,450.285065 978.423035,460.401733 
	C973.895081,467.867645 968.018738,473.452728 959.380676,475.674866 
	C955.901428,476.569855 955.506775,478.108337 957.940369,480.765442 
	C965.322815,488.825714 970.499634,498.441803 976.703491,507.333038 
	C982.362671,515.443604 987.608887,524.548889 998.692505,527.598694 
	C1000.702942,528.869080 1004.328064,527.646301 1004.194946,530.090820 
	C1004.036194,533.005249 1000.426208,532.060791 998.414062,532.325012 
	C992.795898,533.062683 987.200317,532.420288 981.474548,530.326538 
z"/>
<path fill="#D1981D" opacity="1.000000" stroke="none" 
	d="
M672.669067,527.646790 
	C675.518738,527.150513 678.420410,527.001953 681.781250,526.701172 
	C682.595886,526.032349 683.033630,525.609802 683.907532,525.258911 
	C684.203125,525.170105 684.166077,525.113647 684.155396,525.145691 
	C685.009888,522.791199 685.019165,520.306824 685.017090,517.814514 
	C684.993347,488.933197 684.970703,460.051849 685.040466,431.170624 
	C685.046509,428.671417 684.682495,426.222565 684.339233,423.290100 
	C684.212097,422.828094 684.274841,422.879272 684.300415,422.847900 
	C681.007629,419.656219 676.413818,422.166809 672.674316,419.802063 
	C672.084229,415.684784 674.651733,415.995483 677.002319,415.999481 
	C692.191711,416.025177 707.381165,415.950317 723.024902,416.097290 
	C723.771545,416.239166 724.063660,416.321930 725.247070,416.328064 
	C735.739563,417.389923 745.049805,420.250488 751.306885,427.614807 
	C757.347046,434.723663 759.157043,443.823364 757.456055,453.389069 
	C754.207581,471.657379 737.281982,480.230042 721.344421,481.931976 
	C714.773560,482.633667 708.097778,482.353027 701.198364,482.798157 
	C699.995850,496.123718 700.694397,509.185730 700.814392,522.602905 
	C702.425903,525.634033 704.563477,527.124390 707.946167,527.447998 
	C710.071533,528.348267 711.926392,527.860413 713.730347,528.016235 
	C714.825989,528.110840 715.781128,528.426025 715.788513,529.674194 
	C715.795349,530.840759 715.004456,531.442688 713.847290,531.483765 
	C712.682190,531.525208 711.510925,531.566101 710.350342,531.489136 
	C699.048767,530.739624 687.732849,531.038025 676.421997,531.020142 
	C674.262329,531.016663 672.300720,531.033325 672.669067,527.646790 
z"/>
<path fill="#D3991F" opacity="1.000000" stroke="none" 
	d="
M642.649170,413.321655 
	C643.552063,413.168732 644.081360,413.039642 644.542969,413.163269 
	C661.261108,417.641144 658.130066,413.309998 657.726929,430.084290 
	C657.671021,432.408936 657.284973,434.723907 657.147034,437.049011 
	C657.067566,438.388397 656.718811,439.286865 655.157593,439.279083 
	C653.679504,439.271729 653.177551,438.521301 653.042603,437.129272 
	C652.578857,432.347107 650.704651,428.357483 647.112366,424.939423 
	C639.189819,417.401154 614.881897,416.639496 609.773743,432.357361 
	C607.976013,437.888885 608.563354,443.073273 612.122986,447.943512 
	C618.716492,456.964691 628.543823,461.815948 637.412842,467.885284 
	C645.753784,473.593201 654.823242,478.330048 660.621826,487.137268 
	C666.407349,495.924866 665.591492,507.281128 660.357361,516.288025 
	C650.330566,533.542114 625.302734,536.673767 608.405212,532.804016 
	C606.785034,532.432983 605.186768,531.963806 603.583130,531.522827 
	C594.903625,529.136475 594.882690,529.136414 594.125854,520.278442 
	C593.714844,515.468201 593.358276,510.652618 593.045166,505.835022 
	C592.928650,504.041656 592.548828,502.090332 595.502747,502.044830 
	C597.833618,502.008911 598.992310,502.879700 598.917603,505.179871 
	C598.494019,518.216370 608.309448,524.547607 619.187317,526.323669 
	C627.768555,527.724670 635.850830,526.264648 643.227478,522.058289 
	C651.803650,517.167908 652.763000,502.897797 645.396301,494.856018 
	C640.520874,489.533752 634.373535,485.855927 628.259277,482.221924 
	C620.315491,477.500610 612.253479,473.013153 605.060303,467.116425 
	C595.514954,459.291534 592.310425,444.506042 596.952026,433.054504 
	C602.197876,420.112335 612.865723,415.646942 625.578735,413.173889 
	C631.390198,413.847656 636.821655,413.366882 642.649170,413.321655 
z"/>
<path fill="#8A1B01" opacity="1.000000" stroke="none" 
	d="
M684.182617,423.309692 
	C685.975037,425.860352 685.695618,429.244781 685.710876,432.518341 
	C685.839172,459.939392 685.895569,487.360840 685.957764,514.782166 
	C685.965332,518.107483 685.941284,521.441345 684.411011,524.892273 
	C684.147522,491.382263 684.150330,457.586792 684.182617,423.309692 
z"/>
<path fill="#E39639" opacity="1.000000" stroke="none" 
	d="
M937.111084,269.584778 
	C943.882629,269.524475 950.375000,272.422150 957.332458,273.170502 
	C969.630310,274.493195 981.853149,274.246735 994.063782,272.666534 
	C997.171631,272.264313 999.653320,272.556793 1001.598694,275.610657 
	C998.703308,273.059753 995.176086,273.820923 991.534851,274.326355 
	C973.153320,276.877899 955.049988,275.749115 937.111084,269.584778 
z"/>
<path fill="#E39639" opacity="1.000000" stroke="none" 
	d="
M672.382080,527.546753 
	C674.554932,527.676453 676.492920,528.053833 679.070557,528.555847 
	C677.517395,528.897522 676.528259,529.115112 675.539124,529.332703 
	C688.060181,530.310059 700.583862,529.269165 713.104309,530.817871 
	C711.847839,528.384705 709.577881,529.583252 708.009705,528.683289 
	C707.900879,528.620789 707.820007,528.414001 707.823730,528.277039 
	C707.827698,528.131042 707.947815,527.988342 708.166382,527.719360 
	C710.132874,527.581665 711.952515,527.620361 713.766663,527.538574 
	C715.117920,527.477722 716.516724,527.134521 716.495605,529.243530 
	C716.479248,530.880493 715.555176,531.618835 714.066589,531.821777 
	C713.413513,531.910828 712.748901,531.960449 712.090088,531.955933 
	C700.029114,531.872742 687.968201,531.763672 675.907166,531.698303 
	C673.244324,531.683838 671.174194,531.242737 672.382080,527.546753 
z"/>
<path fill="#7C0201" opacity="1.000000" stroke="none" 
	d="
M908.068481,422.950684 
	C908.423462,423.321869 908.777832,424.202209 909.181946,425.442810 
	C910.426270,427.796600 909.973816,430.002319 909.977966,432.124207 
	C910.024170,455.658997 909.981384,479.193878 910.033081,503.175903 
	C910.275146,504.729309 910.614746,505.819702 910.499390,507.363953 
	C910.527405,508.520752 910.356079,509.280212 910.474304,510.411682 
	C910.396240,512.917542 910.862976,515.112427 909.712036,517.486633 
	C909.357239,519.228577 909.157837,520.647339 908.859131,522.485596 
	C908.506531,520.943726 908.034302,518.982544 908.032776,517.021057 
	C908.008789,485.833984 908.045227,454.646942 908.068481,422.950684 
z"/>
<path fill="#ECAB3C" opacity="1.000000" stroke="none" 
	d="
M725.712769,416.166016 
	C726.138367,416.251373 726.062744,416.626221 726.032776,416.811646 
	C710.397278,417.012665 694.791565,416.999573 679.186340,417.076355 
	C676.980408,417.087189 674.380188,416.426025 672.967163,419.587097 
	C672.716064,420.112549 672.584106,420.273315 672.214722,420.231628 
	C671.904968,417.971222 671.100952,415.618256 674.730103,415.746368 
	C691.577881,416.340973 708.442383,414.668671 725.712769,416.166016 
z"/>
<path fill="#E39639" opacity="1.000000" stroke="none" 
	d="
M552.307251,288.786499 
	C553.040527,280.346924 553.106750,271.594727 553.101257,262.824585 
	C553.097961,257.622742 551.879272,252.657852 551.078247,247.602646 
	C550.751465,245.540146 549.987427,244.072983 547.158325,244.866837 
	C547.659302,243.118759 548.751892,241.510040 550.817078,240.212799 
	C554.353149,256.355347 556.401062,272.304718 552.307251,288.786499 
z"/>
<path fill="#E39639" opacity="1.000000" stroke="none" 
	d="
M1145.166382,441.647339 
	C1146.207397,428.346954 1146.247070,414.653381 1145.985352,400.486572 
	C1147.788940,399.565094 1147.254761,401.074738 1147.300903,401.796722 
	C1148.145630,415.031525 1147.486694,428.196045 1145.166382,441.647339 
z"/>
<path fill="#E39639" opacity="1.000000" stroke="none" 
	d="
M907.320801,525.960938 
	C906.135376,526.973694 904.293762,526.884338 902.469910,527.000244 
	C901.230042,527.079102 899.286438,526.816895 899.402893,528.599854 
	C899.512451,530.278748 901.456909,529.937500 902.697754,529.957703 
	C908.836365,530.057739 914.976501,530.081543 921.116150,530.098572 
	C926.758057,530.114258 932.400024,530.087341 938.507446,530.080322 
	C936.846008,531.419189 934.471313,530.836182 932.210083,530.856628 
	C921.800903,530.950439 911.390625,530.972290 900.981079,530.929443 
	C899.384399,530.922852 896.994202,531.781067 896.997314,528.756042 
	C897.000671,525.493164 899.552002,527.126099 901.017822,526.826782 
	C902.950867,526.432068 904.935303,526.288818 907.320801,525.960938 
z"/>
<path fill="#E39639" opacity="1.000000" stroke="none" 
	d="
M476.676758,352.787415 
	C477.046265,362.996552 476.447174,373.564728 477.995361,384.491638 
	C474.725037,374.459015 474.793396,363.829712 476.676758,352.787415 
z"/>
<path fill="#E39639" opacity="1.000000" stroke="none" 
	d="
M981.378662,530.423096 
	C986.562439,530.408691 991.780029,532.819580 997.333130,531.768860 
	C999.091003,531.436218 1000.844299,531.079529 1002.632019,530.727539 
	C1002.256836,528.125671 999.053955,530.312744 998.911377,527.885315 
	C1000.882324,528.852173 1004.688110,525.750000 1004.822388,529.905090 
	C1004.942078,533.608276 1001.183533,532.554504 999.096313,532.809326 
	C993.150757,533.535034 987.193237,533.426208 981.378662,530.423096 
z"/>
<path fill="#ECAB3C" opacity="1.000000" stroke="none" 
	d="
M701.054626,522.498535 
	C700.762756,522.405884 700.180786,521.845459 700.181335,521.285583 
	C700.193420,508.790802 699.403137,496.286224 700.747253,483.440613 
	C700.963318,496.061798 700.999573,509.046387 701.054626,522.498535 
z"/>
<path fill="#ECAB3C" opacity="1.000000" stroke="none" 
	d="
M926.065674,522.577698 
	C924.590332,519.880371 925.006958,516.498840 925.101379,513.204041 
	C925.391663,503.080017 924.259277,492.927063 925.855591,482.453766 
	C926.030396,495.421051 926.058167,508.762939 926.065674,522.577698 
z"/>
<path fill="#ECAB3C" opacity="1.000000" stroke="none" 
	d="
M607.462402,274.787598 
	C615.398621,273.513519 623.778442,273.816589 632.551514,274.589661 
	C624.596863,275.581940 616.248352,275.848755 607.462402,274.787598 
z"/>
<path fill="#ECAB3C" opacity="1.000000" stroke="none" 
	d="
M778.449707,787.873535 
	C790.376343,786.261902 802.792725,786.868591 815.599976,787.627136 
	C803.633911,787.818054 791.277161,787.872437 778.449707,787.873535 
z"/>
<path fill="#ECAB3C" opacity="1.000000" stroke="none" 
	d="
M522.437744,700.230469 
	C516.193970,701.730408 509.402771,700.471436 502.189697,701.076843 
	C502.033417,699.543030 502.035065,699.490295 503.210876,699.527283 
	C509.470917,699.724060 515.730042,699.949402 522.437744,700.230469 
z"/>
<path fill="#ECAB3C" opacity="1.000000" stroke="none" 
	d="
M897.136475,416.278259 
	C906.254822,415.937439 915.195190,415.937439 924.135498,415.937439 
	C924.140259,416.316528 924.144958,416.695618 924.149719,417.074707 
	C917.346436,417.074707 910.542664,417.033264 903.740051,417.099548 
	C901.660950,417.119812 899.280151,416.658173 898.029846,419.625183 
	C896.438904,419.189240 897.092407,417.793213 897.136475,416.278259 
z"/>
<path fill="#E39639" opacity="1.000000" stroke="none" 
	d="
M766.264771,462.549866 
	C766.369385,470.960480 765.774719,479.784973 766.847900,489.058594 
	C763.773926,480.749481 764.646912,471.859406 766.264771,462.549866 
z"/>
<path fill="#ECAB3C" opacity="1.000000" stroke="none" 
	d="
M1090.474609,699.607178 
	C1084.310791,702.021973 1077.580688,700.891296 1070.495605,700.361450 
	C1076.757690,700.011292 1083.404053,699.780762 1090.474609,699.607178 
z"/>
<path fill="#ECAB3C" opacity="1.000000" stroke="none" 
	d="
M1040.072266,262.449463 
	C1041.571167,268.363098 1040.989014,274.764252 1040.368530,281.546753 
	C1039.318359,275.596558 1039.601318,269.248627 1040.072266,262.449463 
z"/>
<path fill="#8A1B01" opacity="1.000000" stroke="none" 
	d="
M1023.877747,298.226929 
	C1026.508911,300.117462 1028.174438,302.973511 1030.542114,305.394470 
	C1027.142456,303.481812 1023.742676,301.569183 1020.103821,299.419312 
	C1021.166748,299.058716 1022.568176,299.435150 1023.877747,298.226929 
z"/>
<path fill="#8A1B01" opacity="1.000000" stroke="none" 
	d="
M672.230591,420.297394 
	C671.977356,420.029205 672.419250,420.049133 672.633667,420.000458 
	C676.649292,420.223694 680.663696,419.411713 684.153931,422.478699 
	C680.539429,421.219635 676.088379,423.119324 672.230591,420.297394 
z"/>
<path fill="#8A1B01" opacity="1.000000" stroke="none" 
	d="
M570.067261,301.006836 
	C568.314941,303.621338 564.927734,303.668671 562.465332,305.539673 
	C564.437073,303.460144 566.408752,301.380646 568.651001,299.111023 
	C569.241394,299.521027 569.561340,300.121124 570.067261,301.006836 
z"/>
<path fill="#ECAB3C" opacity="1.000000" stroke="none" 
	d="
M642.581482,413.130371 
	C637.645203,414.491760 632.203918,414.065918 626.367981,413.345154 
	C631.353699,413.166595 636.731140,413.123688 642.581482,413.130371 
z"/>
<path fill="#8A1B01" opacity="1.000000" stroke="none" 
	d="
M1019.674744,298.940521 
	C1018.686340,298.685425 1017.489502,298.167969 1016.060913,297.419006 
	C1017.223755,297.239594 1018.515930,297.541962 1019.674744,298.940521 
z"/>
<path fill="#8A1B01" opacity="1.000000" stroke="none" 
	d="
M681.983521,524.789429 
	C681.786621,524.560486 681.571533,524.111572 681.403564,523.645691 
	C681.369019,523.549866 681.510315,523.390686 681.570618,523.260681 
	C681.707764,523.694946 681.844910,524.129150 681.983521,524.789429 
z"/>
<path fill="#E39639" opacity="1.000000" stroke="none" 
	d="
M551.316284,292.264923 
	C551.278992,291.577789 551.503540,290.607635 551.890137,289.300293 
	C551.894165,289.969391 551.736145,290.975647 551.316284,292.264923 
z"/>
<path fill="#8A1B01" opacity="1.000000" stroke="none" 
	d="
M683.838196,525.135681 
	C683.701477,525.585571 683.199768,526.000977 682.469238,526.482666 
	C682.174683,526.209717 682.109009,525.870667 682.014160,525.273499 
	C681.985046,525.015442 681.998962,525.001221 682.005981,524.994385 
	C682.499756,525.025391 682.986511,525.063354 683.838196,525.135681 
z"/>
<path fill="#E39639" opacity="1.000000" stroke="none" 
	d="
M546.673889,245.048798 
	C546.713318,245.424515 546.462097,245.953766 546.048706,246.730301 
	C546.052124,246.385818 546.217651,245.794067 546.673889,245.048798 
z"/>
<path fill="#ECAB3C" opacity="1.000000" stroke="none" 
	d="
M926.922241,524.711670 
	C926.698120,524.497864 926.450439,523.979187 926.104858,523.189514 
	C926.304199,523.414612 926.601440,523.910706 926.922241,524.711670 
z"/>
<path fill="#E39639" opacity="1.000000" stroke="none" 
	d="
M545.676270,246.838242 
	C545.511414,247.185471 545.052063,247.482101 544.351196,247.909485 
	C544.533691,247.622726 544.957703,247.205185 545.676270,246.838242 
z"/>
<path fill="#8A1B01" opacity="1.000000" stroke="none" 
	d="
M1015.764526,297.025024 
	C1015.447693,296.996857 1014.890686,296.817139 1014.169006,296.397217 
	C1014.511047,296.395813 1015.017700,296.634644 1015.764526,297.025024 
z"/>
<path fill="#8A1B01" opacity="1.000000" stroke="none" 
	d="
M569.074463,298.834503 
	C569.076843,298.726959 569.239258,298.437317 569.616577,298.023071 
	C569.642822,298.157928 569.443909,298.409271 569.074463,298.834503 
z"/>
<path fill="#951109" opacity="1.000000" stroke="none" 
	d="
M547.359375,310.532013 
	C546.758606,311.989990 545.906067,313.146912 544.504639,315.048859 
	C544.487610,312.540680 545.305969,311.300171 546.371460,309.848602 
	C546.769592,309.831635 546.938660,310.031311 547.359375,310.532013 
z"/>
<path fill="#951109" opacity="1.000000" stroke="none" 
	d="
M1062.878174,628.948730 
	C1062.843506,630.227722 1063.475586,631.650940 1061.982788,632.497986 
	C1060.690430,631.328857 1062.163208,630.247192 1062.168213,628.869385 
	C1062.278320,628.584656 1062.679810,628.824646 1062.878174,628.948730 
z"/>
<path fill="#951109" opacity="1.000000" stroke="none" 
	d="
M1007.343506,698.602905 
	C1006.869080,699.487915 1006.150513,700.048401 1005.431946,700.608887 
	C1004.783020,699.489014 1005.827393,698.876465 1006.401001,697.846802 
	C1006.771118,697.847778 1006.935242,698.063110 1007.343506,698.602905 
z"/>
<path fill="#951109" opacity="1.000000" stroke="none" 
	d="
M1072.224854,370.802185 
	C1072.864868,371.413666 1074.266602,372.095398 1073.533691,372.932373 
	C1072.970215,373.575989 1072.338867,372.366821 1071.838135,371.478302 
	C1071.759888,371.215027 1072.068970,370.938782 1072.224854,370.802185 
z"/>
<path fill="#951109" opacity="1.000000" stroke="none" 
	d="
M1008.539551,713.934326 
	C1007.685486,714.947754 1006.856995,716.056213 1006.142700,715.409729 
	C1005.462097,714.793640 1006.606018,714.248901 1007.366333,713.666138 
	C1007.953796,713.493286 1008.315796,713.449158 1008.539551,713.934326 
z"/>
<path fill="#951109" opacity="1.000000" stroke="none" 
	d="
M934.214661,747.905762 
	C934.812195,746.874817 935.375977,746.331543 936.169556,745.609375 
	C936.577393,745.600891 936.755493,745.771362 937.197632,746.201599 
	C936.874146,746.970215 936.286682,747.479126 935.413330,748.068665 
	C934.812012,748.230591 934.496460,748.311951 934.214661,747.905762 
z"/>
<path fill="#951109" opacity="1.000000" stroke="none" 
	d="
M658.219543,746.826416 
	C659.140930,747.123047 660.544922,747.619812 660.072449,748.544067 
	C659.625000,749.419556 658.749023,748.201965 657.814087,747.829468 
	C657.727844,747.487854 657.867004,747.297913 658.219543,746.826416 
z"/>
<path fill="#951109" opacity="1.000000" stroke="none" 
	d="
M854.043945,771.008667 
	C853.304504,772.108337 852.400757,772.193726 850.866821,771.247742 
	C852.051514,771.154602 852.770020,771.098145 853.790833,771.053345 
	C854.093201,771.065063 854.058594,771.028931 854.043945,771.008667 
z"/>
<path fill="#951109" opacity="1.000000" stroke="none" 
	d="
M1090.873413,386.100769 
	C1091.526611,386.380798 1091.955200,386.777740 1091.546265,387.492798 
	C1091.250732,387.228943 1090.955322,386.965088 1090.594360,386.515442 
	C1090.528809,386.329681 1090.757935,386.176270 1090.873413,386.100769 
z"/>
<path fill="#951109" opacity="1.000000" stroke="none" 
	d="
M1007.793091,713.769836 
	C1007.937805,713.201111 1008.283875,712.864807 1008.837646,712.407837 
	C1009.271912,712.477966 1009.498474,712.668762 1010.060913,713.150513 
	C1009.908875,713.719727 1009.420898,713.997925 1008.667053,714.369873 
	C1008.265625,714.309814 1008.130005,714.156006 1007.793091,713.769836 
z"/>
<path fill="#951109" opacity="1.000000" stroke="none" 
	d="
M934.908569,747.965515 
	C934.641846,748.350891 934.156189,748.552490 933.670532,748.754089 
	C933.741455,748.422241 933.812317,748.090332 934.065796,747.588318 
	C934.395447,747.539368 934.542542,747.660583 934.908569,747.965515 
z"/>
<path fill="#951109" opacity="1.000000" stroke="none" 
	d="
M532.439514,631.784668 
	C532.802246,632.186829 533.287109,632.968872 531.889038,632.455566 
	C531.901917,632.155579 532.054138,632.047668 532.439514,631.784668 
z"/>
<path fill="#951109" opacity="1.000000" stroke="none" 
	d="
M872.150269,466.970642 
	C874.632812,480.911469 873.250977,494.296844 867.233032,506.350677 
	C857.841003,525.162659 838.581299,530.437012 820.197632,526.467834 
	C808.606262,523.965210 799.353699,517.361633 793.849854,507.523682 
	C781.845886,486.066925 778.121277,463.799255 790.936523,440.757782 
	C805.658875,414.287567 840.247559,413.318848 859.107483,434.802032 
	C866.856262,443.628632 870.604614,454.790222 872.150269,466.970642 
z"/>
<path fill="#951209" opacity="1.000000" stroke="none" 
	d="
M926.127625,422.200684 
	C930.877136,421.983643 935.197021,421.879517 939.506042,422.049408 
	C953.250061,422.591431 963.667297,431.614380 964.985962,443.995544 
	C966.548889,458.670258 959.333069,469.364899 945.134155,472.949005 
	C939.167480,474.455109 933.048828,475.194061 926.468140,473.919067 
	C925.461121,473.153198 925.494934,472.324463 925.500793,471.496643 
	C925.617188,455.144287 925.256958,438.790131 926.127625,422.200684 
z"/>
<path fill="#ECAB3C" opacity="1.000000" stroke="none" 
	d="
M909.538818,509.181091 
	C909.513245,507.868439 909.537415,506.874268 909.538208,505.507690 
	C909.508972,479.072205 909.452637,453.009125 909.747803,426.495544 
	C910.957458,427.866119 910.975464,429.863708 910.974182,431.859009 
	C910.956177,458.733124 910.937866,485.607208 910.902283,512.481323 
	C910.900085,514.121094 911.091003,515.827393 909.763672,517.535950 
	C909.537231,515.512512 909.517822,513.215271 909.476196,510.524109 
	C909.498779,509.919983 909.543701,509.709808 909.538818,509.181091 
z"/>
<path fill="#A04505" opacity="1.000000" stroke="none" 
	d="
M909.774475,425.977844 
	C909.889099,452.097931 909.825745,478.150879 909.638672,504.669525 
	C909.323853,503.493469 908.965637,501.851562 908.966858,500.209930 
	C908.985413,475.726135 909.051392,451.242371 909.168945,426.280884 
	C909.231689,425.803131 909.596497,425.910706 909.774475,425.977844 
z"/>
<path fill="#ECAB3C" opacity="1.000000" stroke="none" 
	d="
M926.349976,422.329559 
	C925.666992,438.946625 926.164673,455.945282 926.049194,473.384918 
	C925.825806,473.210754 925.400452,472.595154 925.380432,471.966644 
	C924.877625,456.153839 924.808899,440.339417 925.388977,424.527039 
	C925.411621,423.908630 925.878113,423.306488 926.349976,422.329559 
z"/>
<path fill="#951109" opacity="1.000000" stroke="none" 
	d="
M700.929077,423.346222 
	C709.398193,420.880371 717.409485,421.308258 725.056519,424.649902 
	C741.179382,431.695312 746.575928,450.028717 736.792480,464.681946 
	C732.393433,471.270538 725.914734,474.739136 717.921570,474.948029 
	C712.611328,475.086823 707.294189,474.960144 701.515503,474.923523 
	C700.021057,473.374207 700.526611,471.659882 700.526550,470.044769 
	C700.526184,454.590363 700.411926,439.135712 700.929077,423.346222 
z"/>
<path fill="#ECAB3C" opacity="1.000000" stroke="none" 
	d="
M701.091919,423.377136 
	C701.194458,440.001617 701.097351,456.992279 701.025513,474.438843 
	C700.981506,474.743408 700.861816,474.595947 700.849792,474.440155 
	C699.547241,457.540314 699.416260,440.640991 701.091919,423.377136 
z"/>
<path fill="#ECAB3C" opacity="1.000000" stroke="none" 
	d="
M725.998413,417.001465 
	C725.996826,417.002930 726.027222,417.034393 726.015015,417.015747 
	C726.002808,416.997101 726.000000,417.000000 725.998413,417.001465 
z"/>
<path fill="#A04505" opacity="1.000000" stroke="none" 
	d="
M909.376892,509.001404 
	C909.530640,509.074890 909.572144,509.287170 909.533813,509.814789 
	C909.365967,509.916321 909.258057,509.707794 909.198975,509.486298 
	C909.171692,509.384064 909.239807,509.256378 909.376892,509.001404 
z"/>
</svg>