<?xml version="1.0" encoding="UTF-8" standalone="no"?>
<!-- Created with Inkscape (http://www.inkscape.org/) -->

<svg
   width="142.33026mm"
   height="85.383263mm"
   viewBox="0 0 142.33026 85.383263"
   version="1.1"
   id="svg1"
   xml:space="preserve"
   sodipodi:docname="toki_pona_flag.svg"
   inkscape:version="1.3.2 (091e20e, 2023-11-25)"
   xmlns:inkscape="http://www.inkscape.org/namespaces/inkscape"
   xmlns:sodipodi="http://sodipodi.sourceforge.net/DTD/sodipodi-0.dtd"
   xmlns="http://www.w3.org/2000/svg"
   xmlns:svg="http://www.w3.org/2000/svg"><sodipodi:namedview
     id="namedview1"
     pagecolor="#ffffff"
     bordercolor="#000000"
     borderopacity="0.25"
     inkscape:showpageshadow="2"
     inkscape:pageopacity="0.0"
     inkscape:pagecheckerboard="0"
     inkscape:deskcolor="#d1d1d1"
     inkscape:document-units="mm"
     inkscape:zoom="0.4692594"
     inkscape:cx="275.96677"
     inkscape:cy="164.08835"
     inkscape:window-width="1472"
     inkscape:window-height="781"
     inkscape:window-x="34"
     inkscape:window-y="75"
     inkscape:window-maximized="0"
     inkscape:current-layer="layer1" /><defs
     id="defs1" /><g
     inkscape:label="Calque 1"
     inkscape:groupmode="layer"
     id="layer1"
     style="display:inline"
     transform="translate(-26.941586,-88.963074)"><rect
       style="fill:#cce2ed;fill-opacity:1;stroke:#000000;stroke-width:2.5;stroke-dasharray:none;stroke-opacity:1"
       id="rect1"
       width="139.83026"
       height="82.883263"
       x="28.191586"
       y="90.213074"
       ry="0.87324476" /><g
       transform="matrix(0.08240262,0,0,-0.09213948,71.410192,170.91872)"
       fill="#000099"
       stroke="none"
       id="g6"
       style="stroke-width:0.999394;stroke-dasharray:none"><path
         fill="#000099"
         stroke="none"
         d="m 302,838 c -14,-14 -16,-126 -3,-147 5,-8 16,-11 25,-8 12,5 16,21 16,71 0,89 -10,112 -38,84 z"
         id="path1"
         style="stroke-width:0.999394;stroke-dasharray:none" /><path
         fill="#000099"
         stroke="none"
         d="m 521,775 c -27,-57 -32,-108 -10,-113 18,-3 84,122 75,144 -11,30 -44,15 -65,-31 z"
         id="path2"
         style="stroke-width:0.999394;stroke-dasharray:none" /><path
         fill="#000099"
         stroke="none"
         d="M 34,797 C 26,775 93,639 110,643 148,650 99,810 59,810 48,810 37,804 34,797 Z"
         id="path3"
         style="stroke-width:0.999394;stroke-dasharray:none" /><path
         fill="#000099"
         stroke="none"
         d="M 254,590 C 204,583 126,538 79,490 -19,390 14,144 136,67 199,27 243,17 336,23 c 125,7 212,62 275,172 53,92 32,220 -51,317 -62,71 -170,99 -306,78 z"
         id="path4"
         style="stroke-width:0.999394;stroke-dasharray:none" /><path
         fill="#ffff63"
         stroke="none"
         d="M 443,539 C 490,526 555,469 581,419 605,371 607,272 584,229 562,186 502,121 467,104 330,33 190,49 116,145 77,197 65,237 65,320 c 1,77 19,113 82,161 80,63 198,86 296,58 z"
         id="path5"
         style="stroke-width:0.999394;stroke-dasharray:none" /><path
         fill="#000099"
         stroke="none"
         d="m 462,367 c -5,-7 -15,-28 -21,-48 -21,-67 -100,-120 -144,-98 -30,15 -65,56 -88,102 -21,40 -51,48 -57,14 -5,-26 53,-111 96,-141 89,-62 204,-7 252,119 15,40 -15,81 -38,52 z"
         id="path6"
         style="stroke-width:0.999394;stroke-dasharray:none" /></g></g></svg>
