<?xml version="1.0" encoding="UTF-8" standalone="no"?>
<!-- Uploaded to: SVG Repo, www.svgrepo.com, Generator: SVG Repo Mixer Tools -->

<svg
   fill="#000000"
   version="1.1"
   id="Icons"
   viewBox="0 0 32 32"
   xml:space="preserve"
   sodipodi:docname="airport.svg"
   inkscape:version="1.4.2 (f4327f4, 2025-05-13)"
   xmlns:inkscape="http://www.inkscape.org/namespaces/inkscape"
   xmlns:sodipodi="http://sodipodi.sourceforge.net/DTD/sodipodi-0.dtd"
   xmlns="http://www.w3.org/2000/svg"
   xmlns:svg="http://www.w3.org/2000/svg"><defs
   id="defs13"><inkscape:path-effect
     effect="fillet_chamfer"
     id="path-effect25"
     is_visible="true"
     lpeversion="1"
     nodesatellites_param="F,0,0,1,0,0,0,1 @ F,0,0,1,0,0,0,1 @ F,0,0,1,0,0,0,1 @ F,0,0,1,0,0,0,1 @ F,0,0,1,0,0,0,1 @ F,0,0,1,0,0,0,1 | F,0,0,1,0,0.48039714,0,1 @ F,0,0,1,0,0.47101771,0,1 @ F,0,0,1,0,0.51259216,0,1 @ F,0,1,1,0,0.48039714,0,1"
     radius="0"
     unit="px"
     method="auto"
     mode="F"
     chamfer_steps="1"
     flexible="false"
     use_knot_distance="true"
     apply_no_radius="true"
     apply_with_radius="true"
     only_selected="false"
     hide_knots="false" /><inkscape:path-effect
     effect="fillet_chamfer"
     id="path-effect24"
     is_visible="true"
     lpeversion="1"
     nodesatellites_param="F,0,0,1,0,0,0,1 @ F,0,0,1,0,1.373383,0,1 @ F,0,0,1,0,0,0,1 @ F,0,0,1,0,0,0,1"
     radius="0"
     unit="px"
     method="auto"
     mode="F"
     chamfer_steps="1"
     flexible="false"
     use_knot_distance="true"
     apply_no_radius="true"
     apply_with_radius="true"
     only_selected="false"
     hide_knots="false" /><inkscape:path-effect
     effect="fillet_chamfer"
     id="path-effect23"
     is_visible="true"
     lpeversion="1"
     nodesatellites_param="F,0,0,1,0,0.85277438,0,1 @ F,0,0,1,0,0.87532683,0,1 @ F,0,0,1,0,0,0,1 @ F,0,0,1,0,0,0,1"
     radius="0"
     unit="px"
     method="auto"
     mode="F"
     chamfer_steps="1"
     flexible="false"
     use_knot_distance="true"
     apply_no_radius="true"
     apply_with_radius="true"
     only_selected="false"
     hide_knots="false" /><inkscape:path-effect
     effect="fillet_chamfer"
     id="path-effect22"
     is_visible="true"
     lpeversion="1"
     nodesatellites_param="F,0,0,1,0,0,0,1 @ F,0,0,1,0,2.5773196,0,1 @ F,0,0,1,0,0,0,1 @ F,0,0,1,0,1.7182131,0,1"
     radius="0"
     unit="px"
     method="auto"
     mode="F"
     chamfer_steps="1"
     flexible="false"
     use_knot_distance="true"
     apply_no_radius="true"
     apply_with_radius="true"
     only_selected="false"
     hide_knots="false" /><inkscape:path-effect
     effect="fillet_chamfer"
     id="path-effect18"
     is_visible="true"
     lpeversion="1"
     nodesatellites_param="F,0,0,1,0,0.68115798,0,1 @ F,0,0,1,0,0.8130179,0,1 @ F,0,0,1,0,0,0,1 @ F,0,0,1,0,0,0,1"
     radius="0"
     unit="px"
     method="auto"
     mode="F"
     chamfer_steps="1"
     flexible="false"
     use_knot_distance="true"
     apply_no_radius="true"
     apply_with_radius="true"
     only_selected="false"
     hide_knots="false" /><inkscape:path-effect
     effect="fillet_chamfer"
     id="path-effect17"
     is_visible="true"
     lpeversion="1"
     nodesatellites_param="F,0,0,1,0,1.1319565,0,1 @ F,0,0,1,0,0.97634538,0,1 @ F,0,0,1,0,0.84036611,0,1 @ F,0,0,1,0,0.7905696,0,1"
     radius="0"
     unit="px"
     method="auto"
     mode="F"
     chamfer_steps="1"
     flexible="false"
     use_knot_distance="true"
     apply_no_radius="true"
     apply_with_radius="true"
     only_selected="false"
     hide_knots="false" /><inkscape:path-effect
     effect="fillet_chamfer"
     id="path-effect16"
     is_visible="true"
     lpeversion="1"
     nodesatellites_param="F,0,0,1,0,0.26918669,0,1 @ F,0,0,1,0,0.30355096,0,1 @ F,0,0,1,0,0,0,1 @ F,0,0,1,0,0,0,1"
     radius="0"
     unit="px"
     method="auto"
     mode="F"
     chamfer_steps="1"
     flexible="false"
     use_knot_distance="true"
     apply_no_radius="true"
     apply_with_radius="true"
     only_selected="false"
     hide_knots="false" /><inkscape:path-effect
     effect="fillet_chamfer"
     id="path-effect15"
     is_visible="true"
     lpeversion="1"
     nodesatellites_param="F,0,0,1,0,0.50973642,0,1 @ F,0,0,1,0,0.8190149,0,1 @ F,0,0,1,0,0,0,1 @ F,0,0,1,0,0,0,1"
     radius="0"
     unit="px"
     method="auto"
     mode="F"
     chamfer_steps="1"
     flexible="false"
     use_knot_distance="true"
     apply_no_radius="true"
     apply_with_radius="true"
     only_selected="false"
     hide_knots="false" /><inkscape:path-effect
     effect="fillet_chamfer"
     id="path-effect14"
     is_visible="true"
     lpeversion="1"
     nodesatellites_param="F,0,0,1,0,0.8877091,0,1 @ F,0,0,1,0,0.44668612,0,1 @ F,0,0,1,0,0.42951895,0,1 @ F,0,0,1,0,0.90487628,0,1 | F,0,0,1,0,0.29928629,0,1 @ F,0,0,1,0,0.30353602,0,1 @ F,0,0,1,0,0.24201252,0,1 @ F,0,0,1,0,0.33217291,0,1 | F,0,0,1,0,0.33593108,0,1 @ F,0,0,1,0,0.30353602,0,1 @ F,0,0,1,0,0.27865731,0,1 @ F,0,0,1,0,0.41808356,0,1 | F,0,0,1,0,0.29768359,0,1 @ F,0,0,1,0,0.27255534,0,1 @ F,0,0,1,0,0.24040982,0,1 @ F,0,0,1,0,0.30119222,0,1"
     radius="0"
     unit="px"
     method="auto"
     mode="F"
     chamfer_steps="1"
     flexible="false"
     use_knot_distance="true"
     apply_no_radius="true"
     apply_with_radius="true"
     only_selected="false"
     hide_knots="false" /><inkscape:path-effect
     effect="fillet_chamfer"
     id="path-effect4"
     is_visible="true"
     lpeversion="1"
     nodesatellites_param="F,0,0,1,0,0,0,1 @ F,0,0,1,0,0,0,1 @ F,0,0,1,0,0.98396776,0,1 @ F,0,0,1,0,0.90902474,0,1"
     radius="0"
     unit="px"
     method="auto"
     mode="F"
     chamfer_steps="1"
     flexible="false"
     use_knot_distance="true"
     apply_no_radius="true"
     apply_with_radius="true"
     only_selected="false"
     hide_knots="false" /><inkscape:path-effect
     effect="fillet_chamfer"
     id="path-effect3"
     is_visible="true"
     lpeversion="1"
     nodesatellites_param="F,0,0,1,0,0,0,1 @ F,0,0,1,0,0,0,1 @ F,0,0,1,0,0.99419457,0,1 @ F,0,0,1,0,0.88997446,0,1"
     radius="0"
     unit="px"
     method="auto"
     mode="F"
     chamfer_steps="1"
     flexible="false"
     use_knot_distance="true"
     apply_no_radius="true"
     apply_with_radius="true"
     only_selected="false"
     hide_knots="false" /><inkscape:path-effect
     effect="fillet_chamfer"
     id="path-effect3-5"
     is_visible="true"
     lpeversion="1"
     nodesatellites_param="F,0,0,1,0,0,0,1 @ F,0,0,1,0,0,0,1 @ F,0,0,1,0,0.99419457,0,1 @ F,0,0,1,0,0.88997446,0,1"
     radius="0"
     unit="px"
     method="auto"
     mode="F"
     chamfer_steps="1"
     flexible="false"
     use_knot_distance="true"
     apply_no_radius="true"
     apply_with_radius="true"
     only_selected="false"
     hide_knots="false" /><inkscape:path-effect
     effect="fillet_chamfer"
     id="path-effect3-7"
     is_visible="true"
     lpeversion="1"
     nodesatellites_param="F,0,0,1,0,0,0,1 @ F,0,0,1,0,0,0,1 @ F,0,0,1,0,0.99419457,0,1 @ F,0,0,1,0,0.88997446,0,1"
     radius="0"
     unit="px"
     method="auto"
     mode="F"
     chamfer_steps="1"
     flexible="false"
     use_knot_distance="true"
     apply_no_radius="true"
     apply_with_radius="true"
     only_selected="false"
     hide_knots="false" /><inkscape:path-effect
     effect="fillet_chamfer"
     id="path-effect24-9"
     is_visible="true"
     lpeversion="1"
     nodesatellites_param="F,0,0,1,0,0,0,1 @ F,0,0,1,0,1.373383,0,1 @ F,0,0,1,0,0,0,1 @ F,0,0,1,0,0,0,1"
     radius="0"
     unit="px"
     method="auto"
     mode="F"
     chamfer_steps="1"
     flexible="false"
     use_knot_distance="true"
     apply_no_radius="true"
     apply_with_radius="true"
     only_selected="false"
     hide_knots="false" /></defs><sodipodi:namedview
   id="namedview11"
   pagecolor="#999999"
   bordercolor="#666666"
   borderopacity="1.0"
   inkscape:pageshadow="2"
   inkscape:pageopacity="0.0"
   inkscape:pagecheckerboard="0"
   showgrid="false"
   inkscape:zoom="12.346084"
   inkscape:cx="17.495426"
   inkscape:cy="17.292932"
   inkscape:window-width="1920"
   inkscape:window-height="991"
   inkscape:window-x="-9"
   inkscape:window-y="-9"
   inkscape:window-maximized="1"
   inkscape:current-layer="Icons"
   inkscape:showpageshadow="2"
   inkscape:deskcolor="#d1d1d1" />

<path
   style="fill:#ffffff;fill-opacity:1;stroke:none;stroke-width:1.05887;stroke-opacity:1"
   id="rect6"
   width="4.1237111"
   height="8.4765177"
   x="4.9255443"
   y="20.160366"
   inkscape:path-effect="#path-effect16"
   sodipodi:type="rect"
   d="m 5.194731,20.160366 h 3.5509734 a 0.30355096,0.30355096 45 0 1 0.303551,0.303551 v 8.172967 H 4.9255443 V 20.429553 A 0.26918669,0.26918669 135 0 1 5.194731,20.160366 Z"
   transform="matrix(1,0,0,0.67033535,-0.56698138,4.7832213)" /><path
   id="rect7"
   style="fill:#ffffff;fill-opacity:0;stroke:#ffffff;stroke-opacity:1"
   d="m 4.1101925,14.432989 h 5.5663831 a 0.73710159,0.73710159 52.94866 0 1 0.7089104,0.939004 L 9.7086478,17.748474 A 1.1131269,1.1131269 142.94866 0 1 8.6380935,18.5567 H 5.1052617 A 1.087268,1.087268 36.021488 0 1 4.0709567,17.804641 L 3.3272222,15.509806 a 0.82306334,0.82306334 126.02149 0 1 0.7829703,-1.076817 z"
   sodipodi:nodetypes="ccccc"
   inkscape:path-effect="#path-effect17"
   inkscape:original-d="m 2.978236,14.432989 h 7.674685 L 9.4784596,18.5567 H 4.3146921 Z"
   transform="translate(-0.56698138,-1.8629388)" /><path
   style="fill:#ffffff;stroke-width:1.06156"
   id="rect8"
   width="25.429552"
   height="2.1764033"
   x="4.8109965"
   y="26.804125"
   inkscape:path-effect="#path-effect15"
   sodipodi:type="rect"
   d="m 5.320733,26.804125 h 24.100801 a 0.8190149,0.8190149 45 0 1 0.819015,0.819015 v 1.357388 H 4.8109965 V 27.313861 A 0.50973642,0.50973642 135 0 1 5.320733,26.804125 Z"
   transform="translate(-0.56698138,-1.8629388)" /><path
   id="rect9"
   style="fill:#ffffff;stroke-width:0.843115"
   d="m 10.824219,21.504897 v 3.819901 a 0.44668612,0.44668612 45 0 0 0.446686,0.446686 h 5.881607 a 0.42951895,0.42951895 135 0 0 0.429519,-0.429519 v -3.819901 a 0.90487628,0.90487628 45 0 0 -0.904876,-0.904876 h -4.965227 a 0.8877091,0.8877091 135 0 0 -0.887709,0.887709 z m 5.182098,0.477525 h 0.385459 a 0.30353602,0.30353602 45 0 1 0.303536,0.303536 v 1.057967 a 0.24201252,0.24201252 135 0 1 -0.242013,0.242013 h -0.414095 a 0.33217291,0.33217291 45 0 1 -0.332173,-0.332173 v -0.972057 a 0.29928629,0.29928629 135 0 1 0.299286,-0.299286 z m -3.871558,0.06641 h 0.428893 a 0.30353602,0.30353602 45 0 1 0.303536,0.303536 l 0,1.021323 a 0.27865731,0.27865731 135 0 1 -0.278657,0.278657 h -0.371619 a 0.41808356,0.41808356 45 0 1 -0.418084,-0.418084 v -0.849501 a 0.33593108,0.33593108 135 0 1 0.335931,-0.335931 z m 1.93194,-0.03803 h 0.402015 a 0.27255534,0.27255534 45 0 1 0.272555,0.272555 v 1.067113 a 0.24040982,0.24040982 135 0 1 -0.24041,0.24041 h -0.430652 a 0.30119222,0.30119222 45 0 1 -0.301192,-0.301192 v -0.981202 a 0.29768359,0.29768359 135 0 1 0.297684,-0.297684 z"
   sodipodi:nodetypes="cccccccccccccccccccc"
   inkscape:path-effect="#path-effect14"
   inkscape:original-d="m 10.824219,20.617188 v 5.154296 h 6.757812 v -5.154296 z m 4.882812,1.365234 h 0.988281 v 1.603516 h -0.988281 z m -3.908203,0.06641 c 0.766479,0 0.719405,0 1.06836,0 v 1.603516 h -1.06836 z m 1.970187,-0.03803 h 0.972254 v 1.580078 h -0.972254 z"
   transform="translate(-0.73880269,-1.5192962)" /><path
   id="rect16"
   style="fill:#ffffff;stroke-width:2.26078"
   d="m 6.4318213,9.7864913 0.4500848,-0.00938 A 1.122741,1.122741 34.716188 0 1 7.9644544,10.527159 L 8.990705,13.44556 H 4.5763497 L 5.5419042,10.449011 A 0.95589332,0.95589332 143.3333 0 1 6.4318213,9.7864913 Z"
   sodipodi:nodetypes="ccccc"
   inkscape:path-effect="#path-effect18"
   inkscape:original-d="M 5.7508111,9.800679 7.6947476,9.7601804 8.990705,13.44556 H 4.5763497 Z"
   transform="translate(-0.4049867,-2.3489229)" /><rect
   style="fill:#ffffff;fill-opacity:1;stroke:none;stroke-opacity:1"
   id="rect18"
   width="0.97196811"
   height="3.6043816"
   x="5.912806"
   y="12.878577" /><path
   id="rect19"
   style="fill:#ffffff"
   d="m 13.172884,10.88292 v 1.144531 c -2.97e-4,0.949362 0.769388,1.719047 1.71875,1.71875 H 27.147493 V 13.459092 C 27.14686,12.036574 25.993839,10.883553 24.571321,10.88292 Z m 10.617091,0.518617 1.015661,0.01046 a 0.82852871,0.82852871 30.208009 0 1 0.707738,0.412046 l 0.09284,0.159689 a 0.2949095,0.2949095 119.9131 0 1 -0.25495,0.443138 h -1.500519 a 0.50955713,0.50955713 43.312789 0 1 -0.508674,-0.479564 l -0.0042,-0.07115 a 0.4482579,0.4482579 133.6077 0 1 0.452095,-0.474619 z"
   transform="translate(0.57849402,-1.5192962)"
   sodipodi:nodetypes="cccccccccccc"
   inkscape:path-effect="#path-effect25"
   inkscape:original-d="m 13.172884,10.88292 v 1.144531 c -2.97e-4,0.949362 0.769388,1.719047 1.71875,1.71875 H 27.147493 V 13.459092 C 27.14686,12.036574 25.993839,10.883553 24.571321,10.88292 Z m 10.136719,0.513672 1.967026,0.02025 0.58723,1.010024 h -2.493508 z" /><path
   id="rect20"
   style="fill:#ffffff"
   d="m 13.133681,9.054645 0.424679,0.016958 a 2.1953362,2.1953362 24.024963 0 1 1.485281,0.6620649 l 0.950852,0.9765266 -2.148046,1.345934 -1.174108,-2.2775288 A 0.49673826,0.49673826 122.50741 0 1 13.133681,9.054645 Z"
   sodipodi:nodetypes="ccccc"
   inkscape:path-effect="#path-effect23"
   inkscape:original-d="m 12.281586,9.0206187 2.151404,0.085911 1.561503,1.6036653 -2.148046,1.345934 z"
   transform="matrix(1.2429151,0,0,1,-3.1501008,-0.66018973)" /><path
   id="rect21"
   style="fill:#ffffff"
   d="m 16.55212,5.9564722 0.519166,0.031465 a 3.029806,3.029806 27.852576 0 1 2.211925,1.1688106 l 2.309,2.9807096 -3.780069,-0.05727 z"
   sodipodi:nodetypes="ccccc"
   inkscape:path-effect="#path-effect24"
   inkscape:original-d="m 16.55212,5.9564722 1.890034,0.1145475 3.150057,4.0664373 -3.780069,-0.05727 z"
   transform="translate(0.57849402,-1.5192962)" /><path
   id="rect21-4"
   style="fill:#ffffff"
   d="m 16.55212,5.9564722 0.519166,0.031465 a 3.029806,3.029806 27.852576 0 1 2.211925,1.1688106 l 2.309,2.9807096 -3.780069,-0.05727 z"
   sodipodi:nodetypes="ccccc"
   inkscape:path-effect="#path-effect24-9"
   inkscape:original-d="m 16.55212,5.9564722 1.890034,0.1145475 3.150057,4.0664373 -3.780069,-0.05727 z"
   transform="matrix(1,0,0,-1.1643836,1.0355378,23.59387)" /></svg>
