<?xml version="1.0" encoding="iso-8859-1"?>
<!-- Uploaded to: SVG Repo, www.svgrepo.com, Generator: SVG Repo Mixer Tools -->
<!DOCTYPE svg PUBLIC "-//W3C//DTD SVG 1.1//EN" "http://www.w3.org/Graphics/SVG/1.1/DTD/svg11.dtd">
<svg fill="#000000" height="800px" width="800px" version="1.1" id="Capa_1" xmlns="http://www.w3.org/2000/svg" xmlns:xlink="http://www.w3.org/1999/xlink" 
	 viewBox="0 0 264.464 264.464" xml:space="preserve">
<g>
	<path d="M214.568,30c4.992,0,9.984,1.86,13.847,5.579c8.065,7.765,7.874,20.914-0.043,28.831l-41.141,41.141l40.765,104.587
		c2.855,8.019-0.223,16.954-7.423,21.506c-2.996,1.895-6.372,2.82-9.727,2.82c-4.705,0-9.369-1.819-12.885-5.335l-54.974-79.335
		L93.892,198.89l-0.116,26.02c-0.022,4.312-3.022,8.035-7.232,8.972c-0.67,0.149-1.342,0.221-2.007,0.221c-0.001,0-0.002,0-0.003,0
		c-3.507,0-6.79-2.005-8.343-5.279l-5.881-12.396c-4.62-9.737-12.462-17.58-22.2-22.2l-12.141-5.76
		c-3.639-1.726-5.95-5.547-5.471-9.546c0.561-4.689,4.508-8.137,9.131-8.16l25.768,0.136l49.348-49.348L35.409,66.577
		c-6.022-6.022-7.067-15.414-2.515-22.612c3.413-5.398,9.291-8.48,15.399-8.48c2.037,0,4.101,0.343,6.107,1.057l104.587,40.765
		l41.459-41.459C204.346,31.95,209.457,30,214.568,30 M214.568,0c-13.347,0-25.896,5.198-35.334,14.636l-27.606,27.606L65.296,8.591
		c-0.276-0.107-0.553-0.211-0.831-0.31c-5.209-1.855-10.649-2.795-16.169-2.796c-16.633-0.001-31.87,8.391-40.758,22.447
		C1.711,37.146-0.835,48.19,0.37,59.028C1.576,69.865,6.486,80.08,14.196,87.79c1.27,1.27,2.651,2.423,4.127,3.446l49.802,34.509
		l-15.089,15.089l-13.249-0.07c-0.053,0-0.106,0-0.159,0c-0.048,0-0.095,0-0.143,0C19.73,140.858,3.061,155.73,0.711,175.356
		c-2.005,16.747,6.996,32.909,22.399,40.217l12.14,5.76c3.48,1.651,6.305,4.477,7.956,7.956l5.881,12.395
		c6.458,13.617,20.373,22.419,35.447,22.419c2.858,0,5.723-0.315,8.517-0.936c8.657-1.927,16.479-6.784,22.037-13.68
		c5.557-6.895,8.643-15.57,8.688-24.426l0.061-13.69l14.958-14.958l34.509,49.802c1.023,1.476,2.176,2.857,3.445,4.126
		c9.106,9.107,21.216,14.122,34.098,14.122c9.132,0,18.041-2.582,25.763-7.465c9.214-5.826,16.249-14.714,19.806-25.025
		c3.554-10.303,3.498-21.632-0.157-31.898c-0.099-0.279-0.203-0.557-0.31-0.833l-33.65-86.333l27.287-27.287
		c9.533-9.533,14.927-22.757,14.799-36.28c-0.128-13.521-5.513-26.084-15.162-35.375C239.867,4.961,227.56,0,214.568,0L214.568,0z"
		/>
</g>
</svg>