<svg xmlns="http://www.w3.org/2000/svg" version="1.1" viewBox="0 0 64 64"><g><path d="M57.456,52.544C51.13,46.218,42.864,42.541,34,42.059V24h14c0.737,0,1.415-0.406,1.764-1.056   c0.348-0.65,0.31-1.439-0.1-2.053L46.403,16l3.261-4.891c0.409-0.614,0.447-1.403,0.1-2.053C49.415,8.406,48.737,8,48,8H32   c-1.104,0-2,0.896-2,2v32.059c-8.864,0.482-17.13,4.159-23.456,10.485c-0.778,0.777-0.74,2.079,0.033,2.861   C6.953,55.786,7.465,56,8,56h48c0.53,0,1.081-0.253,1.456-0.628C58.237,54.591,58.237,53.325,57.456,52.544z"/></g></svg>
