<svg xmlns="http://www.w3.org/2000/svg" version="1.1" viewBox="5 5 90 90">
 <path fill="#2563eb" d="m43.5 61.258c1.9102 1.1094 4.1328 1.7422 6.5 1.7422 2.3516 0 4.5547-0.625 6.4609-1.7188l8.9414 15.621c-4.707 2.6953-10.035 4.1094-15.457 4.0977-5.4258-0.011719-10.75-1.4414-15.445-4.1523z"/>
 <path fill="#2563eb" d="m50 41c4.9688 0 9 4.0312 9 9s-4.0312 9-9 9-9-4.0312-9-9 4.0312-9 9-9z"/>
 <path fill="#2563eb" d="m65.598 23.211c4.6875 2.7266 8.5742 6.6367 11.277 11.336 2.7031 4.7031 4.125 10.031 4.125 15.453h-18c0-4.793-2.5977-8.9844-6.4609-11.234z"/>
 <path fill="#2563eb" d="m43.5 38.738c-3.875 2.2422-6.4844 6.4219-6.5 11.215l-18-0.066406c0.019531-5.4219 1.4609-10.746 4.1797-15.434 2.7227-4.6914 6.625-8.5898 11.32-11.301z"/>
 <path fill="#2563eb" fill-rule="evenodd" d="m50 5c24.852 0 45 20.148 45 45s-20.148 45-45 45-45-20.148-45-45 20.148-45 45-45zm0 8c-20.434 0-37 16.566-37 37s16.566 37 37 37 37-16.566 37-37-16.566-37-37-37z"/>
</svg>