<svg width="9" height="12" viewBox="0 0 9 12" fill="none" xmlns="http://www.w3.org/2000/svg">
<path d="M2.64645 5.35355L1.58579 6.41421C1.21071 6.78929 1 7.29799 1 7.82843V9C1 9.62951 1.29639 10.2223 1.8 10.6L2.46667 11.1C2.81286 11.3596 3.23393 11.5 3.66667 11.5H5.33333C5.76607 11.5 6.18714 11.3596 6.53333 11.1L7.2 10.6C7.70361 10.2223 8 9.62951 8 9V7.82843C8 7.29799 7.78929 6.78929 7.41421 6.41421L6.35355 5.35355C6.12718 5.12718 6 4.82014 6 4.5C6 4.17986 6.12718 3.87282 6.35355 3.64645L6.64645 3.35355C6.87282 3.12718 7 2.82014 7 2.5C7 2.17986 6.87282 1.87282 6.64645 1.64645L6.5 1.5C6.17986 1.17986 5.74565 1 5.29289 1H3.70711C3.25435 1 2.82014 1.17986 2.5 1.5L2.35355 1.64645C2.12718 1.87282 2 2.17986 2 2.5C2 2.82014 2.12718 3.12718 2.35355 3.35355L2.64645 3.64645C2.87282 3.87282 3 4.17986 3 4.5C3 4.82014 2.87282 5.12718 2.64645 5.35355Z" stroke="white"/>
<path d="M5.52731 9.5H5.5" stroke="white" stroke-width="0.8" stroke-linecap="round"/>
<path d="M6.52731 8.5H6.5" stroke="white" stroke-width="0.8" stroke-linecap="round"/>
</svg>
