<svg version="1.2" xmlns="http://www.w3.org/2000/svg" viewBox="0 0 32 32" width="32" height="32">
	<style>
		.s0 { fill: #fefffe } 
		.s1 { fill: #ffffff } 
	</style>
	<path class="s0" d="m22.25 1.5c-3.34 0-6.35 2.01-7.62 5.09-1.28 3.09-0.57 6.63 1.79 8.99 2.36 2.36 5.9 3.07 8.99 1.79 3.08-1.27 5.09-4.28 5.09-7.62q0-0.64-0.09-1.25-0.35 0.48-0.79 0.87-0.45 0.39-0.98 0.66-0.52 0.27-1.1 0.41-0.57 0.14-1.17 0.14c-1.04 0-2.07-0.34-2.91-0.96-0.85-0.62-1.48-1.49-1.8-2.49-0.32-1-0.32-2.07 0.01-3.07 0.33-0.99 0.97-1.86 1.83-2.47q-0.61-0.09-1.25-0.09z"/>
	<path class="s1" d="m2.03 26.16v-4.8l0.26-0.26 0.25-0.25 3.52 0.02 3.52 0.02 0.17 0.21 0.18 0.21v4.83 4.83h-3.95-3.95zm2.88 2.66v-0.74h-0.74-0.73v0.74 0.74h0.73 0.74zm3.69 0v-0.74h-1.14-1.15v0.74 0.74h1.15 1.14zm-3.69-2.92v-0.77h-0.74-0.73v0.77 0.78h0.73 0.74zm3.69 0v-0.78h-1.14-1.15v0.78 0.77h1.15 1.14zm-3.69-2.91v-0.74h-0.74-0.73v0.74 0.73h0.73 0.74zm3.69 0v-0.73h-1.14-1.15v0.73 0.74h1.15 1.14zm2.88-2.09c0-0.95-0.02-1.37-0.09-1.44-0.06-0.06-0.9-0.08-3.29-0.08h-3.2l0.02-1.17c0.03-1.27 0.1-1.5 0.48-1.64 0.25-0.1 7.49-0.1 7.73 0 0.11 0.04 0.25 0.16 0.32 0.27 0.12 0.18 0.14 0.45 0.16 2.81l0.02 2.6h-1.08-1.07zm0 6.71v-3.36l0.22-0.24 0.21-0.24h2.02c1.82 0 2.04 0.01 2.23 0.13 0.11 0.07 0.23 0.22 0.27 0.32 0.04 0.11 0.07 1.56 0.07 3.46v3.28h-0.89-0.88v-1.44-1.43h-0.74-0.74v1.43 1.44h-0.88-0.89z"/>
</svg>