<?xml version="1.0" standalone="no"?>
<!DOCTYPE svg PUBLIC "-//W3C//DTD SVG 20010904//EN"
 "http://www.w3.org/TR/2001/REC-SVG-20010904/DTD/svg10.dtd">
<svg version="1.0" xmlns="http://www.w3.org/2000/svg"
 width="2480.000000pt" height="2480.000000pt" viewBox="0 0 2480.000000 2480.000000"
 preserveAspectRatio="xMidYMid meet">

<g transform="translate(0.000000,2480.000000) scale(0.100000,-0.100000)"
fill="#000000" stroke="none">
<path d="M12880 20500 l0 -920 460 0 460 0 0 -920 0 -920 -460 0 -460 0 0
-460 0 -460 -460 0 -460 0 0 -460 0 -460 -460 0 -460 0 0 -460 0 -460 -460 0
-460 0 0 -460 0 -460 -920 0 -920 0 0 -460 0 -460 -460 0 -460 0 0 -460 0
-460 -460 0 -460 0 0 -443 c0 -417 -1 -445 -18 -460 -17 -16 -95 -17 -920 -17
l-902 0 0 -2760 0 -2760 7820 0 7820 0 0 4600 0 4600 -460 0 -460 0 0 920 0
920 -460 0 -460 0 0 920 0 920 -460 0 -460 0 0 460 0 460 -460 0 -460 0 0 460
0 460 -460 0 -460 0 0 460 0 460 -1380 0 -1380 0 0 -920z m2760 -4140 l0 -460
460 0 460 0 0 -460 0 -460 460 0 460 0 0 -460 0 -460 920 0 920 0 0 -3220 0
-3220 -1840 0 -1840 0 0 460 0 460 -460 0 -460 0 0 1380 0 1380 -460 0 -460 0
0 1380 0 1380 -460 0 -460 0 0 460 0 460 460 0 460 0 0 460 0 460 460 0 460 0
0 460 0 460 460 0 460 0 0 -460z m-3680 -2760 l0 -460 -460 0 -460 0 0 460 0
460 460 0 460 0 0 -460z m0 -2300 l0 -920 460 0 460 0 0 -460 0 -460 460 0
460 0 0 -920 0 -920 -460 0 -460 0 0 460 0 460 -460 0 -460 0 0 920 0 920
-460 0 -460 0 0 920 0 920 460 0 460 0 0 -920z m-3552 0 l792 0 0 -1840 0
-1840 -1380 0 -1380 0 0 1370 0 1370 480 0 480 0 0 460 0 460 -32 0 c-19 0
-28 4 -22 9 17 17 49 20 159 16 61 -3 467 -5 903 -5z"/>
</g>
</svg>
