<?xml version="1.0" encoding="utf-8"?>
<svg xmlns="http://www.w3.org/2000/svg" viewBox="0 0 24 24">
  <g transform="matrix(1, 0, 0, 1, -7.632, 5.829)">
    <path fill="#fefffe"
          d="M 22.551 3.671 C 22.551 5.052 21.432 6.171 20.051 6.171 C 18.67 6.171 17.551 5.052 17.551 3.671 C 17.551 2.29 18.67 1.171 20.051 1.171 C 21.432 1.171 22.551 2.29 22.551 3.671 Z M 16.551 9.671 L 16.551 15.171 L 18.551 15.171 L 18.551 18.171 L 20.551 18.171 L 20.551 15.171 L 21.551 15.171 L 21.551 7.171 L 19.051 7.171 C 17.672 7.171 16.551 8.292 16.551 9.671 Z M 27.551 4.171 C 28.932 4.171 30.051 3.052 30.051 1.671 C 30.051 0.29 28.932 -0.829 27.551 -0.829 C 26.17 -0.829 25.051 0.29 25.051 1.671 C 25.051 3.052 26.17 4.171 27.551 4.171 Z M 31.551 14.171 L 30.051 14.171 L 30.051 18.171 L 28.051 18.171 L 28.051 14.171 L 27.051 14.171 L 27.051 18.171 L 25.051 18.171 L 25.051 14.171 L 23.551 14.171 L 23.551 7.671 C 23.551 6.292 24.672 5.171 26.051 5.171 L 29.051 5.171 C 30.43 5.171 31.551 6.292 31.551 7.671 L 31.551 14.171 Z M 13.051 3.171 C 11.67 3.171 10.551 4.29 10.551 5.671 C 10.551 7.052 11.67 8.171 13.051 8.171 C 14.432 8.171 15.551 7.052 15.551 5.671 C 15.551 4.29 14.432 3.171 13.051 3.171 Z M 9.551 11.671 L 9.551 16.171 L 11.551 16.171 L 11.551 18.171 L 13.551 18.171 L 13.551 16.171 L 14.551 16.171 L 14.551 9.171 L 12.051 9.171 C 10.672 9.171 9.551 10.292 9.551 11.671 Z"/>
  </g>
  <g transform="matrix(1, 0, 0, 1, 0.30625, 8.251)">
    <path fill="#fefffe"
          d="M 11.694 -3.251 C 11.694 -2.698 12.141 -2.251 12.694 -2.251 C 13.247 -2.251 13.694 -2.698 13.694 -3.251 L 13.694 -6.751 C 13.694 -7.578 13.021 -8.251 12.194 -8.251 L 8.694 -8.251 C 8.141 -8.251 7.694 -7.804 7.694 -7.251 C 7.694 -6.698 8.141 -6.251 8.694 -6.251 L 10.224 -6.251 L 7.081 -3.245 C 7.015 -3.182 6.908 -3.182 6.843 -3.249 L 6.094 -3.996 C 5.248 -4.842 3.871 -4.842 3.026 -3.996 L -0.013 -0.959 C -0.404 -0.568 -0.404 0.064 -0.013 0.455 C 0.378 0.846 1.01 0.846 1.401 0.455 L 4.439 -2.582 C 4.496 -2.639 4.623 -2.64 4.679 -2.582 L 5.427 -1.836 C 6.254 -1.008 7.615 -0.992 8.462 -1.801 L 11.693 -4.89 L 11.693 -3.252 L 11.694 -3.251 Z"/>
  </g>
</svg>
