<?xml version="1.0" encoding="UTF-8"?>
<svg width="1200pt" height="1200pt" version="1.1" viewBox="0 0 1200 1200" xmlns="http://www.w3.org/2000/svg">
 <path d="m1119.8 402.28-75 300c-12.516 50.156-57.422 85.219-109.12 85.219h-527.34l17.156 75.609c1.9688-0.09375 3.7969-0.60938 5.7188-0.60938 48.844 0 90.094 31.453 105.61 75h276.32c15.516-43.547 56.766-75 105.61-75 62.016 0 112.5 50.484 112.5 112.5s-50.484 112.5-112.5 112.5c-48.844 0-90.094-31.453-105.61-75h-276.32c-15.516 43.547-56.766 75-105.61 75-62.016 0-112.5-50.484-112.5-112.5 0-32.719 14.25-61.875 36.562-82.453l-160.26-705.05h-82.547c-20.719 0-37.5-16.781-37.5-37.5s16.781-37.5 37.5-37.5h82.594c35.203 0 65.297 24 73.078 58.406l20.812 91.594h721.69c34.875 0 67.219 15.75 88.641 43.266 21.469 27.469 28.922 62.672 20.484 96.516z"/>
</svg>
