<svg xmlns="http://www.w3.org/2000/svg" viewBox="0 0 500 500" width="500" height="500" fill="white">
  <!-- Main hull: horizontal capsule -->
  <path d="M 120,285 L 375,285 Q 450,285 450,350 Q 450,415 375,415 L 120,415 Q 45,415 45,350 Q 45,285 120,285 Z"/>
  <!-- Conning tower (sail) with rounded top -->
  <path d="M 160,285 L 160,205 Q 160,188 178,188 L 278,188 Q 296,188 296,205 L 296,285 Z"/>
  <!-- Periscope vertical stem -->
  <rect x="190" y="95" width="22" height="97"/>
  <!-- Periscope horizontal arm -->
  <rect x="190" y="95" width="68" height="22"/>
  <!-- Periscope tip dot (lens) -->
  <circle cx="258" cy="106" r="13"/>
  <!-- Propeller blades at stern -->
  <ellipse cx="62" cy="326" rx="13" ry="38" transform="rotate(20 62 326)"/>
  <ellipse cx="62" cy="374" rx="13" ry="38" transform="rotate(-20 62 374)"/>
  <!-- Rear horizontal stabilisers -->
  <path d="M 55,340 L 90,310 L 90,285 L 70,285 L 55,310 Z"/>
  <path d="M 55,360 L 90,390 L 90,415 L 70,415 L 55,390 Z"/>
</svg>
