<?xml version="1.0" encoding="UTF-8" standalone="no"?>
<svg
   width="100"
   height="100"
   version="1.1"
   id="svg7"
   sodipodi:docname="TraitorIconConfirmWhite.svg"
   inkscape:version="1.4 (86a8ad7, 2024-10-11)"
   xmlns:inkscape="http://www.inkscape.org/namespaces/inkscape"
   xmlns:sodipodi="http://sodipodi.sourceforge.net/DTD/sodipodi-0.dtd"
   xmlns="http://www.w3.org/2000/svg"
   xmlns:svg="http://www.w3.org/2000/svg">
  <sodipodi:namedview
     id="namedview7"
     pagecolor="#ffffff"
     bordercolor="#000000"
     borderopacity="0.25"
     inkscape:showpageshadow="2"
     inkscape:pageopacity="0.0"
     inkscape:pagecheckerboard="0"
     inkscape:deskcolor="#d1d1d1"
     inkscape:zoom="8.07"
     inkscape:cx="50"
     inkscape:cy="50"
     inkscape:window-width="1920"
     inkscape:window-height="1009"
     inkscape:window-x="-8"
     inkscape:window-y="-8"
     inkscape:window-maximized="1"
     inkscape:current-layer="svg7" />
  <g
     fill="#d40000"
     id="g5">
    <use
       href="#B"
       fill-opacity="0"
       id="use1" />
    <use
       href="#B"
       fill-opacity="0"
       id="use2" />
    <use
       href="#B"
       fill-opacity="0"
       id="use3" />
    <use
       href="#B"
       fill-opacity="0"
       id="use4" />
    <use
       href="#B"
       fill-opacity="0"
       id="use5" />
    <path
       d="M22.452 62.832c-.411-.513-1.837-3.418-2.547-5.189-.935-2.332-1.628-4.639-2.26-7.529l-.454-2.076-.044-15.285.067-15.282c.061.001 7.451-1.424 16.422-3.167l16.311-3.17 5.31 1.038 5.472 1.127c.108.059-1.176 3.969-3.886 11.83L52.795 36.87l-8.356.072c-6.696.057-8.428.111-8.714.268-.604.33-1.419 1.194-1.576 1.669-.082.248-.783 3.852-1.559 8.009l-1.411 7.559-4.288 4.288c-3.32 3.32-4.322 4.245-4.439 4.099z"
       fill-opacity="0"
       id="path5" />
  </g>
  <path
     d="M40.915 36.977h7.947c2.185.022.397.04-3.973.04s-6.159-.018-3.973-.04z"
     id="path6" />
  <g
     fill="#a00"
     id="g7"
     style="fill:#ffffff;fill-opacity:1;stroke:none">
    <use
       href="#B"
       id="use6"
       style="fill:#ffffff;fill-opacity:1;stroke:none" />
    <path
       d="m 49.327,94.805 c -0.613,-0.2 -1.559,-0.718 -4.152,-2.275 -7.257,-4.356 -12.444,-8.388 -17.379,-13.508 -1.145,-1.188 -2.213,-2.431 -2.374,-2.764 -0.397,-0.821 -0.386,-1.873 0.03,-2.635 0.212,-0.389 2.675,-2.777 7.195,-6.979 l 7.259,-6.77 c 0.367,-0.363 0.433,-0.666 1.327,-6.107 1.041,-6.332 1.066,-6.413 2.25,-7.196 l 0.597,-0.395 7.447,-0.072 7.447,-0.072 6.098,-16.896 6.29,-17.36 c 0.271,-0.653 1.178,-1.424 1.905,-1.621 0.552,-0.15 1.268,-0.059 6.811,0.864 l 6.704,1.171 c 0.637,0.176 1.522,0.963 1.87,1.664 0.254,0.511 0.265,1.241 0.247,17.143 -0.018,16.4 -0.022,16.631 -0.33,18.328 -2.59,14.27 -9.981,25.825 -22.991,35.94 -3.467,2.695 -7.897,5.631 -12.609,8.355 -2.064,1.194 -2.838,1.445 -3.643,1.182 z m 3.15,-7.685 C 59.271,83.059 64.366,79.19 68.951,74.606 76.565,66.995 80.845,58.9 82.755,48.494 l 0.363,-1.978 V 32.008 17.5 l -0.322,-0.074 c -0.957,-0.22 -6.829,-1.158 -6.885,-1.099 -0.036,0.038 -2.785,7.607 -6.109,16.821 l -6.341,17.288 c -0.353,0.637 -1.164,1.232 -1.919,1.408 -0.3,0.07 -3.591,0.128 -7.312,0.13 l -6.765,0.086 c 0,0.475 -1.637,9.591 -1.805,10.046 -0.188,0.512 -1.26,1.574 -6.798,6.73 l -6.575,6.283 c 0,0.205 2.513,2.628 4.452,4.293 1.895,1.627 5.431,4.278 7.646,5.731 2.085,1.368 5.558,3.471 5.657,3.424 0.039,-0.019 1.135,-0.669 2.434,-1.446 z"
       id="path7"
       style="fill:#ffffff;fill-opacity:1;stroke:none" />
  </g>
  <defs
     id="defs7">
    <path
       id="B"
       d="M21.229 70.741c-1.148-.367-1.903-1.279-3.959-4.782-2.799-4.769-4.727-10.214-5.811-16.414l-.362-2.073v-16.51l.193-16.971c.259-.618.895-1.354 1.391-1.611.223-.115 8.704-1.825 18.847-3.8l18.443-3.591 7.91 1.579c4.351.869 8.144 1.69 8.429 1.825.962.456 1.759 1.975 1.568 2.99-.047.251-2.368 7.076-5.159 15.167l-5.447 15.202a3.57 3.57 0 0 1-.974.811c-.597.319-.649.321-8.759.392l-8.159.072-.47 2.434-1.256 6.73c-.432 2.363-.886 4.566-1.009 4.897-.178.479-1.506 1.883-6.527 6.898-3.467 3.463-6.518 6.398-6.78 6.523-.601.285-1.599.395-2.109.232zm5.734-11.794l4.339-4.34 1.438-7.723c1.617-8.683 1.602-8.634 2.883-9.369l.745-.427 8.254-.001c6.783-.001 8.267-.036 8.328-.194.041-.106 1.891-5.462 4.113-11.901l3.888-11.799c-.083-.05-2.591-.568-5.573-1.153l-5.422-1.063-16.494 3.206-16.494 3.206v14.9c0 14.431.009 14.952.296 16.542.678 3.763 1.814 7.544 3.103 10.325.833 1.797 2.062 4.131 2.176 4.131.046 0 2.035-1.953 4.421-4.34z" />
  </defs>
</svg>
